<svg width="88" height="88" viewBox="0 0 88 88" fill="none" xmlns="http://www.w3.org/2000/svg">
<path d="M49.5302 75.9605C49.0077 77.418 48.1579 78.7298 47.5089 80.1295C47.1157 80.9903 46.6647 81.8207 46.2659 82.676C45.9882 83.2755 45.7242 83.9932 45.2292 84.4525C44.7177 84.92 44.1072 85.25 43.4004 85.25C42.7789 85.25 42.0447 84.9998 41.6404 84.5103C41.1097 83.8723 40.6889 83.1655 40.2214 82.4835C39.7429 81.7877 39.2259 81.1058 38.7172 80.4375C38.1699 79.7142 37.6584 78.991 37.2074 78.199C36.9517 77.7453 36.7069 77.2805 36.4484 76.824C36.1734 77.0688 35.9067 77.3272 35.6537 77.5967C35.1752 78.1137 34.6857 78.7187 33.9679 78.8837C32.9642 79.1175 31.7872 78.7627 31.2839 77.7947C31.0062 77.2585 30.8384 76.6673 30.7587 76.0733C30.6404 75.2428 30.5607 74.4342 30.6377 73.601C30.7642 72.0747 31.0942 70.5705 31.6112 69.1295C31.9137 68.288 32.2657 67.4658 32.6809 66.6683C33.0329 66.0028 33.4674 65.3812 33.8992 64.7707C34.2402 64.2867 34.6224 63.9265 35.2082 63.767C35.3979 63.7147 35.5904 63.69 35.7857 63.69C36.1734 63.69 36.5584 63.789 36.8939 63.9843C37.3834 64.2703 37.7492 64.7488 37.8977 65.2933C38.0407 65.8103 38.0104 66.5335 37.6804 66.9845C37.0562 67.8287 36.4759 68.662 36.0029 69.5998C35.7829 70.1718 35.5904 70.7465 35.4199 71.3377C35.3154 71.7062 35.2439 72.0857 35.1834 72.4652C35.3457 72.3635 35.5107 72.2727 35.6839 72.1902C36.3164 71.8877 36.9984 71.753 37.6887 71.9455C38.1617 72.072 38.7254 72.391 39.0444 72.7595C39.3854 73.1528 39.7347 73.5735 40.0069 74.019C40.3837 74.646 40.7522 75.284 41.1399 75.9055C41.7779 76.9477 42.5397 77.9212 43.2684 78.9002C43.2987 78.8315 43.3289 78.7627 43.3592 78.6912C43.8157 77.5802 44.2887 76.4802 44.7699 75.3802C44.9322 74.9732 45.0944 74.5662 45.2759 74.1647C45.5097 73.6422 46.1367 73.2407 46.6702 73.095C47.2724 72.93 47.9297 73.0153 48.4687 73.3288C49.3129 73.8293 49.8822 74.987 49.5302 75.9605ZM68.9012 51.557C68.9287 52.195 68.7362 52.8 68.5492 53.3967C68.3677 53.9715 68.1284 54.5022 67.7187 54.956C67.3089 55.407 66.7397 55.6957 66.1594 55.8607C65.7029 55.9927 65.2409 56.1 64.7762 56.2072C63.4424 56.5207 62.0427 56.584 60.6759 56.6583C59.1689 56.7353 57.6729 56.936 56.1632 56.936C55.7232 57.6318 55.2859 58.3275 54.8459 59.0232C54.2877 59.917 53.5672 60.6622 52.9099 61.468C52.6459 61.8475 52.4177 62.238 52.1729 62.634C51.7632 63.2995 51.0922 63.701 50.3799 63.8165C50.9217 63.9925 51.4084 64.339 51.6944 64.8615C52.0574 65.516 52.4012 66.1788 52.7257 66.8553C53.0612 67.54 53.4022 68.2577 53.6139 68.992C53.7679 69.5227 53.9659 70.0508 54.0924 70.5925C54.2574 71.3103 54.3537 72.0555 54.4444 72.7842C54.5297 73.502 54.5819 74.2307 54.5077 74.9485C54.3592 76.362 53.8477 77.7508 53.2317 79.0213C52.7147 80.102 51.2049 80.377 50.2369 79.8077C49.7474 79.5217 49.3817 79.0488 49.2332 78.4988C49.0682 77.8993 49.1919 77.3602 49.4559 76.813C49.4972 76.7222 49.5412 76.6288 49.5852 76.538C49.8024 75.966 49.9647 75.3637 50.0774 74.7587C50.1022 74.3407 50.0884 73.931 50.0472 73.5157C49.8739 72.413 49.6044 71.313 49.2194 70.2625C48.7217 69.2422 48.1194 68.2688 47.5612 67.276C46.9177 66.143 47.2834 64.6663 48.4219 64.0008C48.6667 63.8578 48.9334 63.7808 49.2057 63.734C48.9802 63.6598 48.7822 63.4947 48.5787 63.349C47.7289 63.327 46.8792 63.3187 46.0294 63.3077C45.5399 63.3022 45.0504 63.2692 44.5609 63.2225C44.1044 63.1757 43.6369 63.0795 43.1722 63.085C40.8402 63.096 38.5054 63.2417 36.1734 63.338C35.8159 63.4012 35.4502 63.4067 35.0954 63.3077C34.4354 63.1262 34.0202 62.7165 33.6324 62.1803C33.2007 61.5945 32.8349 60.973 32.4692 60.3515C32.2299 59.9472 31.9962 59.5485 31.7789 59.1333C31.5122 58.6328 31.3087 58.091 31.0997 57.563C30.9209 57.156 30.7422 56.7517 30.5607 56.3475C29.9502 56.3777 29.3342 56.4108 28.7292 56.3833C28.3469 56.3723 27.9647 56.3145 27.5797 56.3035C27.1397 56.2925 26.6969 56.298 26.2569 56.287C25.7839 56.276 25.3219 56.2238 24.8544 56.1743C24.2687 56.111 23.6582 56.078 23.0944 55.9075C22.1952 55.6352 21.2959 55.2118 20.5947 54.5793C19.6789 53.7488 19.0519 52.4645 19.0959 51.2132C19.1344 50.138 19.7972 49.1453 20.3389 48.257C20.8862 47.3468 21.5627 46.5355 22.2474 45.727C22.8112 45.056 23.4437 44.4455 24.0459 43.8075C24.8159 42.988 25.5777 42.1548 26.3477 41.3353C26.4797 41.1923 26.6502 41.1125 26.8124 41.019C26.7987 40.8513 26.7712 40.6835 26.7629 40.5157C26.6612 38.489 26.7519 36.4485 26.8207 34.4218C26.8564 33.2613 26.9527 32.098 27.0764 30.943C27.2194 29.5817 27.3789 28.204 27.6677 26.8648C28.1572 24.5933 28.9217 22.3768 29.7412 20.2015C30.5799 17.963 31.5424 15.719 32.7937 13.684C33.4784 12.562 34.2182 11.4978 35.0212 10.4555C35.7004 9.5755 36.4292 8.7285 37.1167 7.854C38.3569 6.259 39.7099 4.7355 41.2857 3.465C41.8054 3.036 42.2977 2.75 42.9962 2.75C43.3399 2.75 43.6699 2.83525 43.9807 2.9755C44.0604 2.96725 44.1347 2.9315 44.2144 2.9315C44.7974 2.9315 45.3804 3.146 45.7984 3.5915C47.0057 4.884 48.2652 6.09125 49.6374 7.20775C51.0894 8.3875 52.1097 9.91925 53.2427 11.3933C54.6149 13.1753 56.0504 14.9408 57.1834 16.8905C57.7252 17.8255 58.2257 18.7825 58.6657 19.7725C59.1607 20.8945 59.5539 22.0523 59.9637 23.2073C60.7199 25.3605 61.2864 27.6155 61.6219 29.876C61.9629 32.1943 62.1747 34.5538 62.0372 36.905C61.9684 38.06 61.8502 39.2068 61.7402 40.3618C61.6687 41.0988 61.5752 41.833 61.4927 42.57C61.8557 42.6085 62.1747 42.724 62.4662 42.9248C62.4524 42.9138 62.4414 42.9055 62.4277 42.8945C62.4414 42.9055 62.4552 42.9165 62.4717 42.9275C62.5679 42.9935 62.6642 43.065 62.7577 43.1448C62.7907 43.1723 62.8209 43.197 62.8484 43.219C62.7934 43.1777 62.7384 43.1337 62.6807 43.0897C62.9887 43.3317 63.2747 43.5738 63.5442 43.8708C63.9319 44.3025 64.2949 44.737 64.7074 45.1413C65.1749 45.5923 65.6534 46.0405 66.0632 46.5437C66.5114 47.0965 66.9377 47.6713 67.3694 48.235C67.6362 48.5678 67.9057 48.9032 68.1422 49.2552C68.5877 49.929 68.8764 50.743 68.9012 51.557ZM31.3939 36.0828C31.3472 38.2498 31.3719 40.4195 31.6387 42.5755C31.7487 43.3895 31.8559 44.2007 31.9824 45.0147C32.1199 45.9195 32.3399 46.8023 32.5792 47.685C33.0219 49.3405 33.5252 51.0152 34.1632 52.6075L34.1687 52.6103C35.9397 52.6323 37.7134 52.6928 39.4844 52.7175C41.0684 52.745 42.6579 52.723 44.2419 52.712C45.8012 52.701 47.3522 52.6212 48.9059 52.569C49.6512 52.5415 50.3992 52.558 51.1444 52.547C51.9007 52.536 52.6542 52.4837 53.4104 52.4727C53.4187 52.4727 53.4297 52.4727 53.4379 52.4727C53.4737 52.4727 53.5039 52.492 53.5369 52.4948C54.3867 50.908 55.1512 49.2663 55.8634 47.6163C56.5097 46.0433 56.9744 44.429 57.2577 42.7542C57.3649 41.8275 57.4364 40.8952 57.5024 39.9575C57.5712 38.9097 57.6729 37.862 57.6949 36.8143C57.7307 34.8205 57.6372 32.8322 57.3952 30.8577C57.1284 29.161 56.7242 27.4917 56.2567 25.8445C55.8304 24.3182 55.3079 22.8003 54.7057 21.329C54.1694 20.1713 53.5727 19.0355 52.8797 17.9712C52.2417 16.9757 51.5212 16.0243 50.7979 15.081C50.2094 14.3358 49.6237 13.585 49.0242 12.8453C48.4082 12.089 47.7702 11.2915 47.0139 10.6645C46.3237 10.0843 45.6114 9.537 44.9074 8.97325C44.4509 8.60475 44.0467 8.184 43.6232 7.78525C42.7432 8.52225 41.8852 9.295 41.1564 10.1777C40.6862 10.7965 40.2159 11.4125 39.7044 12.001C39.1847 12.6032 38.6732 13.2028 38.1782 13.8215C37.4907 14.7483 36.8389 15.697 36.2587 16.6925C35.6647 17.7238 35.1724 18.81 34.7049 19.9045C33.4427 23.0202 32.3674 26.2378 31.8147 29.557C31.5562 31.724 31.4434 33.8965 31.3939 36.0828ZM29.0537 52.3518C29.0509 52.3463 29.0482 52.338 29.0482 52.3325C28.4624 50.4983 27.8629 48.664 27.5219 46.761C27.4917 46.5822 27.4752 46.4008 27.4477 46.222C27.1369 46.5245 26.8372 46.8408 26.5209 47.1405C25.7812 47.8335 25.0992 48.5568 24.4667 49.3433C24.0734 49.8795 23.7132 50.4487 23.4244 51.0482C23.3887 51.1527 23.3557 51.2545 23.3282 51.3618C23.3309 51.3728 23.3337 51.3837 23.3364 51.3947C23.3474 51.414 23.3584 51.4305 23.3667 51.447C23.3997 51.48 23.4327 51.513 23.4657 51.546C23.6197 51.6422 23.7764 51.7303 23.9414 51.81C24.4447 51.9888 24.9589 52.0877 25.4924 52.1647C26.6749 52.3022 27.8657 52.338 29.0537 52.3518ZM46.0322 59.235C46.5794 59.246 47.1267 59.257 47.6739 59.268C47.8967 59.2735 48.1249 59.2625 48.3504 59.257C48.4137 59.257 48.4824 59.257 48.5457 59.257C48.8454 58.9408 49.1507 58.6272 49.4229 58.2862C49.8107 57.805 50.2562 57.376 50.6577 56.9085C50.7099 56.8315 50.7622 56.7545 50.8172 56.6803C48.6254 56.661 46.4337 56.6913 44.2419 56.6995C42.6304 56.705 41.0244 56.6995 39.4129 56.7325C38.2882 56.7545 37.1634 56.7765 36.0414 56.8013C36.4182 57.5603 36.8224 58.3248 37.3147 59.0095C37.9774 58.9985 38.6374 58.982 39.3002 58.982C40.5927 58.982 41.8879 59.0012 43.1777 59.0315C44.1347 59.048 45.0807 59.2185 46.0322 59.235ZM64.4242 51.6037C64.0172 50.8777 63.4974 50.1957 62.9914 49.5302C62.3864 48.7822 61.6687 48.1442 61.0362 47.421C60.9069 47.2697 60.7694 47.1295 60.6402 46.981C60.2359 48.2707 59.7354 49.533 59.2047 50.7705C58.9847 51.2847 58.7344 51.788 58.4897 52.294C59.0534 52.272 59.6172 52.239 60.1809 52.228C61.0857 52.2088 61.9904 52.228 62.8952 52.1372C63.3902 52.052 63.8852 51.9365 64.3692 51.7908C64.3884 51.7275 64.4077 51.6642 64.4242 51.6037ZM36.7839 32.1063C36.2532 30.9898 35.9012 29.799 35.8902 28.5477C35.8847 28.028 35.8957 27.5055 35.9479 26.9857C36.0112 26.3092 36.0689 25.5915 36.3054 24.948C36.6244 24.0597 37.0232 23.1825 37.5649 22.4125C37.9252 21.8872 38.3157 21.3482 38.7722 20.9027C39.1874 20.4985 39.6604 20.1438 40.1444 19.822C41.1454 19.1675 42.2977 18.854 43.4664 18.6835C43.6727 18.6285 43.8789 18.601 44.0852 18.601C44.2914 18.601 44.4949 18.6285 44.7012 18.6835C45.0944 18.7908 45.4354 18.9915 45.7214 19.2803C45.7599 19.3188 45.7957 19.3545 45.8287 19.3957C46.0624 19.459 46.2989 19.514 46.5354 19.58C46.9287 19.6872 47.2999 19.8605 47.6712 20.0282C47.9517 20.1382 48.2432 20.2537 48.4907 20.416C48.8207 20.6332 49.1342 20.889 49.4202 21.1557C49.8024 21.516 50.1709 21.912 50.4899 22.319C50.7402 22.6325 51.0069 22.946 51.2077 23.2925C51.4249 23.6528 51.5899 24.0515 51.7439 24.4475C52.0052 25.113 52.0959 25.8363 52.1812 26.543C52.3132 27.6128 52.2554 28.655 52.0849 29.711C52.0217 30.1097 51.8979 30.481 51.7549 30.855C51.5377 31.4023 51.3039 31.9825 50.9519 32.461C50.3359 33.297 49.6759 34.1027 48.8619 34.7572C48.0589 35.4117 47.1404 36.0223 46.1119 36.256C45.2237 36.4568 44.3189 36.5475 43.4169 36.4375C42.0557 36.267 40.6422 36.0608 39.5092 35.2138C38.4174 34.3943 37.3807 33.3575 36.7839 32.1063ZM40.3699 28.8503C40.4469 29.2215 40.5542 29.5845 40.6834 29.9393C40.8044 30.184 40.9419 30.4232 41.0904 30.6515C41.3544 30.9705 41.6294 31.2757 41.9374 31.5507C42.0887 31.6497 42.2427 31.7432 42.4049 31.8257C42.8064 31.9605 43.2107 32.0705 43.6314 32.1448C43.9697 32.1778 44.3079 32.1915 44.6489 32.175C44.8497 32.1365 45.0449 32.087 45.2402 32.0238C45.5564 31.8643 45.8534 31.6883 46.1449 31.4848C46.5134 31.1658 46.8407 30.811 47.1514 30.4343C47.2752 30.2555 47.3852 30.074 47.4869 29.8815C47.5969 29.5653 47.6822 29.2435 47.7427 28.9163C47.8059 28.2453 47.8142 27.5688 47.7537 26.8978C47.6767 26.4743 47.5749 26.059 47.4292 25.652C47.3192 25.4375 47.1954 25.234 47.0552 25.036C46.7939 24.706 46.5244 24.3897 46.2164 24.1065C46.0487 24.0047 45.8727 23.9167 45.6912 23.8342C45.2374 23.6665 44.7617 23.5675 44.3024 23.397C44.1869 23.3558 44.0742 23.309 43.9697 23.2595C43.6122 23.3173 43.2547 23.3833 42.9109 23.4878C42.7184 23.5923 42.5342 23.7078 42.3527 23.8315C42.0749 24.0818 41.8274 24.354 41.5909 24.6428C41.2279 25.157 40.9144 25.7015 40.6449 26.2708C40.5239 26.631 40.4497 27.0023 40.3892 27.379C40.3452 27.8658 40.3342 28.3608 40.3699 28.8503Z" fill="url(#paint0_linear_359_167)"/>
<defs>
<linearGradient id="paint0_linear_359_167" x1="43.9988" y1="2.75" x2="43.9988" y2="85.25" gradientUnits="userSpaceOnUse">
<stop stop-color="#71FA71"/>
<stop offset="1" stop-color="#00A14B"/>
</linearGradient>
</defs>
</svg>
