<svg width="40" height="40" viewBox="0 0 60 60" fill="none" xmlns="http://www.w3.org/2000/svg">
<path d="M52.6014 27.9121L52.5782 27.9595L52.5619 28.0097C52.5504 28.0452 52.5337 28.0787 52.5123 28.1092C52.5121 28.1094 52.512 28.1095 52.5119 28.1097L52.2599 28.4667L52.0538 28.6541L51.9072 28.7797L44.8122 34.0409C44.5396 34.2295 44.2152 34.3288 43.8836 34.325L43.8808 34.325C43.5069 34.3221 43.1438 34.1996 42.8446 33.9753C42.5454 33.751 42.326 33.4368 42.2184 33.0788C42.1107 32.7207 42.1206 32.3376 42.2466 31.9855C42.3725 31.6335 42.6079 31.3311 42.9183 31.1225L43.013 31.0589L43.0844 30.97L44.6596 29.0114L45.4443 28.0358L44.2139 27.8043C32.4922 25.5988 18.9886 19.4956 12.0446 7.8327L12.027 7.80311L12.0068 7.77526C11.8981 7.62589 11.7732 7.50814 11.7027 7.44668C11.6597 7.21974 11.662 6.98639 11.7097 6.76012C11.7602 6.52052 11.8604 6.29418 12.0038 6.09573C12.1473 5.89729 12.3308 5.73116 12.5425 5.60808C12.7542 5.48501 12.9893 5.40773 13.2328 5.38124C13.4762 5.35475 13.7225 5.37964 13.9557 5.45431C14.1807 5.52636 14.3888 5.64322 14.5673 5.79776C14.5734 5.80697 14.5868 5.82795 14.6063 5.86542C14.6457 5.94112 14.689 6.04243 14.7365 6.16632C14.7753 6.26753 14.8115 6.36955 14.8488 6.47443C14.857 6.49762 14.8653 6.52095 14.8737 6.54445C14.9157 6.66229 14.9659 6.80167 15.0168 6.91435L15.0347 6.95401L15.0571 6.99134C22.3583 19.16 37.4199 24.2368 47.3391 25.7222L48.503 25.8965L48.1695 24.7679L46.8945 20.4538L46.8905 20.4403L46.886 20.427C46.7373 19.9856 46.7701 19.5032 46.977 19.086C47.184 18.6687 47.5482 18.3508 47.9896 18.2021C48.431 18.0535 48.9134 18.0862 49.3306 18.2932C49.7475 18.5 50.0653 18.8639 50.2141 19.3048C50.2142 19.3051 50.2143 19.3055 50.2145 19.3058L52.6982 26.7572C52.7312 26.9417 52.7287 27.1309 52.6907 27.3147L52.6752 27.3897V27.4664V27.4668V27.4673V27.4677V27.4681V27.4686V27.469V27.4695V27.4699V27.4704V27.4708V27.4713V27.4717V27.4722V27.4726V27.4731V27.4736V27.474V27.4745V27.4749V27.4754V27.4758V27.4763V27.4768V27.4772V27.4777V27.4782V27.4786V27.4791V27.4796V27.48V27.4805V27.481V27.4815V27.4819V27.4824V27.4829V27.4834V27.4838V27.4843V27.4848V27.4853V27.4857V27.4862V27.4867V27.4872V27.4877V27.4882V27.4886V27.4891V27.4896V27.4901V27.4906V27.4911V27.4916V27.4921V27.4926V27.493V27.4935V27.494V27.4945V27.495V27.4955V27.496V27.4965V27.497V27.4975V27.498V27.4985V27.499V27.4995V27.5V27.5005V27.501V27.5015V27.502V27.5025V27.503V27.5035V27.504V27.5045V27.505V27.5055V27.5061V27.5066V27.5071V27.5076V27.5081V27.5086V27.5091V27.5096V27.5101V27.5106V27.5111V27.5117V27.5122V27.5127V27.5132V27.5137V27.5142V27.5147V27.5153V27.5158V27.5163V27.5168V27.5173V27.5178V27.5184V27.5189V27.5194V27.5199V27.5204V27.5209V27.5215V27.522V27.5225V27.523V27.5235V27.5241V27.5246V27.5251V27.5256V27.5261V27.5267V27.5272V27.5277V27.5282V27.5287V27.5293V27.5298V27.5303V27.5308V27.5314V27.5319V27.5324V27.5329V27.5334V27.534V27.5345V27.535V27.5355V27.5361V27.5366V27.5371V27.5376V27.5382V27.5387V27.5392V27.5397V27.5402V27.5408V27.5413V27.5418V27.5423V27.5429V27.5434V27.5439V27.5444V27.545V27.5455V27.546V27.5465V27.547V27.5476V27.5481V27.5486V27.5491V27.5497V27.5502V27.5507V27.5512V27.5517V27.5523V27.5528V27.5533V27.5538V27.5543V27.5549V27.5554V27.5559V27.5564V27.5569V27.5575V27.558V27.5585V27.559V27.5595V27.56V27.5606V27.5611V27.5616V27.5621V27.5626V27.5631V27.5636V27.5642V27.5647V27.5652V27.5657V27.5662V27.5667V27.5672V27.5678V27.5683V27.5688V27.5693V27.5698V27.5703V27.5708V27.5713V27.5718V27.5723V27.5728V27.5733V27.5738V27.5744V27.5749V27.5754V27.5759V27.5764V27.5769V27.5774V27.5779V27.5784V27.5789V27.5794V27.5799V27.5804V27.5809V27.5814V27.5819V27.5824V27.5828V27.5833V27.5838V27.5843V27.5848V27.5853V27.5858V27.5863V27.5868V27.5873V27.5878V27.5882V27.5887V27.5892V27.5897V27.5902V27.5907V27.5912V27.5916V27.5921V27.5926V27.5931V27.5935V27.594V27.5945V27.595V27.5955V27.5959V27.5964V27.5969V27.5973V27.5978V27.5983V27.5988V27.5992V27.5997V27.6002V27.6006V27.6011V27.6015V27.602V27.6025V27.6029V27.6034V27.6038V27.6043V27.6048V27.6052V27.6057V27.6061V27.6066V27.607V27.6075V27.6079V27.6084V27.6088V27.6093V27.6097V27.6101V27.6106V27.611V27.6115V27.6119V27.6123V27.6128V27.6132V27.6136V27.6141V27.6145V27.6149V27.6154V27.6158V27.6162V27.6166V27.6171V27.6175V27.6179V27.6183V27.6188V27.6192V27.6196V27.62V27.6204V27.6208V27.6212V27.6217V27.6221V27.6225V27.6229V27.6233V27.6237V27.6241V27.6245V27.6249V27.6253V27.6257V27.6261V27.6265V27.6269V27.6272V27.6276V27.628V27.6284V27.6288V27.6292V27.6296V27.6299V27.6303V27.6307V27.6311V27.6314V27.6318V27.6322V27.6326V27.6329V27.6333V27.6337V27.634V27.6344V27.6347V27.6351V27.6355V27.6358V27.6362V27.6365V27.6369V27.6372V27.6376V27.6379V27.6383V27.6386V27.6389V27.6393V27.6396V27.6399V27.6403V27.6406V27.6409V27.6413V27.6416V27.6419C52.6678 27.7357 52.6428 27.8274 52.6014 27.9121ZM50.175 42.2914V52.2914C50.175 52.7555 49.9906 53.2006 49.6624 53.5288C49.3343 53.857 48.8891 54.0414 48.425 54.0414H43.7877C43.3236 54.0414 42.8785 53.857 42.5503 53.5288C42.2221 53.2006 42.0377 52.7555 42.0377 52.2914V42.2914C42.0377 41.8272 42.2221 41.3821 42.5503 41.0539C42.8785 40.7257 43.3236 40.5414 43.7877 40.5414H48.425C48.8891 40.5414 49.3343 40.7257 49.6624 41.0539C49.9906 41.3821 50.175 41.8272 50.175 42.2914ZM25.2678 35.5414H30.7322C31.1964 35.5414 31.6415 35.7258 31.9697 36.0539C32.2979 36.3821 32.4822 36.8273 32.4822 37.2914V52.2914C32.4822 52.7555 32.2979 53.2006 31.9697 53.5288C31.6415 53.857 31.1964 54.0414 30.7322 54.0414H25.2678C24.8036 54.0414 24.3585 53.857 24.0303 53.5288C23.7021 53.2006 23.5178 52.7555 23.5178 52.2914V37.2914C23.5178 36.8273 23.7021 36.3821 24.0303 36.0539C24.3585 35.7258 24.8036 35.5414 25.2678 35.5414ZM8.76807 25.5414H13.5002C13.9644 25.5414 14.4095 25.7258 14.7377 26.0539C15.0658 26.3821 15.2502 26.8273 15.2502 27.2914V52.2914C15.2502 52.7555 15.0658 53.2006 14.7377 53.5288C14.4095 53.857 13.9644 54.0414 13.5002 54.0414H8.76807C8.30394 54.0414 7.85882 53.857 7.53063 53.5288C7.20244 53.2006 7.01807 52.7555 7.01807 52.2914V27.2914C7.01807 26.8273 7.20244 26.3821 7.53063 26.0539C7.85882 25.7258 8.30394 25.5414 8.76807 25.5414Z" stroke="black" stroke-width="1.5"/>
</svg>
