<svg width="40" height="40" viewBox="0 0 60 60" fill="none" xmlns="http://www.w3.org/2000/svg">
<path d="M29.8242 4.75195C30.2245 4.75195 30.6445 4.42723 30.6445 4.0268V2.30309C30.6445 1.90277 30.2245 1.57793 29.8242 1.57793C29.4239 1.57793 29.0039 1.90266 29.0039 2.30309V4.0268C29.0039 4.42711 29.4239 4.75195 29.8242 4.75195Z" fill="black"/>
<path d="M35.6801 7.04074C35.8657 7.04074 36.0511 6.96984 36.1928 6.82828L37.4118 5.6093C37.6949 5.32594 37.6949 4.8668 37.4118 4.58391C37.1284 4.30078 36.6698 4.30078 36.3864 4.58391L35.1674 5.80289C34.8843 6.08602 34.8843 6.54516 35.1674 6.82828C35.3091 6.96984 35.4945 7.04074 35.6801 7.04074Z" fill="black"/>
<path d="M23.6173 7.035C23.759 7.17668 23.9444 7.24746 24.13 7.24746C24.3156 7.24746 24.501 7.17668 24.6427 7.035C24.9261 6.75211 24.9261 6.29297 24.6427 6.00961L23.4237 4.79086C23.1406 4.5075 22.6817 4.5075 22.3986 4.79086C22.1152 5.07375 22.1152 5.53289 22.3986 5.81602L23.6173 7.035Z" fill="black"/>
<path d="M20.1935 14.8683C20.0689 14.2377 20.0055 13.5816 20.0055 12.9182C20.0055 12.1834 20.0861 11.4517 20.2449 10.7433C20.3326 10.3528 20.0869 9.96481 19.696 9.87715C19.3082 9.7909 18.9175 10.0349 18.8296 10.4261C18.6476 11.2384 18.5552 12.077 18.5552 12.9182C18.5552 13.6758 18.6277 14.4265 18.771 15.1498C18.8392 15.4951 19.1423 15.7343 19.4815 15.7343C19.5279 15.7343 19.5754 15.7297 19.623 15.7201C20.0159 15.6428 20.2713 15.2611 20.1935 14.8683Z" fill="black"/>
<path d="M39.7478 16.9923C39.3898 16.8138 38.9538 16.9603 38.7757 17.3189C37.0897 20.7116 33.6908 22.8198 29.9052 22.821C26.1195 22.8198 22.7208 20.7116 21.0349 17.3189C20.8564 16.9602 20.4204 16.8137 20.0629 16.9923C19.7041 17.1704 19.5579 17.5693 19.736 17.9283C21.668 21.8161 25.5615 24.1992 29.8996 24.1992C29.9003 24.1992 29.9012 24.1992 29.9019 24.1992C29.904 24.1992 29.9065 24.1992 29.9086 24.1992C29.9095 24.1992 29.9102 24.1992 29.9109 24.1992C34.249 24.1992 38.1429 21.8161 40.0746 17.9283C40.2526 17.5693 40.1064 17.1704 39.7478 16.9923Z" fill="black"/>
<path d="M41.0352 15.1509C41.181 14.4202 41.255 13.6691 41.255 12.9182C41.255 12.0752 41.1616 11.2336 40.978 10.4169C40.8902 10.026 40.5018 9.77988 40.1114 9.86871C39.721 9.95637 39.4753 10.3444 39.5632 10.7351C39.7234 11.4476 39.8048 12.1821 39.8048 12.9182C39.8048 13.5737 39.74 14.2296 39.6127 14.8671C39.5344 15.2599 39.7894 15.6416 40.1821 15.7201C40.2299 15.7297 40.2775 15.7343 40.3247 15.7343C40.6633 15.7344 40.9661 15.4956 41.0352 15.1509Z" fill="black"/>
<path d="M22.8555 27.9928V27.8102C22.8609 27.8033 22.8673 27.796 22.8744 27.7887C22.8784 27.7846 22.8824 27.7808 22.8863 27.7773H36.6757V27.9928V57.418H22.8555V27.9928ZM36.6544 27.6866C36.6544 27.6866 36.6547 27.6869 36.6551 27.6874L36.6544 27.6866Z" stroke="black" stroke-width="2"/>
<path d="M24.3564 12.2726L26.9437 14.1983C27.1355 14.3377 27.2156 14.6075 27.1426 14.833L26.1542 17.8861C25.9906 18.3901 26.5673 18.815 26.9961 18.5036L29.5834 16.6263C29.7752 16.487 30.0348 16.4884 30.2265 16.6277L32.8137 18.5085C33.2424 18.82 33.8192 18.401 33.6554 17.8971L32.6673 14.8557C32.594 14.6303 32.6744 14.3835 32.8659 14.2443L35.4534 12.2725C35.8823 11.961 35.6616 11.1913 35.1318 11.1913H31.9337C31.6968 11.1913 31.4867 11.1304 31.4135 10.9049L30.4251 7.90922C30.2615 7.40496 29.5486 7.42805 29.3846 7.93207L28.3965 10.8934C28.323 11.1189 28.1129 11.1913 27.8761 11.1913H24.6777C24.148 11.1914 23.9278 11.9611 24.3564 12.2726Z" fill="black"/>
<path d="M4.22266 43.1289H18.043V57.5352H4.22266V43.1289Z" stroke="black" stroke-width="2"/>
<path d="M9.56958 33.3863C9.69133 33.4748 9.74219 33.6314 9.69567 33.7745L9.35395 34.8258C9.25024 35.1456 9.61598 35.4113 9.88797 35.2138L10.7825 34.564C10.9042 34.4756 11.0688 34.4756 11.1903 34.564L12.0848 35.2138C12.3566 35.4114 12.7224 35.1456 12.6188 34.8258L12.2771 33.7745C12.2307 33.6314 12.2814 33.4748 12.4029 33.3863L13.2977 32.7075C13.5695 32.5104 13.4297 32.0508 13.0938 32.0508H11.988C11.8379 32.0508 11.7044 31.9831 11.6582 31.8402L11.3165 30.8033C11.2128 30.4835 10.7603 30.4907 10.6566 30.8105L10.3149 31.8364C10.2685 31.9795 10.135 32.0508 9.98465 32.0508H8.87934C8.54336 32.0508 8.40344 32.5104 8.67543 32.7075L9.56958 33.3863Z" fill="black"/>
<path d="M10.9865 39.5511C14.5175 39.5511 17.39 36.6786 17.39 33.1479C17.39 29.6171 14.5175 26.7445 10.9865 26.7445C7.45574 26.7445 4.58301 29.6173 4.58301 33.148C4.58301 36.6787 7.45574 39.5511 10.9865 39.5511ZM10.9865 28.1947C13.7221 28.1947 15.9398 30.4124 15.9398 33.148C15.9398 35.8836 13.7221 38.1011 10.9865 38.1011C8.25109 38.1011 6.0332 35.8836 6.0332 33.148C6.0332 30.4124 8.25109 28.1947 10.9865 28.1947Z" fill="black"/>
<path d="M41.8398 43.1289H55.6602V57.5352H41.8398V43.1289Z" stroke="black" stroke-width="2"/>
<path d="M47.2981 33.3863C47.4198 33.4748 47.4707 33.6314 47.4242 33.7745L47.0827 34.8258C46.9788 35.1456 47.3447 35.4113 47.6167 35.2138L48.511 34.564C48.6327 34.4756 48.7973 34.4756 48.9188 34.564L49.8133 35.2138C50.0852 35.4114 50.4511 35.1456 50.3475 34.8258L50.0058 33.7745C49.9592 33.6314 50.0102 33.4748 50.1317 33.3863L51.0262 32.7075C51.2981 32.5104 51.1582 32.0508 50.8223 32.0508H49.7165C49.5661 32.0508 49.4331 31.9831 49.3867 31.8402L49.045 30.8033C48.9413 30.4835 48.4888 30.4907 48.3851 30.8105L48.0434 31.8364C47.997 31.9795 47.8638 32.0508 47.7134 32.0508H46.6079C46.2719 32.0508 46.132 32.5104 46.404 32.7075L47.2981 33.3863Z" fill="black"/>
<path d="M48.7145 39.5511C52.2455 39.5511 55.1182 36.6786 55.1182 33.1479C55.1182 29.6172 52.2455 26.7444 48.7145 26.7444C45.1838 26.7444 42.311 29.6172 42.311 33.1479C42.311 36.6786 45.1838 39.5511 48.7145 39.5511ZM48.7145 28.1947C51.4501 28.1947 53.668 30.4124 53.668 33.148C53.668 35.8836 51.4501 38.1011 48.7145 38.1011C45.9791 38.1011 43.7612 35.8836 43.7612 33.148C43.7612 30.4124 45.9791 28.1947 48.7145 28.1947Z" fill="black"/>
</svg>
