<svg width="40" height="40" viewBox="0 0 60 60" fill="none" xmlns="http://www.w3.org/2000/svg">
<path d="M46.3614 30.8213C46.364 27.8685 45.5532 24.9719 44.0181 22.4495C42.483 19.927 40.2828 17.8761 37.6589 16.5218C35.0349 15.1675 32.0887 14.562 29.1433 14.7718C26.1979 14.9817 23.3672 15.9987 20.9618 17.7114C18.5564 19.424 16.6691 21.7661 15.5071 24.4807C14.345 27.1953 13.9532 30.1775 14.3744 33.1001C14.7956 36.0227 16.0137 38.7729 17.8949 41.0489C19.7762 43.3249 22.248 45.0387 25.0392 46.0024V58.0339H35.5331V46.0024C38.6927 44.9124 41.4337 42.8642 43.3745 40.1432C45.3154 37.4221 46.3595 34.1636 46.3614 30.8213Z" stroke="#231F20" stroke-width="2.5" stroke-linecap="round" stroke-linejoin="round"/>
<path d="M37.3553 50.5343H23.3794V55.9892H37.3553V50.5343Z" stroke="#231F20" stroke-width="2.5" stroke-linecap="round" stroke-linejoin="round"/>
<path d="M34.4995 26.5L30.2437 30.8879M26.4999 35.1975L30.2437 30.8879M30.2437 30.8879L26.4995 26.2989L33.5 35.1975" stroke="black" stroke-width="2" stroke-linecap="round" stroke-linejoin="round"/>
<path d="M30.2861 1.96606V5.71441" stroke="#231F20" stroke-width="3.93217" stroke-linecap="round" stroke-linejoin="round"/>
<path d="M49.5953 9.3783L47.2173 12.2763" stroke="#231F20" stroke-width="3.93217" stroke-linecap="round" stroke-linejoin="round"/>
<path d="M10.4043 9.3783L12.7823 12.2763" stroke="#231F20" stroke-width="3.93217" stroke-linecap="round" stroke-linejoin="round"/>
</svg>
