<svg width="40" height="40" viewBox="0 0 60 60" fill="none" xmlns="http://www.w3.org/2000/svg">
<path d="M28.8984 34.8856L28.8838 34.8978L28.8696 34.9106C27.6591 36 26.4617 37.5218 26.4617 39.3462C26.4617 40.2104 26.6529 41.1299 27.4282 42.0216C28.1581 42.8609 29.3391 43.5969 31.1251 44.3116C33.6616 45.3494 36.0303 46.4324 37.775 47.7578C39.501 49.069 40.4874 50.5157 40.5386 52.2823C40.5316 54.6661 38.6191 56.6923 36.3463 56.6923H9.80784C7.56669 56.6923 5.60743 54.6957 5.38604 52.1288C5.45005 50.3847 6.42961 48.9792 8.14043 47.7061C9.8859 46.4071 12.2539 45.3526 14.7983 44.3116C16.5843 43.5969 17.7653 42.8609 18.4951 42.0216C19.2705 41.1299 19.4617 40.2104 19.4617 39.3462C19.4617 37.5218 18.2642 36 17.0537 34.9106L17.0396 34.8978L17.0249 34.8856C15.2486 33.4053 14.3848 30.9666 14.3848 28.2692C14.3848 25.7584 15.1583 23.5621 16.5761 22.005C17.9816 20.4615 20.096 19.4615 22.9617 19.4615C25.8274 19.4615 27.9418 20.4615 29.3473 22.005C30.7651 23.5621 31.5386 25.7584 31.5386 28.2692C31.5386 30.9666 30.6748 33.4053 28.8984 34.8856ZM50.3463 21.9231V22.9231H51.3463H53.3137L48.518 28.962L43.6336 22.9231H45.5771H46.5771V21.9231C46.5771 15.9477 41.7447 11.1154 35.7694 11.1154H34.7694V12.1154V14.0635L28.7867 9.24163L34.7694 4.40267V6.34616V7.34616H35.7694C43.7556 7.34616 50.3463 13.9369 50.3463 21.9231Z" stroke="#1C1E1C" stroke-width="2"/>
</svg>
