<svg width="32" height="32" viewBox="0 0 44 44" fill="none" xmlns="http://www.w3.org/2000/svg">
<g clip-path="url(#clip0_219_990)">
<path d="M42.35 14.85C41.9833 14.6667 41.6167 14.6667 41.25 14.6667H35.9333L33.7333 2.2C33.55 1.46667 33.1833 0.916667 32.6333 0.366667C32.0833 0 31.35 0 30.6167 0L28.7833 0.366667C28.6 0.366667 28.6 0.366667 28.4167 0.55L13.3833 8.61667L9.9 9.35C9.35 9.35 8.98333 9.9 9.16667 10.2667L9.35 11.1833L6.6 11.7333C6.41667 11.7333 6.23333 11.9167 6.05 12.1C5.86667 12.2833 5.86667 12.4667 5.86667 12.8333L6.23333 14.6667H2.75C2.38333 14.6667 2.01667 14.6667 1.65 14.85C0.55 15.4 0 16.3167 0 17.4167V41.25C0 41.6167 0.183333 42.1667 0.183333 42.35C0.733333 43.45 1.65 44 2.75 44H41.25C42.35 44 43.2667 43.45 43.6333 42.5333C43.8167 42.1667 44 41.8 44 41.25V17.4167C44 16.3167 43.45 15.4 42.35 14.85ZM39.9667 16.5L36.4833 19.9833C36.6667 19.6167 36.6667 19.0667 36.6667 18.5167L36.3 16.5H39.9667ZM19.8 28.7833L16.6833 19.6167L32.45 22C32.6333 22 32.6333 22 32.8167 22L34.65 21.6333C34.8333 21.6333 35.0167 21.45 35.2 21.45L22.9167 33.55C22.55 33.9167 22 33.9167 21.8167 33.55L18.3333 30.0667L19.6167 29.8833C19.8 29.8833 20.1667 29.7 20.1667 29.5167C19.8 29.3333 19.9833 28.9667 19.8 28.7833ZM30.9833 1.83333C31.1667 1.83333 31.5333 1.83333 31.7167 2.01667C31.9 2.2 32.0833 2.38333 32.0833 2.56667L35.0167 18.8833C35.0167 19.0667 35.0167 19.4333 34.8333 19.6167C34.65 19.8 34.4667 19.9833 34.2833 19.9833L33.3667 20.1667L30.25 2.2L30.9833 1.83333ZM28.2333 2.75L31.35 20.1667L15.95 17.7833L14.6667 10.0833L28.2333 2.75ZM17.7833 28.4167L13.0167 19.9833L14.6667 19.6167L17.7833 28.4167ZM12.8333 10.6333L14.1167 17.7833L12.2833 18.15L11 11L12.8333 10.6333ZM9.53333 13.0167L10.0833 16.6833L8.25 17.05L7.7 13.3833L9.53333 13.0167ZM6.41667 16.5L6.78333 18.15C6.78333 18.5167 7.33333 18.8833 7.7 18.8833H7.88333L10.6333 18.3333L10.8167 19.25C10.8167 19.4333 10.8167 19.4333 11 19.6167L15.2167 27.3167L4.03333 16.5H6.41667ZM1.83333 17.4167C1.83333 17.2333 1.83333 17.05 2.01667 17.05L15.2167 30.0667L1.83333 40.3333V17.4167ZM41.25 42.1667H2.75H2.56667L16.5 31.35L20.1667 35.0167C20.7167 35.3833 21.2667 35.75 22 35.75C22.7333 35.75 23.2833 35.5667 23.8333 35.0167L27.5 31.35L41.4333 41.9833C41.4333 42.1667 41.25 42.1667 41.25 42.1667ZM42.1667 40.3333L28.7833 30.0667L41.9833 17.05C42.1667 17.05 42.1667 17.2333 42.1667 17.4167V40.3333Z" fill="black"/>
</g>
<defs>
<clipPath id="clip0_219_990">
<rect width="44" height="44" fill="white"/>
</clipPath>
</defs>
</svg>
