<svg width="361" height="388" viewBox="0 0 361 388" fill="none" xmlns="http://www.w3.org/2000/svg">
<g clip-path="url(#clip0_1172_6784)">
<path d="M293.729 51.3625C286.281 57.5891 278.833 54.8678 277.135 45.3112C276.144 39.7778 270.878 36.071 265.345 37.0618L254.82 38.9395C249.953 39.7232 246.719 44.3843 247.502 49.252L247.703 50.4122C249.401 59.9687 243.311 65.0602 234.165 61.7303L233.059 61.3269C228.49 59.6242 223.329 61.981 221.695 66.6327L217.982 76.6579C216.026 81.9282 218.776 87.8091 224.046 89.7648C233.157 93.0535 234.516 100.866 227.068 107.093C222.788 110.671 222.174 117.127 225.786 121.448L231.84 128.69C235.418 132.969 241.874 133.584 246.195 129.972C253.643 123.745 261.091 126.466 262.748 136.057C263.739 141.591 269.005 145.298 274.538 144.307L285.063 142.429C289.93 141.645 293.164 136.984 292.381 132.117L292.18 130.956C290.482 121.4 296.572 116.308 305.718 119.638L306.824 120.042C311.476 121.676 316.636 119.319 318.27 114.667L321.983 104.642C323.939 99.3716 321.189 93.4907 315.953 91.5762C306.808 88.2464 305.45 80.4336 312.898 74.2069C317.177 70.6291 317.792 64.1729 314.18 59.8523L308.125 52.6101C304.506 48.365 298.05 47.7503 293.729 51.3625ZM281.143 104.041C273.777 110.198 262.746 109.213 256.589 101.848C250.431 94.4819 251.416 83.4516 258.782 77.2937C266.147 71.1358 277.178 72.1209 283.335 79.4866C289.493 86.8523 288.508 97.8827 281.143 104.041Z" fill="#71FA71" fill-opacity="0.2"/>
</g>
<g clip-path="url(#clip1_1172_6784)">
<path d="M152.003 234.298C143.216 241.644 134.429 238.433 132.426 227.159C131.257 220.631 125.045 216.258 118.516 217.427L106.1 219.642C100.357 220.566 96.542 226.065 97.4666 231.808L97.7037 233.177C99.7065 244.451 92.5217 250.458 81.7321 246.53L80.4269 246.054C75.0361 244.045 68.948 246.825 67.0204 252.313L62.6399 264.141C60.3327 270.358 63.5763 277.296 69.7939 279.604C80.543 283.483 82.1455 292.701 73.3587 300.047C68.3099 304.268 67.5847 311.884 71.8462 316.982L78.9893 325.526C83.2102 330.575 90.827 331.3 95.9243 327.038C104.711 319.692 113.499 322.903 115.453 334.218C116.622 340.746 122.835 345.119 129.363 343.95L141.779 341.735C147.522 340.81 151.337 335.311 150.413 329.569L150.175 328.2C148.173 316.926 155.357 310.919 166.147 314.847L167.452 315.323C172.94 317.251 179.028 314.47 180.956 308.982L185.336 297.155C187.644 290.937 184.4 283.999 178.223 281.741C167.433 277.812 165.831 268.595 174.617 261.249C179.666 257.028 180.391 249.411 176.13 244.314L168.987 235.77C164.717 230.762 157.101 230.036 152.003 234.298ZM137.154 296.446C128.464 303.71 115.451 302.548 108.186 293.858C100.922 285.169 102.084 272.156 110.773 264.891C119.463 257.626 132.476 258.788 139.741 267.478C147.006 276.168 145.844 289.181 137.154 296.446Z" fill="#71FA71" fill-opacity="0.2"/>
</g>
<circle cx="155" cy="66.7031" r="38" fill="#71FA71" fill-opacity="0.2"/>
<path d="M203 55.7031C203 34.7163 185.987 17.7031 165 17.7031V55.7031H203Z" fill="#71FA71"/>
<path d="M181.548 143.247C190.538 143.247 197.826 135.959 197.826 126.969C197.826 117.979 190.538 110.691 181.548 110.691C172.558 110.691 165.271 117.979 165.271 126.969C165.271 135.959 172.558 143.247 181.548 143.247Z" stroke="#068A44" stroke-width="5"/>
<path d="M234.997 199.659C243.987 199.659 251.274 192.371 251.274 183.381C251.274 174.391 243.987 167.104 234.997 167.104C226.007 167.104 218.719 174.391 218.719 183.381C218.719 192.371 226.007 199.659 234.997 199.659Z" stroke="#068A44" stroke-width="5"/>
<path d="M181.548 252.716C190.538 252.716 197.826 245.428 197.826 236.438C197.826 227.448 190.538 220.16 181.548 220.16C172.558 220.16 165.271 227.448 165.271 236.438C165.271 245.428 172.558 252.716 181.548 252.716Z" stroke="#068A44" stroke-width="5"/>
<path d="M127.401 228.831C136.391 228.831 143.679 221.543 143.679 212.553C143.679 203.563 136.391 196.275 127.401 196.275C118.411 196.275 111.123 203.563 111.123 212.553C111.123 221.543 118.411 228.831 127.401 228.831Z" stroke="#068A44" stroke-width="5"/>
<path d="M127.401 165.173C136.391 165.173 143.679 157.885 143.679 148.895C143.679 139.905 136.391 132.617 127.401 132.617C118.411 132.617 111.123 139.905 111.123 148.895C111.123 157.885 118.411 165.173 127.401 165.173Z" stroke="#068A44" stroke-width="5"/>
<path d="M181.52 190.009C188.78 190.009 194.666 184.124 194.666 176.864C194.666 169.604 188.78 163.719 181.52 163.719C174.26 163.719 168.375 169.604 168.375 176.864C168.375 184.124 174.26 190.009 181.52 190.009Z" stroke="#068A44" stroke-width="5"/>
<path d="M141.413 140.59L165.83 131.164" stroke="#068A44" stroke-width="5"/>
<path d="M192.959 138.604L223.389 171.97" stroke="#068A44" stroke-width="5"/>
<path d="M225.04 196.246L193.155 225.026" stroke="#068A44" stroke-width="5"/>
<path d="M136.351 162.488L171.451 223.684" stroke="#068A44" stroke-width="5"/>
<path d="M141.805 220.133L165.27 231.013" stroke="#068A44" stroke-width="5"/>
<path d="M133.498 197.449L172.738 140.645" stroke="#068A44" stroke-width="5"/>
<path d="M142.392 155.273L169.857 170.796" stroke="#068A44" stroke-width="5"/>
<path d="M194.693 178.348L218.719 180.166" stroke="#068A44" stroke-width="5"/>
<path d="M181.521 190.037L181.548 220.131" stroke="#068A44" stroke-width="5"/>
<g clip-path="url(#clip2_1172_6784)">
<path d="M299.859 232.484C291.556 232.484 284.484 237.302 279 246.783C273.465 237.302 266.444 232.484 258.141 232.484C255.557 232.423 252.985 232.871 250.574 233.804C248.163 234.737 245.959 236.136 244.089 237.92C242.218 239.705 240.718 241.841 239.673 244.206C238.628 246.571 238.06 249.118 238 251.703C238.06 254.287 238.628 256.835 239.673 259.2C240.718 261.565 242.218 263.7 244.089 265.485C245.959 267.27 248.163 268.669 250.574 269.601C252.985 270.534 255.557 270.983 258.141 270.922C266.444 270.922 273.516 266.104 279 256.623C284.535 266.104 291.556 270.922 299.859 270.922C302.443 270.983 305.015 270.534 307.426 269.601C309.837 268.669 312.041 267.27 313.911 265.485C315.782 263.7 317.282 261.565 318.327 259.2C319.372 256.835 319.94 254.287 320 251.703C319.94 249.118 319.372 246.571 318.327 244.206C317.282 241.841 315.782 239.705 313.911 237.92C312.041 236.136 309.837 234.737 307.426 233.804C305.015 232.871 302.443 232.423 299.859 232.484ZM258.141 264.515C254.624 264.626 251.206 263.341 248.632 260.941C246.059 258.54 244.54 255.219 244.406 251.703C244.54 248.186 246.059 244.865 248.632 242.465C251.206 240.065 254.624 238.779 258.141 238.89C264.548 238.89 269.878 243.093 274.439 251.703C269.878 260.313 264.548 264.515 258.141 264.515ZM299.859 264.515C293.452 264.515 288.123 260.313 283.561 251.703C288.123 243.093 293.452 238.89 299.859 238.89C303.376 238.779 306.794 240.065 309.368 242.465C311.941 244.865 313.46 248.186 313.594 251.703C313.46 255.219 311.941 258.54 309.368 260.941C306.794 263.341 303.376 264.626 299.859 264.515Z" fill="#71FA71"/>
</g>
<g clip-path="url(#clip3_1172_6784)">
<path d="M73.2998 192.4L59.1998 184L67.2998 169.6L72.3998 172.6L67.2998 181.9L76.2998 187.3L73.2998 192.4ZM39.0998 154L33.9998 145L25.2998 150.1L22.2998 145L36.3998 136.6L44.4998 151L39.0998 154Z" fill="#068A44"/>
<path d="M88 139H71.5V133H82V122.5H88V139Z" fill="#068A44"/>
<path d="M68.2 185.501L67 179.501C79 176.801 87.7 166.001 87.7 153.701C87.7 151.901 87.4 149.801 87.1 148.001L93.1 146.801C93.7 149.201 94 151.601 94 153.701C94 169.301 83.2 182.501 68.2 185.501Z" fill="#068A44"/>
<path d="M51.3996 184.9C37.8996 180.7 28.5996 168.4 28.5996 154C28.5996 150.1 29.1996 146.2 30.6996 142.6L36.3996 144.7C35.1996 147.7 34.5996 150.7 34.5996 154C34.5996 165.7 42.0996 175.6 52.8996 179.2L51.3996 184.9Z" fill="#068A44"/>
<path d="M80.8 136C75.7 130.3 68.5 127 61 127C54.7 127 48.7 129.4 43.9 133.3L40 128.8C45.7 123.7 53.2 121 61 121C70.3 121 79 124.9 85.3 131.8L80.8 136Z" fill="#068A44"/>
</g>
<defs>
<clipPath id="clip0_1172_6784">
<rect width="128.724" height="128.724" fill="white" transform="translate(179.297 82.5645) rotate(-39.8964)"/>
</clipPath>
<clipPath id="clip1_1172_6784">
<rect width="151.864" height="151.864" fill="white" transform="translate(17 271.109) rotate(-39.8964)"/>
</clipPath>
<clipPath id="clip2_1172_6784">
<rect width="82" height="82" fill="white" transform="translate(238 210.703)"/>
</clipPath>
<clipPath id="clip3_1172_6784">
<rect width="72" height="72" fill="white" transform="translate(22 121)"/>
</clipPath>
</defs>
</svg>
