<svg width="333" height="256" viewBox="0 0 333 256" fill="none" xmlns="http://www.w3.org/2000/svg">
<path d="M159.968 13.521C163.134 7.84033 164.718 5 167.085 5C169.452 5 171.035 7.8403 174.202 13.5209L175.021 14.9906C175.921 16.6048 176.371 17.412 177.073 17.9445C177.774 18.4771 178.648 18.6747 180.395 19.0701L181.986 19.4301C188.135 20.8214 191.21 21.5171 191.941 23.8693C192.673 26.2215 190.577 28.6728 186.385 33.5748L185.3 34.843C184.109 36.236 183.513 36.9325 183.245 37.7943C182.977 38.656 183.067 39.5853 183.247 41.444L183.411 43.136C184.045 49.6765 184.362 52.9468 182.447 54.4005C180.532 55.8543 177.653 54.5287 171.896 51.878L170.406 51.192C168.77 50.4388 167.952 50.062 167.085 50.062C166.218 50.062 165.4 50.4388 163.764 51.192L162.274 51.878C156.517 54.5287 153.638 55.8543 151.723 54.4005C149.808 52.9468 150.125 49.6765 150.758 43.136L150.922 41.444C151.103 39.5853 151.193 38.656 150.925 37.7943C150.657 36.9325 150.061 36.236 148.87 34.843L147.785 33.5748C143.593 28.6728 141.497 26.2215 142.229 23.8693C142.96 21.5171 146.035 20.8214 152.184 19.4301L153.775 19.0701C155.522 18.6747 156.396 18.4771 157.097 17.9445C157.799 17.412 158.249 16.6049 159.149 14.9906L159.968 13.521Z" fill="#71FA71" fill-opacity="0.2"/>
<path d="M88.9679 28.521C92.1345 22.8403 93.7177 20 96.085 20C98.4522 20 100.035 22.8403 103.202 28.5209L104.021 29.9906C104.921 31.6048 105.371 32.412 106.073 32.9445C106.774 33.4771 107.648 33.6747 109.395 34.0701L110.986 34.4301C117.135 35.8214 120.21 36.5171 120.941 38.8693C121.673 41.2215 119.577 43.6728 115.385 48.5748L114.3 49.843C113.109 51.236 112.513 51.9325 112.245 52.7943C111.977 53.656 112.067 54.5853 112.247 56.444L112.411 58.136C113.045 64.6765 113.362 67.9468 111.447 69.4005C109.532 70.8543 106.653 69.5287 100.896 66.878L99.4062 66.192C97.7702 65.4388 96.9522 65.062 96.085 65.062C95.2177 65.062 94.3997 65.4388 92.7637 66.192L91.2742 66.878C85.5167 69.5287 82.6379 70.8543 80.7228 69.4005C78.8078 67.9468 79.1247 64.6765 79.7585 58.136L79.9224 56.444C80.1025 54.5853 80.1926 53.656 79.9246 52.7943C79.6567 51.9325 79.061 51.236 77.8698 49.843L76.7852 48.5748C72.5931 43.6728 70.497 41.2215 71.2285 38.8693C71.96 36.5171 75.0346 35.8214 81.1838 34.4301L82.7747 34.0701C84.5221 33.6747 85.3958 33.4771 86.0973 32.9445C86.7988 32.412 87.2488 31.6049 88.1486 29.9906L88.9679 28.521Z" fill="#71FA71" fill-opacity="0.2"/>
<path d="M230.968 28.521C234.134 22.8403 235.718 20 238.085 20C240.452 20 242.035 22.8403 245.202 28.5209L246.021 29.9906C246.921 31.6048 247.371 32.412 248.073 32.9445C248.774 33.4771 249.648 33.6747 251.395 34.0701L252.986 34.4301C259.135 35.8214 262.21 36.5171 262.941 38.8693C263.673 41.2215 261.577 43.6728 257.385 48.5748L256.3 49.843C255.109 51.236 254.513 51.9325 254.245 52.7943C253.977 53.656 254.067 54.5853 254.247 56.444L254.411 58.136C255.045 64.6765 255.362 67.9468 253.447 69.4005C251.532 70.8543 248.653 69.5287 242.896 66.878L241.406 66.192C239.77 65.4388 238.952 65.062 238.085 65.062C237.218 65.062 236.4 65.4388 234.764 66.192L233.274 66.878C227.517 69.5287 224.638 70.8543 222.723 69.4005C220.808 67.9468 221.125 64.6765 221.758 58.136L221.922 56.444C222.103 54.5853 222.193 53.656 221.925 52.7943C221.657 51.9325 221.061 51.236 219.87 49.843L218.785 48.5748C214.593 43.6728 212.497 41.2215 213.229 38.8693C213.96 36.5171 217.035 35.8214 223.184 34.4301L224.775 34.0701C226.522 33.6747 227.396 33.4771 228.097 32.9445C228.799 32.412 229.249 31.6049 230.149 29.9906L230.968 28.521Z" fill="#71FA71" fill-opacity="0.2"/>
<path d="M166.473 89.5254C127.672 89.5254 91.9707 102.8 63.6641 125.056L123.256 198.14C159.71 170.861 197.451 186.774 211.764 198.14L270.506 126.027C242.007 103.187 205.836 89.5254 166.473 89.5254Z" fill="#46CA46"/>
<path d="M60.081 127.955C23.3703 158.492 0 204.517 0 256H94.5274C94.3788 225.711 111.09 205.972 119.56 200.368L60.081 127.955Z" fill="#71FA71"/>
<path d="M332.946 256.002C332.946 205.087 310.09 159.511 274.077 128.975L215.799 200.809C224.581 207.726 241.763 228.448 240.234 256.002H332.946Z" fill="#068A44"/>
<path d="M232.441 227.292L177.889 247.7L175.752 240.665L232.441 227.292Z" fill="#068A44"/>
<circle cx="167.085" cy="246.878" r="9.12207" fill="#068A44"/>
<g clip-path="url(#clip0_1582_8042)">
<path fill-rule="evenodd" clip-rule="evenodd" d="M167.68 163.615C179.83 163.615 189.68 153.766 189.68 141.615C189.68 129.465 179.83 119.615 167.68 119.615C155.529 119.615 145.68 129.465 145.68 141.615C145.68 153.766 155.529 163.615 167.68 163.615ZM160.805 138.865C163.083 138.865 164.93 137.018 164.93 134.74C164.93 132.462 163.083 130.615 160.805 130.615C158.527 130.615 156.68 132.462 156.68 134.74C156.68 137.018 158.527 138.865 160.805 138.865ZM178.68 134.74C178.68 137.018 176.833 138.865 174.555 138.865C172.277 138.865 170.43 137.018 170.43 134.74C170.43 132.462 172.277 130.615 174.555 130.615C176.833 130.615 178.68 132.462 178.68 134.74ZM167.68 149.865C164.642 149.865 162.18 147.403 162.18 144.365H156.68C156.68 150.44 161.605 155.365 167.68 155.365C173.755 155.365 178.68 150.44 178.68 144.365H173.18C173.18 147.403 170.717 149.865 167.68 149.865Z" fill="white"/>
</g>
<g clip-path="url(#clip1_1582_8042)">
<path fill-rule="evenodd" clip-rule="evenodd" d="M296.373 208.525C296.373 220.676 286.523 230.525 274.373 230.525C262.223 230.525 252.373 220.676 252.373 208.525C252.373 196.375 262.223 186.525 274.373 186.525C286.523 186.525 296.373 196.375 296.373 208.525ZM271.623 201.65C271.623 203.929 269.776 205.775 267.498 205.775C265.22 205.775 263.373 203.929 263.373 201.65C263.373 199.372 265.22 197.525 267.498 197.525C269.776 197.525 271.623 199.372 271.623 201.65ZM281.248 205.775C283.526 205.775 285.373 203.929 285.373 201.65C285.373 199.372 283.526 197.525 281.248 197.525C278.97 197.525 277.123 199.372 277.123 201.65C277.123 203.929 278.97 205.775 281.248 205.775ZM263.373 211.275C263.373 217.35 268.298 222.275 274.373 222.275C280.448 222.275 285.373 217.35 285.373 211.275H263.373Z" fill="white"/>
</g>
<g clip-path="url(#clip2_1582_8042)">
<path fill-rule="evenodd" clip-rule="evenodd" d="M59.7803 230.525C71.9306 230.525 81.7803 220.676 81.7803 208.525C81.7803 196.375 71.9306 186.525 59.7803 186.525C47.63 186.525 37.7803 196.375 37.7803 208.525C37.7803 220.676 47.63 230.525 59.7803 230.525ZM52.9053 205.775C55.1835 205.775 57.0303 203.929 57.0303 201.65C57.0303 199.372 55.1835 197.525 52.9053 197.525C50.6271 197.525 48.7803 199.372 48.7803 201.65C48.7803 203.929 50.6271 205.775 52.9053 205.775ZM70.7803 201.65C70.7803 203.929 68.9334 205.775 66.6553 205.775C64.3771 205.775 62.5303 203.929 62.5303 201.65C62.5303 199.372 64.3771 197.525 66.6553 197.525C68.9334 197.525 70.7803 199.372 70.7803 201.65ZM59.7803 214.025C56.7427 214.025 54.2803 216.488 54.2803 219.525H48.7803C48.7803 213.45 53.7051 208.525 59.7803 208.525C65.8553 208.525 70.7803 213.45 70.7803 219.525H65.2803C65.2803 216.488 62.8178 214.025 59.7803 214.025Z" fill="white"/>
</g>
<defs>
<clipPath id="clip0_1582_8042">
<rect width="44" height="44" fill="white" transform="translate(145.68 119.615)"/>
</clipPath>
<clipPath id="clip1_1582_8042">
<rect width="44" height="44" fill="white" transform="translate(252.373 186.525)"/>
</clipPath>
<clipPath id="clip2_1582_8042">
<rect width="44" height="44" fill="white" transform="translate(37.7803 186.525)"/>
</clipPath>
</defs>
</svg>
