<svg width="220" height="149" viewBox="0 0 220 149" fill="none" xmlns="http://www.w3.org/2000/svg">
<g clip-path="url(#clip0_1857_7208)">
<path d="M210.2 104.288C209.667 104.013 208.867 103.875 208.333 104.15L207 104.7V88.2C207 86.9625 206.067 86 205 86H202.333C201.267 86 200.333 86.9625 200.333 88.0625V90.125H197C195.933 90.125 195 91.0875 195 92.1875V97H191.667C190.6 97 189.667 97.9625 189.667 99.0625V106.212L185.667 107.175V106.763C185.667 105.938 185.267 105.25 184.6 104.975L183 104.15C182.733 103.188 181.933 102.5 181 102.5H179.667C179.267 102.5 179 102.775 179 103.188V118.312C179 118.725 179.267 119 179.667 119H181C181.933 119 182.733 118.312 183 117.35L184.6 116.525C185.133 116.25 185.533 115.562 185.667 114.875L192.067 118.725C192.333 118.862 192.733 119 193.133 119C193.4 119 193.8 118.862 194.067 118.725L210.067 109.925C210.733 109.512 211.133 108.825 211.133 108.138V106.075C211 105.388 210.733 104.7 210.2 104.288ZM181.667 116.938C181.667 117.35 181.4 117.625 181 117.625H180.333V103.875H181C181.4 103.875 181.667 104.15 181.667 104.562V116.938ZM184.333 114.737C184.333 115.012 184.2 115.287 183.933 115.287L183 115.838V105.663L183.933 106.212C184.2 106.35 184.333 106.488 184.333 106.763V114.737ZM201.667 88.0625C201.667 87.65 201.933 87.375 202.333 87.375H205C205.4 87.375 205.667 87.65 205.667 88.0625V105.112L201.667 106.625V88.0625ZM196.333 92.1875C196.333 91.775 196.6 91.5 197 91.5H200.333V107.175L198.467 107.862L198.067 106.35C197.8 105.525 197.133 104.975 196.467 104.837V92.1875H196.333ZM191 99.0625C191 98.65 191.267 98.375 191.667 98.375H195V104.975L191 105.938V99.0625ZM209.667 108C209.667 108.275 209.533 108.55 209.267 108.55L193.267 117.487C193.133 117.625 192.867 117.625 192.6 117.487L185.667 113.362V108.55L195.933 106.212C196.333 106.075 196.6 106.35 196.733 106.763L197.4 108.963C197.4 109.1 197.4 109.375 197.4 109.513C197.267 109.65 197.133 109.787 197 109.787L193 110.75C192.6 110.888 192.467 111.163 192.467 111.575C192.6 111.85 192.867 112.125 193.133 112.125H193.267L197.267 111.162C197.8 111.025 198.2 110.613 198.467 110.2C198.6 109.925 198.733 109.65 198.733 109.375L208.867 105.525C209.133 105.387 209.267 105.525 209.533 105.663C209.667 105.8 209.8 105.938 209.8 106.212V108H209.667Z" fill="#068A44"/>
</g>
<g clip-path="url(#clip1_1857_7208)">
<path d="M192.906 36.2148C193.545 36.2148 194.062 35.6832 194.062 35.0273C194.062 34.3715 193.545 33.8398 192.906 33.8398C192.268 33.8398 191.75 34.3715 191.75 35.0273C191.75 35.6832 192.268 36.2148 192.906 36.2148Z" fill="#068A44"/>
<path d="M207.938 8.90234H205.625L203.312 13.53L201 8.90234H198.688L202.046 14.8398L198.688 20.7773H201L203.312 16.266L205.625 20.7773H207.938L204.582 14.8398L207.938 8.90234Z" fill="#068A44"/>
<path d="M196.375 20.7773H189.438C188.824 20.7766 188.237 20.5262 187.803 20.0809C187.37 19.6357 187.126 19.032 187.125 18.4023V7.71484C187.126 7.08515 187.369 6.48142 187.803 6.03616C188.237 5.5909 188.824 5.34047 189.438 5.33984H196.375V7.71484H189.438V18.4023H196.375V20.7773Z" fill="#068A44"/>
<path d="M189.438 24.3398H184.812V26.7148H189.438V24.3398Z" fill="#068A44"/>
<path d="M196.375 24.3398H191.75V26.7148H196.375V24.3398Z" fill="#068A44"/>
<path d="M203.312 24.3398H198.688V26.7148H203.312V24.3398Z" fill="#068A44"/>
<path d="M210.25 24.3398H205.625V26.7148H210.25V24.3398Z" fill="#068A44"/>
<path d="M217.188 24.3398H212.562V26.7148H217.188V24.3398Z" fill="#068A44"/>
<path d="M212.562 39.7773H189.438C188.824 39.7767 188.237 39.5262 187.803 39.081C187.369 38.6357 187.126 38.032 187.125 37.4023V32.6523C187.126 32.0227 187.369 31.419 187.803 30.9737C188.237 30.5284 188.824 30.278 189.438 30.2773H212.562C213.176 30.278 213.763 30.5284 214.197 30.9737C214.631 31.419 214.874 32.0227 214.875 32.6523V37.4023C214.874 38.032 214.631 38.6357 214.197 39.081C213.763 39.5262 213.176 39.7767 212.562 39.7773ZM189.438 32.6523V37.4023H212.562V32.6523H189.438Z" fill="#068A44"/>
</g>
<path d="M54.581 0.931641H39.9346C37.301 0.931641 35.166 2.99487 35.166 5.53999V19.6942C35.166 22.2393 37.301 24.3025 39.9346 24.3025H54.581C57.2146 24.3025 59.3496 22.2393 59.3496 19.6942V5.53999C59.3496 2.99487 57.2146 0.931641 54.581 0.931641Z" stroke="#068A44"/>
<path d="M54.0949 16.0222L46.2469 9.81684C46.0942 9.69652 45.8694 9.71859 45.7449 9.86613C45.6931 9.92757 45.6647 10.0044 45.6647 10.0837V20.4259C45.6645 20.5779 45.7674 20.7121 45.9179 20.7562C45.9515 20.766 45.9864 20.7708 46.0214 20.7707C46.1407 20.7706 46.2521 20.7129 46.3182 20.6169L49.0665 16.6338H53.8695C54.0665 16.6335 54.226 16.479 54.2258 16.2886C54.2256 16.1854 54.1776 16.0876 54.0949 16.0222Z" fill="#71FA71"/>
<path d="M46.0214 7.67048C45.8244 7.67048 45.6647 7.5161 45.6647 7.32569V4.56745C45.6647 4.37703 45.8244 4.22266 46.0214 4.22266C46.2184 4.22266 46.3782 4.37703 46.3782 4.56745V7.32569C46.3782 7.5161 46.2184 7.67048 46.0214 7.67048Z" fill="#068A44"/>
<path d="M43.1676 10.4287H40.3138C40.1168 10.4287 39.957 10.2741 39.957 10.0835C39.957 9.89283 40.1168 9.73828 40.3138 9.73828H43.1676C43.3646 9.73828 43.5243 9.89283 43.5243 10.0835C43.5243 10.2741 43.3646 10.4287 43.1676 10.4287Z" fill="#068A44"/>
<path d="M51.7291 10.4287H48.8753C48.6783 10.4287 48.5186 10.2741 48.5186 10.0835C48.5186 9.89283 48.6783 9.73828 48.8753 9.73828H51.7291C51.9261 9.73828 52.0859 9.89283 52.0859 10.0835C52.0859 10.2741 51.9261 10.4287 51.7291 10.4287Z" fill="#068A44"/>
<path d="M44.0038 8.4781C43.9091 8.47826 43.8183 8.44206 43.7513 8.37742L41.7329 6.42874C41.5928 6.29334 41.5928 6.07387 41.7329 5.93847C41.873 5.80306 42.1001 5.80306 42.2401 5.93847L44.2557 7.88924C44.3952 8.0237 44.3954 8.24201 44.2563 8.37683C44.1892 8.44184 44.0981 8.4783 44.0031 8.47814L44.0038 8.4781Z" fill="#068A44"/>
<path d="M41.9854 14.3288C41.7884 14.3292 41.6284 14.1751 41.6281 13.9846C41.6279 13.8929 41.6656 13.8048 41.7329 13.7399L43.7512 11.7892C43.8929 11.6569 44.1188 11.6607 44.2557 11.7976C44.3892 11.9313 44.3892 12.1431 44.2557 12.2767L42.2401 14.2281C42.1726 14.2933 42.0808 14.3295 41.9854 14.3288Z" fill="#068A44"/>
<path d="M48.0391 8.47825C47.8421 8.47861 47.6821 8.32449 47.6818 8.13408C47.6816 8.04228 47.7193 7.9542 47.7866 7.88936L49.8028 5.93858C49.9445 5.80629 50.1704 5.8101 50.3072 5.94705C50.4407 6.08068 50.4407 6.29249 50.3072 6.42608L48.2917 8.37686C48.2248 8.44176 48.1339 8.47825 48.0391 8.47825Z" fill="#068A44"/>
<circle cx="113" cy="109.371" r="38.8776" fill="#1F4B3E"/>
<path d="M35.915 82.4248C35.87 82.2448 35.87 82.0198 36.005 81.8848C36.77 80.4898 37.22 78.9148 37.22 77.2498C37.22 72.0298 32.765 67.7998 27.32 67.7998C24.98 67.7998 22.82 68.6098 21.11 69.9148C26.735 71.1298 30.92 75.9898 30.92 81.7498C30.92 83.3698 30.605 84.9448 29.975 86.3398C30.875 86.1148 31.73 85.7548 32.54 85.2598C32.72 85.1698 32.9 85.1248 33.08 85.2148L35.96 86.2498C36.455 86.4298 36.95 85.9348 36.815 85.3948L35.915 82.4248Z" fill="#068A44"/>
<path d="M18.32 72.2998C12.875 72.2998 8.42004 76.5298 8.42004 81.7498C8.42004 83.4148 8.87004 84.9898 9.68004 86.3848C9.77004 86.5648 9.81504 86.7448 9.77004 86.9248L8.82504 89.9398C8.64504 90.4798 9.14004 90.9748 9.68004 90.7948L12.56 89.7598C12.74 89.7148 12.965 89.7148 13.1 89.8048C14.63 90.7048 16.385 91.1998 18.32 91.1998C23.765 91.1998 28.22 86.9698 28.22 81.7498C28.22 76.5298 23.765 72.2998 18.32 72.2998ZM12.92 83.5498C11.93 83.5498 11.12 82.7398 11.12 81.7498C11.12 80.7598 11.93 79.9498 12.92 79.9498C13.91 79.9498 14.72 80.7598 14.72 81.7498C14.72 82.7398 13.91 83.5498 12.92 83.5498ZM18.32 83.5498C17.33 83.5498 16.52 82.7398 16.52 81.7498C16.52 80.7598 17.33 79.9498 18.32 79.9498C19.31 79.9498 20.12 80.7598 20.12 81.7498C20.12 82.7398 19.31 83.5498 18.32 83.5498ZM23.72 83.5498C22.73 83.5498 21.92 82.7398 21.92 81.7498C21.92 80.7598 22.73 79.9498 23.72 79.9498C24.71 79.9498 25.52 80.7598 25.52 81.7498C25.52 82.7398 24.71 83.5498 23.72 83.5498Z" fill="#068A44"/>
<circle cx="39.2659" cy="92.3271" r="2.79785" fill="#1F4B3E"/>
<ellipse cx="71.3247" cy="9.38481" rx="2.79785" ry="2.70414" fill="#1F4B3E"/>
<ellipse cx="162.099" cy="22.0079" rx="2.79785" ry="2.70414" fill="#1F4B3E"/>
<ellipse cx="165.439" cy="109.621" rx="2.79785" ry="2.70414" fill="#1F4B3E"/>
<path d="M106.64 117.071C105.667 117.071 104.773 116.898 103.96 116.551C103.147 116.204 102.44 115.711 101.84 115.071C101.24 114.418 100.773 113.651 100.44 112.771C100.12 111.891 99.9599 110.924 99.9599 109.871C99.9599 108.871 100.133 107.944 100.48 107.091C100.84 106.224 101.333 105.464 101.96 104.811C102.587 104.158 103.313 103.651 104.14 103.291C104.967 102.931 105.86 102.751 106.82 102.751C107.5 102.751 108.16 102.858 108.8 103.071C109.453 103.271 110.04 103.558 110.56 103.931C111.093 104.291 111.527 104.704 111.86 105.171L110.42 106.671C110.033 106.284 109.64 105.964 109.24 105.711C108.853 105.444 108.453 105.244 108.04 105.111C107.64 104.978 107.233 104.911 106.82 104.911C106.167 104.911 105.553 105.038 104.98 105.291C104.42 105.531 103.927 105.871 103.5 106.311C103.087 106.751 102.76 107.278 102.52 107.891C102.28 108.491 102.16 109.151 102.16 109.871C102.16 110.631 102.273 111.324 102.5 111.951C102.74 112.564 103.073 113.091 103.5 113.531C103.927 113.971 104.433 114.311 105.02 114.551C105.62 114.778 106.28 114.891 107 114.891C107.44 114.891 107.873 114.831 108.3 114.711C108.727 114.591 109.127 114.418 109.5 114.191C109.873 113.964 110.213 113.698 110.52 113.391L111.6 115.151C111.293 115.511 110.873 115.838 110.34 116.131C109.82 116.424 109.233 116.658 108.58 116.831C107.94 116.991 107.293 117.071 106.64 117.071ZM123.054 116.871L118.714 110.591L113.154 102.871H115.894L120.134 109.071L125.794 116.871H123.054ZM113.054 116.871L118.394 109.251L119.734 110.831L115.594 116.871H113.054ZM120.454 110.371L119.134 108.851L123.054 102.871H125.594L120.454 110.371Z" fill="white"/>
<path d="M130.529 75.0824H151.074V21.9648H162.099" stroke="#1F4B3E"/>
<path d="M104.718 74.499V8.50391H71.1311" stroke="#1F4B3E"/>
<path d="M146.741 109.621H165.692" stroke="#1F4B3E"/>
<path d="M82.4738 108.384H39.2169V90.6699" stroke="#1F4B3E"/>
<defs>
<clipPath id="clip0_1857_7208">
<rect width="32" height="33" fill="white" transform="translate(179 86)"/>
</clipPath>
<clipPath id="clip1_1857_7208">
<rect width="37" height="38" fill="white" transform="translate(182.5 2.96484)"/>
</clipPath>
</defs>
</svg>
