<svg width="75" height="71" viewBox="0 0 75 71" fill="none" xmlns="http://www.w3.org/2000/svg">
<path d="M57.375 30C57.375 29.1562 57.6562 28.3875 58.125 27.75C57.7875 25.7438 57 23.8969 55.875 22.3031C55.0969 22.1813 54.3469 21.8438 53.7563 21.2437C53.1656 20.6437 52.8094 19.8937 52.6969 19.125C51.1031 18 49.2563 17.2125 47.25 16.875C46.6219 17.3438 45.8438 17.625 45 17.625C44.1562 17.625 43.3875 17.3438 42.75 16.875C40.7438 17.2125 38.8969 18 37.3031 19.125C37.1813 19.9031 36.8438 20.6531 36.2437 21.2437C35.6437 21.8344 34.8937 22.1906 34.125 22.3031C33 23.8969 32.2125 25.7438 31.875 27.75C32.3438 28.3781 32.625 29.1562 32.625 30C32.625 30.8438 32.3438 31.6125 31.875 32.25C32.2125 34.2563 33 36.1031 34.125 37.6969C34.9031 37.8187 35.6531 38.1562 36.2437 38.7563C36.8438 39.3563 37.1906 40.1062 37.3031 40.875C38.8969 42 40.7438 42.7875 42.75 43.125C43.3781 42.6562 44.1562 42.375 45 42.375C45.8438 42.375 46.6125 42.6562 47.25 43.125C49.2563 42.7875 51.1031 42 52.6969 40.875C52.8187 40.0969 53.1562 39.3469 53.7563 38.7563C54.3563 38.1562 55.1062 37.8094 55.875 37.6969C57 36.1031 57.7875 34.2563 58.125 32.25C57.6562 31.6219 57.375 30.8438 57.375 30Z" fill="#71FA71" fill-opacity="0.2"/>
<path d="M45 38.4375C49.6599 38.4375 53.4375 34.6599 53.4375 30C53.4375 25.3401 49.6599 21.5625 45 21.5625C40.3401 21.5625 36.5625 25.3401 36.5625 30C36.5625 34.6599 40.3401 38.4375 45 38.4375Z" fill="white"/>
<path d="M20.625 30C20.625 16.5375 31.5375 5.625 45 5.625V9.375C33.6094 9.375 24.375 18.6094 24.375 30" fill="#71FA71" fill-opacity="0.2"/>
<path d="M22.5 35.625L18.75 30H26.25L22.5 35.625Z" fill="#71FA71" fill-opacity="0.2"/>
<path d="M57.1877 51.1032C45.5252 57.8345 30.6189 53.8407 23.8877 42.1782L27.1314 40.3032C32.8314 50.1657 45.4408 53.5501 55.3033 47.8501" fill="#71FA71" fill-opacity="0.2"/>
<path d="M61.1156 46.6688L58.125 52.7344L54.375 46.2375L61.1156 46.6688Z" fill="#71FA71" fill-opacity="0.2"/>
<path d="M57.1879 8.88745C68.8504 15.6187 72.8441 30.525 66.1129 42.1875L62.8691 40.3125C68.5691 30.4499 65.1848 17.8312 55.3223 12.1406" fill="#71FA71" fill-opacity="0.2"/>
<path d="M51.375 7.69688L58.125 7.26562L54.375 13.7625L51.375 7.69688Z" fill="#71FA71" fill-opacity="0.2"/>
<path d="M40.9717 30.34L44.1452 33.4L50.4917 27.28" stroke="#71FA71" stroke-opacity="0.2" stroke-width="2" stroke-linecap="round" stroke-linejoin="round"/>
<path d="M43.3125 40.5C43.3125 39.6562 43.5938 38.8875 44.0625 38.25C43.725 36.2438 42.9375 34.3969 41.8125 32.8031C41.0344 32.6813 40.2844 32.3438 39.6938 31.7437C39.1031 31.1437 38.7469 30.3937 38.6344 29.625C37.0406 28.5 35.1938 27.7125 33.1875 27.375C32.5594 27.8438 31.7812 28.125 30.9375 28.125C30.0938 28.125 29.325 27.8438 28.6875 27.375C26.6813 27.7125 24.8344 28.5 23.2406 29.625C23.1188 30.4031 22.7812 31.1531 22.1812 31.7437C21.5812 32.3344 20.8312 32.6906 20.0625 32.8031C18.9375 34.3969 18.15 36.2438 17.8125 38.25C18.2812 38.8781 18.5625 39.6562 18.5625 40.5C18.5625 41.3438 18.2812 42.1125 17.8125 42.75C18.15 44.7563 18.9375 46.6031 20.0625 48.1969C20.8406 48.3187 21.5906 48.6562 22.1812 49.2563C22.7812 49.8563 23.1281 50.6062 23.2406 51.375C24.8344 52.5 26.6813 53.2875 28.6875 53.625C29.3156 53.1562 30.0938 52.875 30.9375 52.875C31.7812 52.875 32.55 53.1562 33.1875 53.625C35.1938 53.2875 37.0406 52.5 38.6344 51.375C38.7562 50.5969 39.0938 49.8469 39.6938 49.2563C40.2938 48.6562 41.0437 48.3094 41.8125 48.1969C42.9375 46.6031 43.725 44.7563 44.0625 42.75C43.5938 42.1219 43.3125 41.3438 43.3125 40.5Z" fill="#E3FEE3"/>
<path d="M30.9375 48.9375C35.5974 48.9375 39.375 45.1599 39.375 40.5C39.375 35.8401 35.5974 32.0625 30.9375 32.0625C26.2776 32.0625 22.5 35.8401 22.5 40.5C22.5 45.1599 26.2776 48.9375 30.9375 48.9375Z" fill="white"/>
<path d="M6.5625 40.5C6.5625 27.0375 17.475 16.125 30.9375 16.125V19.875C19.5469 19.875 10.3125 29.1094 10.3125 40.5" fill="#068A44"/>
<path d="M8.4375 46.125L4.6875 40.5H12.1875L8.4375 46.125Z" fill="#068A44"/>
<path d="M43.1252 61.6032C31.4627 68.3345 16.5564 64.3407 9.8252 52.6782L13.0689 50.8032C18.7689 60.6657 31.3783 64.0501 41.2408 58.3501" fill="#068A44"/>
<path d="M47.0531 57.1688L44.0625 63.2344L40.3125 56.7375L47.0531 57.1688Z" fill="#068A44"/>
<path d="M43.1254 19.3875C54.7879 26.1187 58.7816 41.025 52.0504 52.6875L48.8066 50.8125C54.5066 40.9499 51.1223 28.3312 41.2598 22.6406" fill="#068A44"/>
<path d="M37.3125 18.1969L44.0625 17.7656L40.3125 24.2625L37.3125 18.1969Z" fill="#068A44"/>
<path d="M26.9092 40.84L30.0827 43.9L36.4292 37.78" stroke="#068A44" stroke-width="2" stroke-linecap="round" stroke-linejoin="round"/>
</svg>
