<svg width="70" height="68" viewBox="0 0 70 68" fill="none" xmlns="http://www.w3.org/2000/svg">
<g clip-path="url(#clip0_1556_7009)">
<path d="M41.668 45.8364V37.9922H37.918V45.8364C36.667 46.2787 35.6126 47.1491 34.9412 48.2936C34.2698 49.4381 34.0246 50.7831 34.249 52.0909C34.4734 53.3987 35.1529 54.5851 36.1674 55.4404C37.1819 56.2957 38.4661 56.7647 39.793 56.7647C41.1199 56.7647 42.4041 56.2957 43.4186 55.4404C44.4331 54.5851 45.1126 53.3987 45.337 52.0909C45.5614 50.7831 45.3162 49.4381 44.6448 48.2936C43.9734 47.1491 42.919 46.2787 41.668 45.8364Z" fill="#71FA71" fill-opacity="0.2"/>
<path d="M58.5429 22.9922C56.8847 22.9972 55.2751 23.5522 53.9661 24.5701C52.6571 25.588 51.7227 27.0114 51.3094 28.6172H28.2765C27.8201 26.8497 26.7348 25.3093 25.224 24.2848C23.7131 23.2603 21.8805 22.822 20.0696 23.052C18.2587 23.282 16.5939 24.1646 15.3871 25.5343C14.1804 26.904 13.5146 28.6668 13.5146 30.4922C13.5146 32.3177 14.1804 34.0804 15.3871 35.4501C16.5939 36.8198 18.2587 37.7024 20.0696 37.9324C21.8805 38.1624 23.7131 37.7241 25.224 36.6996C26.7348 35.6751 27.8201 34.1347 28.2765 32.3672H51.3094C51.6623 33.7223 52.3882 34.9512 53.4045 35.9144C54.4209 36.8777 55.687 37.5366 57.059 37.8164C58.4311 38.0962 59.8541 37.9857 61.1664 37.4974C62.4788 37.009 63.6279 36.1625 64.4833 35.0538C65.3388 33.9452 65.8661 32.6189 66.0056 31.2256C66.1451 29.8323 65.891 28.4278 65.2724 27.1716C64.6537 25.9154 63.6951 24.8579 62.5056 24.1191C61.3161 23.3803 59.9432 22.9899 58.5429 22.9922ZM21.0429 34.2422C20.3012 34.2422 19.5762 34.0223 18.9595 33.6102C18.3429 33.1982 17.8622 32.6125 17.5784 31.9273C17.2946 31.242 17.2203 30.488 17.365 29.7606C17.5097 29.0332 17.8668 28.365 18.3913 27.8406C18.9157 27.3161 19.5839 26.959 20.3113 26.8143C21.0388 26.6696 21.7928 26.7438 22.478 27.0277C23.1632 27.3115 23.7489 27.7921 24.1609 28.4088C24.573 29.0255 24.7929 29.7505 24.7929 30.4922C24.7917 31.4864 24.3962 32.4395 23.6932 33.1425C22.9902 33.8455 22.0371 34.241 21.0429 34.2422ZM58.5429 34.2422C57.8013 34.2422 57.0762 34.0223 56.4595 33.6102C55.8429 33.1982 55.3622 32.6125 55.0784 31.9273C54.7946 31.242 54.7203 30.488 54.865 29.7606C55.0097 29.0332 55.3668 28.365 55.8913 27.8406C56.4157 27.3161 57.0839 26.959 57.8113 26.8143C58.5388 26.6696 59.2928 26.7438 59.978 27.0277C60.6632 27.3115 61.2489 27.7921 61.6609 28.4088C62.073 29.0255 62.2929 29.7505 62.2929 30.4922C62.2917 31.4864 61.8962 32.4395 61.1932 33.1425C60.4902 33.8455 59.5371 34.241 58.5429 34.2422Z" fill="#71FA71" fill-opacity="0.2"/>
<path d="M45.4179 9.86726C45.4221 8.83507 45.1421 7.82165 44.6087 6.93795C44.0753 6.05426 43.309 5.33437 42.3938 4.85711C41.4786 4.37985 40.4496 4.16363 39.4197 4.23213C38.3898 4.30062 37.3986 4.65118 36.5546 5.24543C35.7106 5.83967 35.0464 6.65469 34.6347 7.60123C34.2231 8.54778 34.0798 9.58935 34.2205 10.6119C34.3613 11.6345 34.7807 12.5986 35.4329 13.3986C36.085 14.1987 36.9448 14.8039 37.9179 15.148V22.9923H41.6679V15.148C42.7623 14.7635 43.7105 14.0492 44.3821 13.1035C45.0536 12.1578 45.4155 11.0272 45.4179 9.86726Z" fill="#71FA71" fill-opacity="0.2"/>
</g>
<g clip-path="url(#clip1_1556_7009)">
<path d="M31.875 52.564V44.7197H28.125V52.564C26.874 53.0063 25.8196 53.8766 25.1482 55.0211C24.4768 56.1656 24.2316 57.5107 24.456 58.8185C24.6804 60.1263 25.3599 61.3127 26.3744 62.1679C27.3889 63.0232 28.6731 63.4923 30 63.4923C31.3269 63.4923 32.6111 63.0232 33.6256 62.1679C34.6401 61.3127 35.3196 60.1263 35.544 58.8185C35.7684 57.5107 35.5232 56.1656 34.8518 55.0211C34.1804 53.8766 33.126 53.0063 31.875 52.564Z" fill="#068A44"/>
<path d="M48.75 29.7197C47.0918 29.7248 45.4821 30.2797 44.1731 31.2976C42.8641 32.3155 41.9298 33.7389 41.5164 35.3447H18.4835C18.0272 33.5773 16.9418 32.0369 15.431 31.0124C13.9202 29.9878 12.0875 29.5495 10.2766 29.7795C8.46575 30.0095 6.8009 30.8921 5.59417 32.2618C4.38744 33.6315 3.72168 35.3943 3.72168 37.2197C3.72168 39.0452 4.38744 40.808 5.59417 42.1777C6.8009 43.5474 8.46575 44.43 10.2766 44.66C12.0875 44.89 13.9202 44.4516 15.431 43.4271C16.9418 42.4026 18.0272 40.8622 18.4835 39.0947H41.5164C41.8694 40.4498 42.5952 41.6787 43.6116 42.642C44.6279 43.6052 45.894 44.2642 47.266 44.544C48.6381 44.8238 50.0611 44.7132 51.3735 44.2249C52.6858 43.7366 53.835 42.89 54.6904 41.7814C55.5458 40.6728 56.0732 39.3465 56.2126 37.9531C56.3521 36.5598 56.0981 35.1553 55.4794 33.8991C54.8607 32.6429 53.9022 31.5854 52.7126 30.8466C51.5231 30.1079 50.1502 29.7174 48.75 29.7197ZM11.25 40.9697C10.5083 40.9697 9.78326 40.7498 9.16657 40.3378C8.54989 39.9257 8.06924 39.34 7.78541 38.6548C7.50158 37.9696 7.42732 37.2156 7.57202 36.4882C7.71671 35.7607 8.07386 35.0925 8.59831 34.5681C9.12276 34.0436 9.79094 33.6865 10.5184 33.5418C11.2458 33.3971 11.9998 33.4714 12.685 33.7552C13.3702 34.039 13.9559 34.5197 14.368 35.1364C14.78 35.753 15 36.4781 15 37.2197C14.9987 38.2139 14.6032 39.167 13.9002 39.87C13.1972 40.573 12.2441 40.9685 11.25 40.9697ZM48.75 40.9697C48.0083 40.9697 47.2833 40.7498 46.6666 40.3378C46.0499 39.9257 45.5692 39.34 45.2854 38.6548C45.0016 37.9696 44.9273 37.2156 45.072 36.4882C45.2167 35.7607 45.5739 35.0925 46.0983 34.5681C46.6228 34.0436 47.2909 33.6865 48.0184 33.5418C48.7458 33.3971 49.4998 33.4714 50.185 33.7552C50.8702 34.039 51.4559 34.5197 51.868 35.1364C52.28 35.753 52.5 36.4781 52.5 37.2197C52.4987 38.2139 52.1032 39.167 51.4002 39.87C50.6972 40.573 49.7441 40.9685 48.75 40.9697Z" fill="#068A44"/>
<path d="M35.625 16.5948C35.6291 15.5626 35.3491 14.5492 34.8157 13.6655C34.2823 12.7818 33.5161 12.0619 32.6008 11.5846C31.6856 11.1074 30.6567 10.8912 29.6268 10.9597C28.5968 11.0282 27.6056 11.3787 26.7616 11.973C25.9177 12.5672 25.2535 13.3822 24.8418 14.3288C24.4301 15.2753 24.2868 16.3169 24.4276 17.3394C24.5683 18.362 24.9878 19.3261 25.6399 20.1262C26.2921 20.9263 27.1518 21.5315 28.125 21.8756V29.7198H31.875V21.8756C32.9693 21.4911 33.9175 20.7768 34.5891 19.8311C35.2607 18.8854 35.6226 17.7547 35.625 16.5948Z" fill="#068A44"/>
</g>
<defs>
<clipPath id="clip0_1556_7009">
<rect width="60" height="60" fill="white" transform="translate(9.79297 0.492188)"/>
</clipPath>
<clipPath id="clip1_1556_7009">
<rect width="60" height="60" fill="white" transform="translate(0 7.21973)"/>
</clipPath>
</defs>
</svg>
