<svg width="54" height="54" viewBox="0 0 54 54" fill="none" xmlns="http://www.w3.org/2000/svg">
<g clip-path="url(#clip0_1167_6640)">
<path d="M27 29.25C28.2426 29.25 29.25 28.2426 29.25 27C29.25 25.7574 28.2426 24.75 27 24.75C25.7574 24.75 24.75 25.7574 24.75 27C24.75 28.2426 25.7574 29.25 27 29.25Z" fill="#71FA71"/>
<path d="M27 20.25C28.2426 20.25 29.25 19.2426 29.25 18C29.25 16.7574 28.2426 15.75 27 15.75C25.7574 15.75 24.75 16.7574 24.75 18C24.75 19.2426 25.7574 20.25 27 20.25Z" fill="#71FA71"/>
<path d="M27 11.25C28.2426 11.25 29.25 10.2426 29.25 9C29.25 7.75736 28.2426 6.75 27 6.75C25.7574 6.75 24.75 7.75736 24.75 9C24.75 10.2426 25.7574 11.25 27 11.25Z" fill="#71FA71"/>
<path d="M27 47.25C28.2426 47.25 29.25 46.2426 29.25 45C29.25 43.7574 28.2426 42.75 27 42.75C25.7574 42.75 24.75 43.7574 24.75 45C24.75 46.2426 25.7574 47.25 27 47.25Z" fill="#71FA71"/>
<path d="M27 38.25C28.2426 38.25 29.25 37.2426 29.25 36C29.25 34.7574 28.2426 33.75 27 33.75C25.7574 33.75 24.75 34.7574 24.75 36C24.75 37.2426 25.7574 38.25 27 38.25Z" fill="#71FA71"/>
<path d="M36 29.25C37.2426 29.25 38.25 28.2426 38.25 27C38.25 25.7574 37.2426 24.75 36 24.75C34.7574 24.75 33.75 25.7574 33.75 27C33.75 28.2426 34.7574 29.25 36 29.25Z" fill="#71FA71"/>
<path d="M45 29.25C46.2426 29.25 47.25 28.2426 47.25 27C47.25 25.7574 46.2426 24.75 45 24.75C43.7574 24.75 42.75 25.7574 42.75 27C42.75 28.2426 43.7574 29.25 45 29.25Z" fill="#71FA71"/>
<path d="M9 29.25C10.2426 29.25 11.25 28.2426 11.25 27C11.25 25.7574 10.2426 24.75 9 24.75C7.75736 24.75 6.75 25.7574 6.75 27C6.75 28.2426 7.75736 29.25 9 29.25Z" fill="#71FA71"/>
<path d="M18 29.25C19.2426 29.25 20.25 28.2426 20.25 27C20.25 25.7574 19.2426 24.75 18 24.75C16.7574 24.75 15.75 25.7574 15.75 27C15.75 28.2426 16.7574 29.25 18 29.25Z" fill="#71FA71"/>
<path d="M47.25 13.5006C46.4532 13.4935 45.6689 13.698 44.9771 14.0934C44.2853 14.4887 43.7109 15.0606 43.3125 15.7506H38.25V10.6881C39.1079 10.1928 39.7784 9.42829 40.1575 8.51309C40.5365 7.59789 40.6031 6.58318 40.3467 5.62633C40.0903 4.66948 39.5253 3.82397 38.7394 3.22093C37.9535 2.61788 36.9906 2.29102 36 2.29102C35.0094 2.29102 34.0465 2.61788 33.2606 3.22093C32.4747 3.82397 31.9097 4.66948 31.6533 5.62633C31.3969 6.58318 31.4635 7.59789 31.8425 8.51309C32.2216 9.42829 32.8921 10.1928 33.75 10.6881V20.2506H43.3125C43.7066 20.9332 44.2731 21.5003 44.9553 21.8951C45.6375 22.29 46.4114 22.4987 47.1995 22.5004C47.9877 22.5022 48.7626 22.2969 49.4465 21.9051C50.1304 21.5133 50.6994 20.9487 51.0965 20.2679C51.4937 19.587 51.705 18.8139 51.7094 18.0257C51.7139 17.2375 51.5112 16.462 51.1217 15.7768C50.7322 15.0915 50.1696 14.5206 49.4901 14.1212C48.8106 13.7217 48.0382 13.5077 47.25 13.5006ZM36 9.00063C35.555 9.00063 35.12 8.86867 34.75 8.62144C34.38 8.3742 34.0916 8.0228 33.9213 7.61167C33.751 7.20053 33.7064 6.74813 33.7932 6.31168C33.8801 5.87522 34.0943 5.47431 34.409 5.15964C34.7237 4.84497 35.1246 4.63068 35.561 4.54386C35.9975 4.45705 36.4499 4.5016 36.861 4.6719C37.2722 4.8422 37.6236 5.13059 37.8708 5.5006C38.118 5.87061 38.25 6.30562 38.25 6.75063C38.25 7.34737 38.0129 7.91966 37.591 8.34162C37.169 8.76358 36.5967 9.00063 36 9.00063ZM47.25 20.2506C46.805 20.2506 46.37 20.1187 46 19.8714C45.63 19.6242 45.3416 19.2728 45.1713 18.8617C45.001 18.4505 44.9564 17.9981 45.0432 17.5617C45.13 17.1252 45.3443 16.7243 45.659 16.4096C45.9737 16.095 46.3746 15.8807 46.811 15.7939C47.2475 15.707 47.6999 15.7516 48.111 15.9219C48.5222 16.0922 48.8736 16.3806 49.1208 16.7506C49.368 17.1206 49.5 17.5556 49.5 18.0006C49.5 18.5974 49.2629 19.1697 48.841 19.5916C48.419 20.0136 47.8467 20.2506 47.25 20.2506Z" fill="#71FA71"/>
<path d="M2.25058 18.0006C2.23441 19.0044 2.55437 19.9848 3.15958 20.7859C3.76479 21.5869 4.62047 22.1625 5.59052 22.4212C6.56056 22.6799 7.58926 22.6067 8.51295 22.2134C9.43664 21.8201 10.2023 21.1292 10.6881 20.2506H20.2506V10.6881C21.1085 10.1928 21.779 9.42829 22.158 8.51309C22.5371 7.59789 22.6036 6.58318 22.3472 5.62633C22.0909 4.66948 21.5259 3.82397 20.74 3.22093C19.9541 2.61788 18.9912 2.29102 18.0006 2.29102C17.01 2.29102 16.0471 2.61788 15.2612 3.22093C14.4753 3.82397 13.9103 4.66948 13.6539 5.62633C13.3975 6.58318 13.464 7.59789 13.8431 8.51309C14.2222 9.42829 14.8927 10.1928 15.7506 10.6881V15.7506H10.6881C10.2023 14.872 9.43664 14.1811 8.51295 13.7878C7.58926 13.3945 6.56056 13.3214 5.59052 13.5801C4.62047 13.8387 3.76479 14.4144 3.15958 15.2154C2.55437 16.0164 2.23441 16.9968 2.25058 18.0006ZM15.7506 6.75063C15.7506 6.30562 15.8825 5.87061 16.1298 5.5006C16.377 5.13059 16.7284 4.8422 17.1395 4.6719C17.5507 4.5016 18.0031 4.45705 18.4395 4.54386C18.876 4.63068 19.2769 4.84497 19.5916 5.15964C19.9062 5.47431 20.1205 5.87522 20.2074 6.31168C20.2942 6.74813 20.2496 7.20053 20.0793 7.61167C19.909 8.0228 19.6206 8.3742 19.2506 8.62144C18.8806 8.86867 18.4456 9.00063 18.0006 9.00063C17.4038 9.00063 16.8316 8.76358 16.4096 8.34162C15.9876 7.91966 15.7506 7.34737 15.7506 6.75063ZM4.50058 18.0006C4.50058 17.5556 4.63254 17.1206 4.87978 16.7506C5.12701 16.3806 5.47841 16.0922 5.88955 15.9219C6.30068 15.7516 6.75308 15.707 7.18954 15.7939C7.626 15.8807 8.02691 16.095 8.34158 16.4096C8.65624 16.7243 8.87053 17.1252 8.95735 17.5617C9.04417 17.9981 8.99961 18.4505 8.82931 18.8617C8.65902 19.2728 8.37063 19.6242 8.00062 19.8714C7.63061 20.1187 7.19559 20.2506 6.75058 20.2506C6.15385 20.2506 5.58155 20.0136 5.15959 19.5916C4.73764 19.1697 4.50058 18.5974 4.50058 18.0006Z" fill="#71FA71"/>
<path d="M47.25 31.5002C46.4532 31.493 45.6689 31.6976 44.9771 32.0929C44.2853 32.4882 43.7109 33.0601 43.3125 33.7502H33.75V43.3127C32.8921 43.808 32.2216 44.5725 31.8425 45.4877C31.4635 46.4029 31.3969 47.4176 31.6533 48.3745C31.9097 49.3313 32.4747 50.1768 33.2606 50.7799C34.0465 51.3829 35.0094 51.7098 36 51.7098C36.9906 51.7098 37.9535 51.3829 38.7394 50.7799C39.5253 50.1768 40.0903 49.3313 40.3467 48.3745C40.6031 47.4176 40.5365 46.4029 40.1575 45.4877C39.7784 44.5725 39.1079 43.808 38.25 43.3127V38.2502H43.3125C43.7066 38.9328 44.2731 39.4998 44.9553 39.8947C45.6375 40.2895 46.4114 40.4982 47.1995 40.5C47.9877 40.5017 48.7626 40.2964 49.4465 39.9046C50.1304 39.5128 50.6994 38.9482 51.0965 38.2674C51.4937 37.5866 51.705 36.8134 51.7094 36.0252C51.7139 35.237 51.5112 34.4615 51.1217 33.7763C50.7322 33.0911 50.1696 32.5202 49.4901 32.1207C48.8106 31.7213 48.0382 31.5073 47.25 31.5002ZM36 49.5002C35.555 49.5002 35.12 49.3682 34.75 49.121C34.38 48.8738 34.0916 48.5224 33.9213 48.1112C33.751 47.7001 33.7064 47.2477 33.7932 46.8112C33.8801 46.3748 34.0943 45.9739 34.409 45.6592C34.7237 45.3445 35.1246 45.1302 35.561 45.0434C35.9975 44.9566 36.4499 45.0012 36.861 45.1715C37.2722 45.3418 37.6236 45.6301 37.8708 46.0001C38.118 46.3702 38.25 46.8052 38.25 47.2502C38.25 47.8469 38.0129 48.4192 37.591 48.8412C37.169 49.2631 36.5967 49.5002 36 49.5002ZM47.25 38.2502C46.805 38.2502 46.37 38.1182 46 37.871C45.63 37.6238 45.3416 37.2724 45.1713 36.8612C45.001 36.4501 44.9564 35.9977 45.0432 35.5612C45.13 35.1248 45.3443 34.7239 45.659 34.4092C45.9737 34.0945 46.3746 33.8802 46.811 33.7934C47.2475 33.7066 47.6999 33.7512 48.111 33.9215C48.5222 34.0917 48.8736 34.3801 49.1208 34.7501C49.368 35.1202 49.5 35.5552 49.5 36.0002C49.5 36.5969 49.2629 37.1692 48.841 37.5912C48.419 38.0131 47.8467 38.2502 47.25 38.2502Z" fill="#71FA71"/>
<path d="M20.2506 43.3125V33.75H10.6881C10.1928 32.8921 9.42829 32.2216 8.51309 31.8425C7.59789 31.4635 6.58318 31.3969 5.62633 31.6533C4.66948 31.9097 3.82397 32.4747 3.22093 33.2606C2.61788 34.0465 2.29102 35.0094 2.29102 36C2.29102 36.9906 2.61788 37.9535 3.22093 38.7394C3.82397 39.5253 4.66948 40.0903 5.62633 40.3467C6.58318 40.6031 7.59789 40.5365 8.51309 40.1575C9.42829 39.7784 10.1928 39.1079 10.6881 38.25H15.7506V43.3125C14.8927 43.8078 14.2223 44.5723 13.8432 45.4875C13.4641 46.4027 13.3976 47.4175 13.654 48.3743C13.9104 49.3312 14.4753 50.1767 15.2612 50.7797C16.0471 51.3828 17.01 51.7096 18.0006 51.7096C18.9912 51.7096 19.9542 51.3828 20.7401 50.7797C21.526 50.1767 22.0909 49.3312 22.3473 48.3743C22.6037 47.4175 22.5372 46.4027 22.1581 45.4875C21.779 44.5723 21.1085 43.8078 20.2506 43.3125ZM6.75063 38.25C6.30562 38.25 5.87061 38.118 5.5006 37.8708C5.13059 37.6236 4.8422 37.2722 4.6719 36.861C4.5016 36.4499 4.45705 35.9975 4.54386 35.561C4.63068 35.1246 4.84497 34.7237 5.15964 34.409C5.47431 34.0943 5.87522 33.8801 6.31168 33.7932C6.74813 33.7064 7.20053 33.751 7.61167 33.9213C8.0228 34.0916 8.3742 34.38 8.62144 34.75C8.86867 35.12 9.00063 35.555 9.00063 36C9.00063 36.5967 8.76358 37.169 8.34162 37.591C7.91966 38.013 7.34737 38.25 6.75063 38.25ZM18.0006 49.5C17.5556 49.5 17.1206 49.368 16.7506 49.1208C16.3806 48.8736 16.0922 48.5222 15.9219 48.111C15.7516 47.6999 15.707 47.2475 15.7939 46.811C15.8807 46.3746 16.095 45.9737 16.4096 45.659C16.7243 45.3443 17.1252 45.1301 17.5617 45.0432C17.9981 44.9564 18.4505 45.001 18.8617 45.1713C19.2728 45.3416 19.6242 45.63 19.8714 46C20.1187 46.37 20.2506 46.805 20.2506 47.25C20.2506 47.8467 20.0136 48.419 19.5916 48.841C19.1697 49.263 18.5974 49.5 18.0006 49.5Z" fill="#71FA71"/>
</g>
<defs>
<clipPath id="clip0_1167_6640">
<rect width="54" height="54" fill="white"/>
</clipPath>
</defs>
</svg>
