<svg width="64" height="68" viewBox="0 0 64 68" fill="none" xmlns="http://www.w3.org/2000/svg">
<path d="M24.3994 10.7667V16.4333H28.2068C28.4188 17.1672 28.7061 17.8681 29.0687 18.5243L26.3799 21.2132L30.3868 25.2201L33.0756 22.5312C33.7313 22.8933 34.4328 23.1812 35.1666 23.3931V27.2H40.8333V23.3926C41.5671 23.1806 42.2681 22.8933 42.9243 22.5307L45.6131 25.2195L49.62 21.2126L46.9312 18.5238C47.2933 17.8681 47.5806 17.1666 47.7931 16.4328H51.5994V10.7667H47.792C47.58 10.0328 47.2927 9.3313 46.9301 8.67567L49.6189 5.98683L45.612 1.97993L42.9232 4.66877C42.2675 4.30667 41.5666 4.01937 40.8327 3.80743V0H35.1661V3.80743C34.4322 4.01937 33.7313 4.30667 33.0751 4.66933L30.3862 1.9805L26.3793 5.9874L29.0682 8.67623C28.7061 9.33187 28.4188 10.0334 28.2063 10.7672L24.3994 10.7667Z" fill="#71FA71" fill-opacity="0.2"/>
<path d="M26 40.8008H22V52.8008H26V40.8008Z" fill="#71FA71" fill-opacity="0.2"/>
<path d="M36.3996 43.2012H31.5996V52.8012H36.3996V43.2012Z" fill="#71FA71" fill-opacity="0.2"/>
<path d="M56.3996 48H51.5996V52.8H56.3996V48Z" fill="#71FA71" fill-opacity="0.2"/>
<path d="M46.8 45.5996H42V52.7996H46.8V45.5996Z" fill="#71FA71" fill-opacity="0.2"/>
<path d="M60.5814 39.5321L59.775 40.3786L61.6135 42.3085C55.9594 42.1163 47.8766 41.4309 39.2042 39.3711C34.6067 38.2792 30.0247 36.8761 25.5847 35.2012L25.1992 36.3284C29.6826 38.0194 34.3102 39.4357 38.9521 40.539C47.6736 42.6102 55.8003 43.3052 61.5041 43.5027L59.2424 45.4811L59.9729 46.4012L63.3945 43.4081C63.5176 43.2998 63.5918 43.1435 63.5986 42.9747C63.606 42.8071 63.5456 42.6431 63.4321 42.5246L60.5814 39.5321Z" fill="#71FA71" fill-opacity="0.2"/>
<path d="M17.1996 27.2012C14.1067 27.2012 11.5996 29.8874 11.5996 33.2012C11.5996 36.515 14.1067 39.2012 17.1996 39.2012C20.2925 39.2012 22.7996 36.515 22.7996 33.2012C22.7996 29.8874 20.2925 27.2012 17.1996 27.2012ZM17.7596 36.7706V38.0012H16.6396V36.8012H15.5196V35.6012H17.4796C17.9427 35.6012 18.3196 35.1974 18.3196 34.7012C18.3196 34.205 17.9427 33.8012 17.4796 33.8012H16.9196C15.8388 33.8012 14.9596 32.8592 14.9596 31.7012C14.9596 30.6464 15.6921 29.7788 16.6396 29.6318V28.4012H17.7596V29.6012H18.8796V30.8012H16.9196C16.4565 30.8012 16.0796 31.205 16.0796 31.7012C16.0796 32.1974 16.4565 32.6012 16.9196 32.6012H17.4796C18.5604 32.6012 19.4396 33.5432 19.4396 34.7012C19.4396 35.756 18.7071 36.6236 17.7596 36.7706Z" fill="#71FA71" fill-opacity="0.2"/>
<circle cx="37.9996" cy="13.6012" r="6.4" fill="white"/>
<path d="M12.7998 20.3663V26.0329H16.6072C16.8192 26.7668 17.1065 27.4677 17.4691 28.1239L14.7803 30.8128L18.7872 34.8197L21.476 32.1308C22.1317 32.4929 22.8332 32.7808 23.567 32.9927V36.7996H29.2337V32.9922C29.9675 32.7802 30.6685 32.4929 31.3247 32.1303L34.0135 34.8191L38.0204 30.8122L35.3316 28.1234C35.6937 27.4677 35.981 26.7662 36.1935 26.0324H39.9998V20.3663H36.1924C35.9804 19.6324 35.6931 18.9309 35.3305 18.2753L38.0193 15.5864L34.0124 11.5795L31.3236 14.2684C30.6679 13.9063 29.967 13.619 29.2331 13.407V9.59961H23.5665V13.407C22.8326 13.619 22.1317 13.9063 21.4755 14.2689L18.7866 11.5801L14.7797 15.587L17.4686 18.2758C17.1065 18.9315 16.8192 19.633 16.6067 20.3668L12.7998 20.3663Z" fill="#00A14B"/>
<path d="M14.4004 50.4004H10.4004V62.4004H14.4004V50.4004Z" fill="#00A14B"/>
<path d="M24.8 52.8008H20V62.4008H24.8V52.8008Z" fill="#00A14B"/>
<path d="M44.8 57.5996H40V62.3996H44.8V57.5996Z" fill="#00A14B"/>
<path d="M35.2004 55.1992H30.4004V62.3992H35.2004V55.1992Z" fill="#00A14B"/>
<path d="M48.9818 49.1317L48.1754 49.9782L50.0139 51.9081C44.3598 51.7159 36.277 51.0305 27.6045 48.9707C23.0071 47.8788 18.4251 46.4757 13.9851 44.8008L13.5996 45.928C18.083 47.619 22.7106 49.0354 27.3525 50.1386C36.074 52.2098 44.2007 52.9048 49.9044 53.1023L47.6428 55.0807L48.3733 56.0008L51.7948 53.0077C51.918 52.8994 51.9922 52.7431 51.999 52.5743C52.0064 52.4067 51.946 52.2427 51.8325 52.1242L48.9818 49.1317Z" fill="#00A14B"/>
<path d="M5.6 36.8008C2.50712 36.8008 0 39.487 0 42.8008C0 46.1146 2.50712 48.8008 5.6 48.8008C8.69288 48.8008 11.2 46.1146 11.2 42.8008C11.2 39.487 8.69288 36.8008 5.6 36.8008ZM6.16 46.3702V47.6008H5.04V46.4008H3.92V45.2008H5.88C6.34312 45.2008 6.72 44.797 6.72 44.3008C6.72 43.8046 6.34312 43.4008 5.88 43.4008H5.32C4.2392 43.4008 3.36 42.4588 3.36 41.3008C3.36 40.246 4.09248 39.3784 5.04 39.2314V38.0008H6.16V39.2008H7.28V40.4008H5.32C4.85688 40.4008 4.48 40.8046 4.48 41.3008C4.48 41.797 4.85688 42.2008 5.32 42.2008H5.88C6.9608 42.2008 7.84 43.1428 7.84 44.3008C7.84 45.3556 7.10752 46.2232 6.16 46.3702Z" fill="#00A14B"/>
<circle cx="26.4" cy="23.2008" r="6.4" fill="white"/>
</svg>
