<svg width="58" height="59" viewBox="0 0 58 59" fill="none" xmlns="http://www.w3.org/2000/svg">
<circle cx="31" cy="19" r="19" fill="#71FA71" fill-opacity="0.2"/>
<g clip-path="url(#clip0_1203_6323)">
<path d="M40.7755 26.7742C40.6 25.8045 40.3419 24.8445 40.0058 23.9065L41.9335 22.7935L38.7077 17.2065L36.7768 18.3213C36.1361 17.5671 35.4335 16.8645 34.6794 16.2239L35.7942 14.2929L30.2071 11.0671L29.0942 12.9948C28.1555 12.6581 27.1955 12.4006 26.2258 12.2245V10H19.7742V12.2245C18.8045 12.4 17.8445 12.6581 16.9065 12.9942L15.7935 11.0665L10.2065 14.2923L11.3213 16.2232C10.5671 16.8639 9.86452 17.5665 9.22387 18.3206L7.29226 17.2065L4.06645 22.7935L5.99419 23.9065C5.65806 24.8445 5.40065 25.8045 5.22452 26.7742H3V33.2258H5.22452C5.4 34.1955 5.65806 35.1555 5.99419 36.0935L4.06645 37.2064L7.29226 42.7935L9.22323 41.6787C9.86387 42.4329 10.5665 43.1355 11.3206 43.7761L10.2058 45.7071L15.7929 48.9329L16.9058 47.0052C17.8439 47.3413 18.8039 47.5994 19.7735 47.7748V50H26.2252V47.7755C27.1948 47.6 28.1548 47.3419 29.0929 47.0058L30.2058 48.9335L35.7929 45.7077L34.6781 43.7768C35.4323 43.1361 36.1348 42.4335 36.7755 41.6794L38.7065 42.7942L41.9323 37.2071L40.0045 36.0942C40.3406 35.1561 40.5987 34.1961 40.7742 33.2264H43V33.2258V26.7742H40.7755ZM41.7097 31.9355H39.6716L39.5897 32.4865C39.4058 33.7271 39.0755 34.9568 38.6084 36.1426L38.4052 36.66L40.1703 37.6787L38.2348 41.0303L36.4671 40.0103L36.1206 40.4445C35.3329 41.4323 34.4329 42.3329 33.4452 43.12L33.011 43.4664L34.031 45.2342L30.6794 47.1697L29.66 45.4045L29.1426 45.6077C27.9568 46.0748 26.7271 46.4045 25.4865 46.589L24.9355 46.6716V48.7097H21.0645V46.6716L20.5135 46.5897C19.2729 46.4058 18.0432 46.0755 16.8574 45.6084L16.34 45.4052L15.3206 47.1703L11.969 45.2348L12.989 43.4671L12.5548 43.1206C11.5671 42.3329 10.6665 41.4329 9.87935 40.4452L9.5329 40.011L7.76516 41.031L5.82968 37.6794L7.59484 36.66L7.39161 36.1426C6.92452 34.9568 6.59484 33.7271 6.41032 32.4865L6.32839 31.9355H4.29032V28.0645H6.32839L6.41032 27.5135C6.59419 26.2729 6.92452 25.0432 7.39161 23.8574L7.59484 23.34L5.82968 22.3206L7.76516 18.969L9.5329 19.989L9.87935 19.5548C10.6671 18.5671 11.5671 17.6665 12.5548 16.8794L12.989 16.5329L11.969 14.7652L15.3206 12.8297L16.34 14.5948L16.8574 14.3916C18.0432 13.9245 19.2729 13.5948 20.5135 13.4103L21.0645 13.3284V11.2903H24.9355V13.3284L25.4865 13.4103C26.7271 13.5942 27.9568 13.9245 29.1426 14.3916L29.66 14.5948L30.6794 12.8297L34.031 14.7652L33.011 16.5329L33.4452 16.8794C34.4329 17.6671 35.3335 18.5671 36.1206 19.5548L36.4671 19.989L38.2348 18.969L40.1703 22.3206L38.4052 23.34L38.6084 23.8574C39.0755 25.0432 39.4052 26.2729 39.5897 27.5135L39.6716 28.0645H41.7097V31.9355Z" fill="#068A44"/>
<path d="M23.6452 39.6777H22.3548V40.9681H23.6452V39.6777Z" fill="#068A44"/>
<path d="M23.6452 44.8379H22.3548V46.1282H23.6452V44.8379Z" fill="#068A44"/>
<path d="M10.7419 23.7746V37.5159L22.3548 42.6778V43.5481H23.6452V42.6771L35.2581 37.5152V23.7746L23 18.3262L10.7419 23.7746ZM26.871 29.9997C26.871 31.261 26.2503 32.4481 25.2116 33.1746L24.9355 33.3668V34.5158H23.6452V31.8165C24.3942 31.5494 24.9355 30.8397 24.9355 29.9997C24.9355 28.9326 24.0671 28.0642 23 28.0642C21.9329 28.0642 21.0645 28.9326 21.0645 29.9997C21.0645 30.8397 21.6058 31.5494 22.3548 31.8165V34.5158H21.0645V33.3668L20.7884 33.1746C19.7497 32.4481 19.129 31.261 19.129 29.9997C19.129 27.8649 20.8652 26.1288 23 26.1288C25.1348 26.1288 26.871 27.8649 26.871 29.9997ZM24.9355 35.8062V37.0965H21.0645V35.8062H24.9355ZM22.3548 29.9997C22.3548 29.6436 22.6439 29.3546 23 29.3546C23.3561 29.3546 23.6452 29.6436 23.6452 29.9997C23.6452 30.3558 23.3561 30.6449 23 30.6449C22.6439 30.6449 22.3548 30.3558 22.3548 29.9997ZM22.3548 20.0249V24.8829C20.9658 25.0571 19.749 25.7849 18.9284 26.8384L12.9755 24.1933L22.3548 20.0249ZM33.9678 36.6778L23 41.5513L12.0323 36.6771V25.1862L18.2626 27.9552C17.991 28.5829 17.8387 29.2739 17.8387 29.9997C17.8387 31.5681 18.5561 33.0481 19.7742 34.0255V34.5158H18.4839V35.8062H19.7742V38.3868H26.2258V35.8062H27.5161V34.5158H26.2258V34.0255C27.4439 33.0475 28.1613 31.5675 28.1613 29.9997C28.1613 29.2739 28.009 28.5829 27.7374 27.9552L33.9678 25.1862V36.6778ZM23.6452 20.0249L33.0245 24.1933L27.0716 26.8391C26.251 25.7849 25.0342 25.0578 23.6452 24.8829V20.0249Z" fill="#068A44"/>
</g>
<defs>
<clipPath id="clip0_1203_6323">
<rect width="40" height="40" fill="white" transform="translate(3 10)"/>
</clipPath>
</defs>
</svg>
