<svg width="361" height="388" viewBox="0 0 361 388" fill="none" xmlns="http://www.w3.org/2000/svg">
<g clip-path="url(#clip0_1136_6223)">
<path d="M293.729 51.3625C286.281 57.5891 278.833 54.8678 277.135 45.3112C276.144 39.7778 270.878 36.071 265.345 37.0618L254.82 38.9395C249.953 39.7232 246.719 44.3843 247.502 49.252L247.703 50.4122C249.401 59.9687 243.311 65.0602 234.165 61.7303L233.059 61.3269C228.49 59.6242 223.329 61.981 221.695 66.6327L217.982 76.6579C216.026 81.9282 218.776 87.8091 224.046 89.7648C233.157 93.0535 234.516 100.866 227.068 107.093C222.788 110.671 222.174 117.127 225.786 121.448L231.84 128.69C235.418 132.969 241.874 133.584 246.195 129.972C253.643 123.745 261.091 126.466 262.748 136.057C263.739 141.591 269.005 145.298 274.538 144.307L285.063 142.429C289.93 141.645 293.164 136.984 292.381 132.117L292.18 130.956C290.482 121.4 296.572 116.308 305.718 119.638L306.824 120.042C311.476 121.676 316.636 119.319 318.27 114.667L321.983 104.642C323.939 99.3716 321.189 93.4907 315.953 91.5762C306.808 88.2464 305.45 80.4336 312.898 74.2069C317.177 70.6291 317.792 64.1729 314.18 59.8523L308.125 52.6101C304.506 48.365 298.05 47.7503 293.729 51.3625ZM281.143 104.041C273.777 110.198 262.746 109.213 256.589 101.848C250.431 94.4819 251.416 83.4516 258.782 77.2937C266.147 71.1358 277.178 72.1209 283.335 79.4866C289.493 86.8523 288.508 97.8827 281.143 104.041Z" fill="#71FA71" fill-opacity="0.2"/>
</g>
<g clip-path="url(#clip1_1136_6223)">
<path d="M325.859 232.484C317.556 232.484 310.484 237.302 305 246.783C299.465 237.302 292.444 232.484 284.141 232.484C281.557 232.423 278.985 232.871 276.574 233.804C274.163 234.737 271.959 236.136 270.089 237.92C268.218 239.705 266.718 241.841 265.673 244.206C264.628 246.571 264.06 249.118 264 251.703C264.06 254.287 264.628 256.835 265.673 259.2C266.718 261.565 268.218 263.7 270.089 265.485C271.959 267.27 274.163 268.669 276.574 269.601C278.985 270.534 281.557 270.983 284.141 270.922C292.444 270.922 299.516 266.104 305 256.623C310.535 266.104 317.556 270.922 325.859 270.922C328.443 270.983 331.015 270.534 333.426 269.601C335.837 268.669 338.041 267.27 339.911 265.485C341.782 263.7 343.282 261.565 344.327 259.2C345.372 256.835 345.94 254.287 346 251.703C345.94 249.118 345.372 246.571 344.327 244.206C343.282 241.841 341.782 239.705 339.911 237.92C338.041 236.136 335.837 234.737 333.426 233.804C331.015 232.871 328.443 232.423 325.859 232.484ZM284.141 264.515C280.624 264.626 277.206 263.341 274.632 260.941C272.059 258.54 270.54 255.219 270.406 251.703C270.54 248.186 272.059 244.865 274.632 242.465C277.206 240.065 280.624 238.779 284.141 238.89C290.548 238.89 295.878 243.093 300.439 251.703C295.878 260.313 290.548 264.515 284.141 264.515ZM325.859 264.515C319.452 264.515 314.123 260.313 309.561 251.703C314.123 243.093 319.452 238.89 325.859 238.89C329.376 238.779 332.794 240.065 335.368 242.465C337.941 244.865 339.46 248.186 339.594 251.703C339.46 255.219 337.941 258.54 335.368 260.941C332.794 263.341 329.376 264.626 325.859 264.515Z" fill="#71FA71"/>
</g>
<path d="M272.785 180.304C272.786 172.831 271.299 165.433 268.41 158.541C265.521 151.649 261.29 145.402 255.961 140.163C250.632 134.924 244.313 130.799 237.373 128.028C230.434 125.257 223.011 123.896 215.54 124.024C201.197 124.45 187.54 130.263 177.289 140.305C167.038 150.347 160.946 163.882 160.225 178.213C159.882 187.777 161.983 197.27 166.33 205.795C170.677 214.32 177.126 221.596 185.068 226.936C187.306 228.391 189.147 230.38 190.424 232.724C191.702 235.068 192.375 237.693 192.385 240.363V252.664H240.625V240.363C240.625 237.7 241.286 235.08 242.549 232.737C243.813 230.393 245.638 228.4 247.861 226.936C255.516 221.799 261.794 214.86 266.14 206.729C270.486 198.598 272.768 189.523 272.785 180.304Z" fill="white" stroke="#068A44" stroke-width="7" stroke-linecap="round" stroke-linejoin="round"/>
<path d="M240.62 276.865C233.661 282.084 225.198 284.905 216.5 284.905C207.801 284.905 199.338 282.084 192.38 276.865" stroke="#068A44" stroke-width="5" stroke-linecap="round" stroke-linejoin="round"/>
<path d="M216.421 153.049L203.074 175.4C202.47 176.38 202.139 177.504 202.117 178.655C202.096 179.806 202.383 180.942 202.949 181.944C203.516 182.946 204.341 183.777 205.339 184.352C206.337 184.926 207.47 185.222 208.622 185.209H224.702C225.84 185.204 226.96 185.503 227.947 186.073C228.932 186.643 229.749 187.465 230.314 188.454C230.878 189.444 231.169 190.566 231.158 191.704C231.147 192.844 230.833 193.959 230.249 194.937L216.742 217.369" stroke="#068A44" stroke-width="3.6" stroke-linecap="round" stroke-linejoin="round"/>
<g clip-path="url(#clip2_1136_6223)">
<path d="M152.003 234.298C143.216 241.644 134.429 238.433 132.426 227.159C131.257 220.631 125.045 216.258 118.516 217.427L106.1 219.642C100.357 220.566 96.542 226.065 97.4666 231.808L97.7037 233.177C99.7065 244.451 92.5217 250.458 81.7321 246.53L80.4269 246.054C75.0361 244.045 68.948 246.825 67.0204 252.313L62.6399 264.141C60.3327 270.358 63.5763 277.296 69.7939 279.604C80.543 283.483 82.1455 292.701 73.3587 300.047C68.3099 304.268 67.5847 311.884 71.8462 316.982L78.9893 325.526C83.2102 330.575 90.827 331.3 95.9243 327.038C104.711 319.692 113.499 322.903 115.453 334.218C116.622 340.746 122.835 345.119 129.363 343.95L141.779 341.735C147.522 340.81 151.337 335.311 150.413 329.569L150.175 328.2C148.173 316.926 155.357 310.919 166.147 314.847L167.452 315.323C172.94 317.251 179.028 314.47 180.956 308.982L185.336 297.155C187.644 290.937 184.4 283.999 178.223 281.741C167.433 277.812 165.831 268.595 174.617 261.249C179.666 257.028 180.391 249.411 176.13 244.314L168.987 235.77C164.717 230.762 157.101 230.036 152.003 234.298ZM137.154 296.446C128.464 303.71 115.451 302.548 108.186 293.858C100.922 285.169 102.084 272.156 110.773 264.891C119.463 257.626 132.476 258.788 139.741 267.478C147.006 276.168 145.844 289.181 137.154 296.446Z" fill="#71FA71" fill-opacity="0.2"/>
</g>
<rect x="1" y="117.703" width="142" height="90" rx="9" stroke="#068A44" stroke-width="2"/>
<rect x="59" y="164.703" width="15" height="39" fill="#71FA71"/>
<rect x="83" y="147.703" width="15" height="56" fill="#46CA46"/>
<rect x="107" y="133.703" width="15" height="70" fill="#068A44"/>
<circle cx="155" cy="66.7031" r="38" fill="#71FA71" fill-opacity="0.2"/>
<path d="M203 55.7031C203 34.7163 185.987 17.7031 165 17.7031V55.7031H203Z" fill="#71FA71"/>
<defs>
<clipPath id="clip0_1136_6223">
<rect width="128.724" height="128.724" fill="white" transform="translate(179.297 82.5645) rotate(-39.8964)"/>
</clipPath>
<clipPath id="clip1_1136_6223">
<rect width="82" height="82" fill="white" transform="translate(264 210.703)"/>
</clipPath>
<clipPath id="clip2_1136_6223">
<rect width="151.864" height="151.864" fill="white" transform="translate(17 271.109) rotate(-39.8964)"/>
</clipPath>
</defs>
</svg>
