<svg width="59" height="58" viewBox="0 0 59 58" fill="none" xmlns="http://www.w3.org/2000/svg">
<g clip-path="url(#clip0_1512_7246)">
<path d="M54.7188 5.78906H16.2812C15.9414 5.78906 15.6156 5.92405 15.3753 6.16433C15.135 6.40461 15 6.7305 15 7.07031V15.6163C15 15.9561 15.135 16.2819 15.3753 16.5222C15.6156 16.7625 15.9414 16.8975 16.2812 16.8975H54.7188C55.0586 16.8975 55.3844 16.7625 55.6247 16.5222C55.865 16.2819 56 15.9561 56 15.6163V7.07031C56 6.7305 55.865 6.40461 55.6247 6.16433C55.3844 5.92405 55.0586 5.78906 54.7188 5.78906ZM51.7334 10.4913H53.4375V12.1953H51.7334V10.4913ZM17.5625 8.35156H49.5041C49.2905 8.58654 49.1718 8.89246 49.1709 9.21V13.4766C49.1718 13.7941 49.2905 14.1 49.5041 14.335H17.5625V8.35156Z" fill="#71FA71" fill-opacity="0.2"/>
<path d="M54.7188 20.7422H16.2812C15.9414 20.7422 15.6156 20.8772 15.3753 21.1175C15.135 21.3577 15 21.6836 15 22.0234V30.5566C15 30.8964 15.135 31.2223 15.3753 31.4625C15.6156 31.7028 15.9414 31.8378 16.2812 31.8378H54.7188C55.0586 31.8378 55.3844 31.7028 55.6247 31.4625C55.865 31.2223 56 30.8964 56 30.5566V22.0234C56 21.6836 55.865 21.3577 55.6247 21.1175C55.3844 20.8772 55.0586 20.7422 54.7188 20.7422ZM38.9209 25.4316H53.4375V27.1484H38.9209V25.4316ZM17.5625 23.3047H36.6916C36.4809 23.5364 36.3624 23.8372 36.3584 24.1503V28.4297C36.3624 28.7428 36.4809 29.0436 36.6916 29.2753H17.5625V23.3047Z" fill="#71FA71" fill-opacity="0.2"/>
<path d="M54.7188 35.6797H16.2812C15.9414 35.6797 15.6156 35.8147 15.3753 36.055C15.135 36.2952 15 36.6211 15 36.9609V45.5069C15 45.8467 15.135 46.1726 15.3753 46.4129C15.6156 46.6531 15.9414 46.7881 16.2812 46.7881H54.7188C55.0586 46.7881 55.3844 46.6531 55.6247 46.4129C55.865 46.1726 56 45.8467 56 45.5069V36.9609C56 36.6211 55.865 36.2952 55.6247 36.055C55.3844 35.8147 55.0586 35.6797 54.7188 35.6797ZM51.7334 40.3819H53.4375V42.0859H51.7334V40.3819ZM17.5625 38.2422H49.5041C49.2905 38.4772 49.1718 38.7831 49.1709 39.1006V43.3672C49.1718 43.6847 49.2905 43.9906 49.5041 44.2256H17.5625V38.2422Z" fill="#71FA71" fill-opacity="0.2"/>
</g>
<g clip-path="url(#clip1_1512_7246)">
<path d="M39.7188 16.7891H1.28125C0.941441 16.7891 0.61555 16.9241 0.375269 17.1643C0.134988 17.4046 0 17.7305 0 18.0703L0 26.6163C0 26.9561 0.134988 27.2819 0.375269 27.5222C0.61555 27.7625 0.941441 27.8975 1.28125 27.8975H39.7188C40.0586 27.8975 40.3844 27.7625 40.6247 27.5222C40.865 27.2819 41 26.9561 41 26.6163V18.0703C41 17.7305 40.865 17.4046 40.6247 17.1643C40.3844 16.9241 40.0586 16.7891 39.7188 16.7891ZM36.7334 21.4912H38.4375V23.1953H36.7334V21.4912ZM2.5625 19.3516H34.5041C34.2905 19.5865 34.1718 19.8925 34.1709 20.21V24.4766C34.1718 24.7941 34.2905 25.1 34.5041 25.335H2.5625V19.3516Z" fill="#068A44"/>
<path d="M39.7188 31.7422H1.28125C0.941441 31.7422 0.61555 31.8772 0.375269 32.1175C0.134988 32.3577 0 32.6836 0 33.0234L0 41.5566C0 41.8964 0.134988 42.2223 0.375269 42.4625C0.61555 42.7028 0.941441 42.8378 1.28125 42.8378H39.7188C40.0586 42.8378 40.3844 42.7028 40.6247 42.4625C40.865 42.2223 41 41.8964 41 41.5566V33.0234C41 32.6836 40.865 32.3577 40.6247 32.1175C40.3844 31.8772 40.0586 31.7422 39.7188 31.7422ZM23.9209 36.4316H38.4375V38.1484H23.9209V36.4316ZM2.5625 34.3047H21.6916C21.4809 34.5364 21.3624 34.8372 21.3584 35.1503V39.4297C21.3624 39.7428 21.4809 40.0436 21.6916 40.2753H2.5625V34.3047Z" fill="#068A44"/>
<path d="M39.7188 46.6797H1.28125C0.941441 46.6797 0.61555 46.8147 0.375269 47.055C0.134988 47.2952 0 47.6211 0 47.9609L0 56.5069C0 56.8467 0.134988 57.1726 0.375269 57.4129C0.61555 57.6531 0.941441 57.7881 1.28125 57.7881H39.7188C40.0586 57.7881 40.3844 57.6531 40.6247 57.4129C40.865 57.1726 41 56.8467 41 56.5069V47.9609C41 47.6211 40.865 47.2952 40.6247 47.055C40.3844 46.8147 40.0586 46.6797 39.7188 46.6797ZM36.7334 51.3819H38.4375V53.0859H36.7334V51.3819ZM2.5625 49.2422H34.5041C34.2905 49.4772 34.1718 49.7831 34.1709 50.1006V54.3672C34.1718 54.6847 34.2905 54.9906 34.5041 55.2256H2.5625V49.2422Z" fill="#068A44"/>
</g>
<defs>
<clipPath id="clip0_1512_7246">
<rect width="41" height="41" fill="white" transform="translate(15 5.78906)"/>
</clipPath>
<clipPath id="clip1_1512_7246">
<rect width="41" height="41" fill="white" transform="translate(0 16.7891)"/>
</clipPath>
</defs>
</svg>
