<svg width="396" height="349" viewBox="0 0 396 349" fill="none" xmlns="http://www.w3.org/2000/svg">
<g clip-path="url(#clip0_1136_6101)">
<path fill-rule="evenodd" clip-rule="evenodd" d="M152.056 282.578C152.812 285.399 151.264 288.081 148.443 288.837L141.606 321.843L119.181 296.677C116.36 297.433 113.678 295.885 112.923 293.064L109.356 260.011C108.601 257.191 110.149 254.509 112.97 253.753L132.36 248.557C135.181 247.802 137.863 249.35 138.619 252.171L152.056 282.578Z" stroke="#71FA71" stroke-width="3"/>
<path d="M132.691 289.279L140.945 319.375" stroke="#71FA71" stroke-width="3"/>
<path d="M136.896 286.639C138.963 283.06 137.737 278.482 134.157 276.415C130.577 274.348 126 275.575 123.933 279.155C121.866 282.735 123.092 287.312 126.672 289.379C130.252 291.446 134.83 290.219 136.896 286.639Z" stroke="#71FA71" stroke-width="3"/>
<path fill-rule="evenodd" clip-rule="evenodd" d="M135.183 240.055C137.734 249.574 130.597 249.03 122.488 251.203C114.38 253.375 108.6 257.191 105.921 247.896C103.37 238.377 69.4563 111.808 84.1347 108.064C98.9421 104.097 132.856 230.665 135.183 240.055Z" stroke="#71FA71" stroke-width="3"/>
<path d="M105.253 239.762L131.824 232.453" stroke="#71FA71" stroke-width="3"/>
</g>
<g clip-path="url(#clip1_1136_6101)">
<path d="M309.762 147.791L351.297 189.326C356.27 194.299 357.802 201.758 355.19 208.289L334.397 260.271C332.027 266.196 326.633 270.377 320.291 271.181L275.638 276.753C274.489 276.892 273.282 277.058 272.026 277.248L268.128 277.884C267.458 278 266.778 278.122 266.091 278.248L259.737 279.487L255.379 280.409L248.831 281.879L240.431 283.883L226.788 287.364L221.109 288.894C218.334 289.661 214.945 289.094 212.469 286.619C210.269 284.418 209.577 281.496 209.989 278.925L210.286 277.643L212.884 267.867L215.205 258.657L217.209 250.257L218.679 243.708L219.601 239.351L220.841 232.996L221.538 228.979L222.107 225.215L227.907 178.797C228.711 172.455 232.893 167.061 238.817 164.691L290.799 143.898C297.329 141.286 304.789 142.817 309.762 147.791ZM277.156 197.063C272.473 201.747 270.983 208.414 272.688 214.359C272.064 214.728 271.475 215.181 270.938 215.717L235.261 251.395C235.026 251.63 234.862 251.927 234.789 252.25L234.009 255.637L232.448 262.17C232.191 263.223 231.936 264.254 231.686 265.259C231.365 266.552 232.537 267.723 233.829 267.402L240.136 265.863L246.84 264.298C247.164 264.225 247.461 264.061 247.696 263.826L283.372 228.151C283.909 227.613 284.362 227.024 284.731 226.398C290.675 228.101 297.341 226.612 302.022 221.93C308.889 215.063 308.889 203.93 302.022 197.063C295.156 190.196 284.022 190.196 277.156 197.063ZM318.098 131.259C321.267 128.089 326.254 127.846 329.703 130.527L330.531 131.259L367.831 168.558C371.264 171.992 371.264 177.558 367.831 180.992C364.661 184.161 359.674 184.405 356.226 181.723L355.397 180.992L318.098 143.692C314.664 140.259 314.664 134.692 318.098 131.259Z" fill="#71FA71" fill-opacity="0.2"/>
</g>
<g clip-path="url(#clip2_1136_6101)">
<path d="M257.875 177.062C263.48 174.82 269.824 175.88 274.382 179.723L275.401 180.659L313.786 219.044C318.054 223.312 319.579 229.561 317.843 235.264L317.384 236.569L298.167 284.609C295.978 290.085 290.992 293.95 285.132 294.692L243.864 299.841C242.803 299.97 241.687 300.123 240.527 300.299L236.923 300.887C236.304 300.994 235.676 301.106 235.042 301.223L229.169 302.368L225.142 303.22L219.09 304.579L211.327 306.431L198.719 309.648L193.47 311.063C190.906 311.77 187.773 311.247 185.486 308.959C183.452 306.926 182.813 304.225 183.193 301.849L183.468 300.665L185.868 291.63L188.014 283.118L189.866 275.355L191.225 269.303L192.077 265.276L193.222 259.403L193.867 255.691L194.392 252.212L199.752 209.314C200.438 203.904 203.784 199.24 208.601 196.832L209.836 196.277L257.875 177.062ZM265.589 188L212.359 210.014L207.613 250.021C207.479 251.123 207.348 252.198 207.222 253.237C206.595 258.412 205.443 264.675 204.099 271.055L201.589 281.5L232.933 250.021C231.485 244.599 232.888 238.575 237.141 234.322C243.488 227.975 253.776 227.975 260.122 234.322C266.468 240.668 266.468 250.957 260.122 257.303C255.869 261.556 249.845 262.958 244.424 261.511L212.589 291.63L220.089 289.569L226.46 288.228C230.67 287.381 234.756 286.644 238.43 286.116L285.132 281.5L306.83 229.313L265.589 188ZM283.104 165.38C286.032 162.451 290.641 162.226 293.828 164.704L294.594 165.38L329.065 199.851C332.238 203.024 332.238 208.169 329.065 211.342C326.136 214.271 321.527 214.496 318.34 212.018L317.575 211.342L283.104 176.87C279.93 173.697 279.93 168.553 283.104 165.38Z" fill="#068A44"/>
</g>
<circle cx="182.089" cy="112" r="44" fill="#71FA71" fill-opacity="0.2"/>
<circle cx="192.089" cy="103" r="43" stroke="#71FA71" stroke-width="2"/>
<path d="M253.763 46.9876L331.477 79.4672L264.492 130.53L253.763 46.9876Z" fill="#71FA71" fill-opacity="0.2"/>
<path d="M334.486 62.0887L268.877 112.102L258.369 30.2773L334.486 62.0887Z" stroke="#068A44"/>
<defs>
<clipPath id="clip0_1136_6101">
<rect width="165.177" height="165.177" fill="white" transform="translate(0 246.047) rotate(-60)"/>
</clipPath>
<clipPath id="clip1_1136_6101">
<rect width="211" height="211" fill="white" transform="translate(184.089 104)"/>
</clipPath>
<clipPath id="clip2_1136_6101">
<rect width="195" height="195" fill="white" transform="translate(160.089 154)"/>
</clipPath>
</defs>
</svg>
