<svg width="235" height="144" viewBox="0 0 235 144" fill="none" xmlns="http://www.w3.org/2000/svg">
<path d="M35.0658 59.5322L119.88 143.714H0.253876C-2.78425 104.471 22.1959 71.2417 35.0658 59.5322Z" fill="#71FA71"/>
<path d="M119.88 53.2606V143.712L55.8457 80.0848C77.7031 57.4078 107.643 52.7533 119.88 53.2606Z" fill="#46CA46"/>
<path d="M119.908 0.0727047V143.727L220.749 42.8273C188.7 6.73836 140.168 -0.712824 119.908 0.0727047Z" fill="#34A853"/>
<path d="M200.98 62.6982L119.92 143.716H234.755C234.755 100.762 212.239 71.8066 200.98 62.6982Z" fill="#1F4B3E"/>
<path d="M195.802 123.374C196.08 125.053 197.538 126.333 199.296 126.333H200.713C203.451 126.333 205.671 124.113 205.671 121.375V105.083C204.888 105.083 204.254 104.449 204.254 103.666V102.25C204.254 101.467 204.888 100.833 205.671 100.833H207.088C207.87 100.833 208.504 101.467 208.504 102.25V103.666C208.504 104.449 207.87 105.083 207.088 105.083V121.375C207.088 124.895 204.233 127.75 200.713 127.75H199.296C196.798 127.75 194.731 125.902 194.388 123.5C194.371 123.5 194.354 123.5 194.338 123.5C189.643 123.5 185.838 119.694 185.838 115C185.838 110.8 188.883 107.311 192.887 106.623C192.597 104.16 190.503 102.25 187.963 102.25C185.224 102.25 183.004 104.47 183.004 107.208V123.5C183.787 123.5 184.421 124.134 184.421 124.916V126.333C184.421 127.115 183.787 127.75 183.004 127.75H181.588C180.805 127.75 180.171 127.115 180.171 126.333V124.916C180.171 124.134 180.805 123.5 181.588 123.5V107.208C181.588 103.687 184.442 100.833 187.963 100.833C191.244 100.833 193.946 103.312 194.299 106.5C194.312 106.5 194.325 106.5 194.338 106.5C199.032 106.5 202.838 110.305 202.838 115C202.838 119.195 199.799 122.68 195.802 123.374ZM199.875 119.417C199.71 118.963 199.393 118.575 198.973 118.323L196.821 117.032C196.122 117.536 195.265 117.833 194.338 117.833C193.411 117.833 192.553 117.536 191.854 117.032L189.703 118.323C189.283 118.575 188.966 118.962 188.8 119.417C190.098 121.042 192.096 122.083 194.338 122.083C196.579 122.083 198.577 121.042 199.875 119.417ZM200.733 118.048C201.174 117.125 201.421 116.091 201.421 115C201.421 111.088 198.25 107.916 194.338 107.916C190.426 107.916 187.254 111.088 187.254 115C187.254 116.091 187.501 117.125 187.942 118.048C188.217 117.674 188.567 117.353 188.974 117.109L190.835 115.992C190.364 115.307 190.088 114.477 190.088 113.583C190.088 111.236 191.99 109.333 194.338 109.333C196.685 109.333 198.588 111.236 198.588 113.583C198.588 114.477 198.311 115.307 197.84 115.992L199.701 117.109C200.109 117.353 200.458 117.674 200.733 118.048ZM194.338 116.416C195.902 116.416 197.171 115.148 197.171 113.583C197.171 112.018 195.902 110.75 194.338 110.75C192.773 110.75 191.504 112.018 191.504 113.583C191.504 115.148 192.773 116.416 194.338 116.416ZM181.588 124.916V126.333H183.004V124.916H181.588ZM205.671 102.25V103.666H207.088V102.25H205.671Z" fill="white"/>
<g clip-path="url(#clip0_1611_9836)">
<path d="M40.1324 126.943L38.6011 125.583C37.8355 124.894 37.2449 124.041 36.873 123.078L34.6745 117.008C34.4886 116.494 34.7292 115.925 35.2214 115.695C35.4839 115.575 35.7464 115.52 36.0199 115.52C36.7089 115.52 37.3761 115.904 37.7152 116.559L39.7277 120.606C40.4058 120.103 40.7995 119.305 40.7995 118.473V105.578C40.7995 104.67 41.5324 103.938 42.4402 103.938C43.348 103.938 44.0808 104.67 44.0808 105.578V114.328C44.0808 113.42 44.8136 112.688 45.7214 112.688C46.6292 112.688 47.3621 113.42 47.3621 114.328V114.875C47.3621 113.967 48.0949 113.234 49.0027 113.234C49.9105 113.234 50.6433 113.967 50.6433 114.875V115.969C50.6433 115.061 51.3761 114.328 52.2839 114.328C53.1917 114.328 53.9246 115.061 53.9246 115.969V124.817C53.9246 125.555 53.7025 126.275 53.2967 126.885" stroke="white" stroke-width="1.875" stroke-miterlimit="10" stroke-linecap="round" stroke-linejoin="round"/>
<path d="M39.7058 131.828V128.547H53.9246V131.828" stroke="white" stroke-width="1.875" stroke-miterlimit="10" stroke-linecap="round" stroke-linejoin="round"/>
<path d="M36.3994 104.529C36.4158 104.693 36.4246 104.861 36.4246 105.031C36.4246 107.742 34.2272 109.94 31.5158 109.94C28.8044 109.94 26.6071 107.742 26.6071 105.031C26.6071 102.319 28.8055 100.122 31.5158 100.122C32.3831 100.122 33.1991 100.348 33.9067 100.743" stroke="white" stroke-width="1.875" stroke-miterlimit="10" stroke-linecap="round" stroke-linejoin="round"/>
<path d="M36.22 101.577L31.5158 106.281L29.2495 104.015" stroke="white" stroke-width="1.875" stroke-miterlimit="10" stroke-linecap="round" stroke-linejoin="round"/>
<path d="M53.3777 109.953C56.096 109.953 58.2996 107.75 58.2996 105.031C58.2996 102.313 56.096 100.109 53.3777 100.109C50.6594 100.109 48.4558 102.313 48.4558 105.031C48.4558 107.75 50.6594 109.953 53.3777 109.953Z" stroke="white" stroke-width="1.875" stroke-miterlimit="10"/>
<path d="M55.0183 106.672L51.7371 103.391" stroke="white" stroke-width="1.875" stroke-miterlimit="10" stroke-linecap="round" stroke-linejoin="round"/>
<path d="M55.0183 103.391L51.7371 106.672" stroke="white" stroke-width="1.875" stroke-miterlimit="10" stroke-linecap="round" stroke-linejoin="round"/>
<path d="M40.1324 126.943L38.6011 125.583C37.8355 124.894 37.2449 124.041 36.873 123.078L34.6745 117.008C34.4886 116.494 34.7292 115.925 35.2214 115.695C35.4839 115.575 35.7464 115.52 36.0199 115.52C36.7089 115.52 37.3761 115.904 37.7152 116.559L39.7277 120.606C40.4058 120.103 40.7995 119.305 40.7995 118.473V105.578C40.7995 104.67 41.5324 103.938 42.4402 103.938C43.348 103.938 44.0808 104.67 44.0808 105.578V114.328C44.0808 113.42 44.8136 112.688 45.7214 112.688C46.6292 112.688 47.3621 113.42 47.3621 114.328V114.875C47.3621 113.967 48.0949 113.234 49.0027 113.234C49.9105 113.234 50.6433 113.967 50.6433 114.875V115.969C50.6433 115.061 51.3761 114.328 52.2839 114.328C53.1917 114.328 53.9246 115.061 53.9246 115.969V124.817C53.9246 125.555 53.7025 126.275 53.2967 126.885" stroke="white" stroke-width="1.875" stroke-miterlimit="10" stroke-linecap="round" stroke-linejoin="round"/>
<path d="M39.7058 131.828V128.547H53.9246V131.828" stroke="white" stroke-width="1.875" stroke-miterlimit="10" stroke-linecap="round" stroke-linejoin="round"/>
<path d="M36.3994 104.529C36.4158 104.693 36.4246 104.861 36.4246 105.031C36.4246 107.742 34.2272 109.94 31.5158 109.94C28.8044 109.94 26.6071 107.742 26.6071 105.031C26.6071 102.319 28.8055 100.122 31.5158 100.122C32.3831 100.122 33.1991 100.348 33.9067 100.743" stroke="white" stroke-width="1.875" stroke-miterlimit="10" stroke-linecap="round" stroke-linejoin="round"/>
<path d="M36.22 101.577L31.5158 106.281L29.2495 104.015" stroke="white" stroke-width="1.875" stroke-miterlimit="10" stroke-linecap="round" stroke-linejoin="round"/>
<path d="M53.3777 109.953C56.096 109.953 58.2996 107.75 58.2996 105.031C58.2996 102.313 56.096 100.109 53.3777 100.109C50.6594 100.109 48.4558 102.313 48.4558 105.031C48.4558 107.75 50.6594 109.953 53.3777 109.953Z" stroke="white" stroke-width="1.875" stroke-miterlimit="10" stroke-linecap="round" stroke-linejoin="round"/>
<path d="M55.0183 106.672L51.7371 103.391" stroke="white" stroke-width="1.875" stroke-miterlimit="10" stroke-linecap="round" stroke-linejoin="round"/>
<path d="M55.0183 103.391L51.7371 106.672" stroke="white" stroke-width="1.875" stroke-miterlimit="10" stroke-linecap="round" stroke-linejoin="round"/>
</g>
<path d="M83.8334 91.3337C83.8334 89.4733 84.1998 87.6312 84.9117 85.9123C85.6237 84.1935 86.6672 82.6318 87.9827 81.3163C89.2982 80.0008 90.8599 78.9573 92.5787 78.2454C94.2975 77.5334 96.1397 77.167 98 77.167C99.8604 77.167 101.703 77.5334 103.421 78.2454C105.14 78.9573 106.702 80.0008 108.017 81.3163C109.333 82.6318 110.376 84.1935 111.088 85.9123C111.8 87.6312 112.167 89.4733 112.167 91.3337" stroke="white" stroke-width="1.5" stroke-linejoin="round"/>
<path d="M93.8334 92.9997C93.8334 92.4525 93.9411 91.9107 94.1505 91.4052C94.3599 90.8997 94.6669 90.4403 95.0537 90.0533C95.4407 89.6665 95.9 89.3595 96.4055 89.1502C96.911 88.9408 97.4529 88.833 98 88.833C98.5472 88.833 99.089 88.9408 99.5945 89.1502C100.1 89.3595 100.559 89.6665 100.946 90.0533C101.333 90.4403 101.64 90.8997 101.85 91.4052C102.059 91.9107 102.167 92.4525 102.167 92.9997" stroke="white" stroke-width="1.5" stroke-linejoin="round"/>
<path d="M94.6535 90.3081L89.4173 87.3597" stroke="white" stroke-width="1.5" stroke-linecap="round" stroke-linejoin="round"/>
<path d="M112.167 91.333V92.1663C112.167 93.0868 111.421 93.833 110.5 93.833H85.5C84.5796 93.833 83.8334 93.0868 83.8334 92.1663V91.333" stroke="white" stroke-width="1.5" stroke-linecap="round" stroke-linejoin="round"/>
<g clip-path="url(#clip1_1611_9836)">
<path d="M164.671 46.4591C168.233 46.8425 171.004 49.7833 171.004 53.3542V67.2292C171.004 67.6549 170.65 68.0001 170.213 68.0001C169.775 68.0001 169.421 67.6549 169.421 67.2292V53.3542C169.421 50.6359 167.356 48.3871 164.671 48.013L164.671 57.2084C164.671 58.9113 163.253 60.2917 161.504 60.2917C160.09 60.2917 158.841 59.9223 157.781 59.1826C157.378 58.9014 156.894 58.7501 156.397 58.7501C155.99 58.7501 155.663 58.9796 155.546 59.3199C155.371 59.833 155.476 60.333 155.803 60.6906L161.304 66.7171C161.595 67.0353 161.565 67.5225 161.239 67.8054C160.912 68.0882 160.411 68.0595 160.121 67.7413L156.121 63.3597C156.07 63.3698 156.017 63.3751 155.963 63.3751H149.629C147.443 63.3751 145.671 61.6495 145.671 59.5209V34.8542C145.671 32.7256 147.443 31 149.629 31L160.713 31C162.899 31 164.671 32.7256 164.671 34.8542L164.671 46.4591ZM154.619 61.7148C153.917 60.9451 153.69 59.8686 154.024 58.8917C154.376 57.8626 155.308 57.2084 156.359 57.2084C157.225 57.2084 158.031 57.4605 158.703 57.9293C159.487 58.4762 160.413 58.7501 161.504 58.7501C162.379 58.7501 163.088 58.0598 163.088 57.2084L163.088 34.8542C163.088 33.577 162.024 32.5417 160.713 32.5417L149.629 32.5417C148.318 32.5417 147.254 33.577 147.254 34.8542V59.5209C147.254 60.7981 148.318 61.8334 149.629 61.8334H154.727L154.619 61.7148ZM152.796 35.6251C152.359 35.6251 152.004 35.2799 152.004 34.8542C152.004 34.4285 152.359 34.0834 152.796 34.0834H157.546C157.983 34.0834 158.338 34.4285 158.338 34.8542C158.338 35.2799 157.983 35.6251 157.546 35.6251H152.796ZM157.546 41.7917C159.854 41.7917 161.504 43.1304 161.504 45.6459C161.504 48.0501 159.48 50.3031 155.564 52.4818C155.32 52.6172 155.022 52.6172 154.778 52.4818C150.862 50.3031 148.838 48.0501 148.838 45.6459C148.838 43.1304 150.487 41.7917 152.796 41.7917C153.747 41.7917 154.549 42.1248 155.171 42.7591C155.792 42.1248 156.595 41.7917 157.546 41.7917ZM159.921 45.6459C159.921 44.0503 159.037 43.3334 157.546 43.3334C156.801 43.3334 156.277 43.6737 155.879 44.449C155.587 45.0171 154.755 45.0171 154.463 44.449C154.065 43.6737 153.54 43.3334 152.796 43.3334C151.304 43.3334 150.421 44.0503 150.421 45.6459C150.421 47.2872 151.965 49.0682 155.171 50.9206C158.377 49.0682 159.921 47.2872 159.921 45.6459Z" fill="white"/>
</g>
<defs>
<clipPath id="clip0_1611_9836">
<rect width="35" height="35" fill="white" transform="translate(24.9402 98.4688)"/>
</clipPath>
<clipPath id="clip1_1611_9836">
<rect width="38" height="37" fill="white" transform="translate(139.338 31)"/>
</clipPath>
</defs>
</svg>
