<?xml version="1.0" encoding="utf-8"?>
<!-- Generator: Adobe Illustrator 25.0.0, SVG Export Plug-In . SVG Version: 6.00 Build 0)  -->
<svg version="1.1" id="Layer_1" xmlns="http://www.w3.org/2000/svg" xmlns:xlink="http://www.w3.org/1999/xlink" x="0px" y="0px"
	 viewBox="0 0 400 387" style="enable-background:new 0 0 400 387;" xml:space="preserve">
<style type="text/css">
	.st0{fill:#283377;}
	.st1{fill:#51BFB3;}
</style>
<g>
	<g>
		<polygon class="st0" points="249.4,345.3 249.4,331 336.3,331 336.3,53.9 63.7,53.9 63.7,79.9 49.5,79.9 49.5,39.7 350.5,39.7 
			350.5,345.2 		"/>
	</g>
	<polygon class="st0" points="84.7,123.6 79.4,163.5 59.7,163.5 49.5,88.6 63.5,88.6 71.2,147.7 78.1,88.6 92,88.6 99.2,148.1 
		106.6,88.6 119.2,88.6 109,163.5 89.9,163.5 	"/>
	<polygon class="st0" points="140.8,120.2 160.6,120.2 160.6,130.9 140.8,130.9 140.8,152.8 165.7,152.8 165.7,163.5 126.4,163.5 
		126.4,88.6 165.7,88.6 165.7,99.3 140.8,99.3 	"/>
	<polygon class="st0" points="174.6,88.6 188.9,88.6 188.9,152.8 212.6,152.8 212.6,163.5 174.6,163.5 	"/>
	<polygon class="st0" points="218.9,88.6 233.3,88.6 233.3,152.8 257,152.8 257,163.5 218.9,163.5 	"/>
	<polygon class="st1" points="63.8,208.5 83,208.5 83,218.8 63.8,218.8 63.8,239.9 88,239.9 88,250.2 49.8,250.2 49.8,178.1 
		88,178.1 88,188.4 63.8,188.4 	"/>
	<polygon class="st1" points="109.1,198 109.1,250.2 96.5,250.2 96.5,178.1 114,178.1 128.4,221.2 128.4,178.1 140.9,178.1 
		140.9,250.2 126.5,250.2 	"/>
	<polygon class="st0" points="49.8,264.5 93.4,264.5 93.4,276.1 78.7,276.1 78.7,345.2 64.6,345.2 64.6,276.1 49.8,276.1 	"/>
	<polygon class="st0" points="113.7,298.5 133.1,298.5 133.1,310.1 113.7,310.1 113.7,333.7 138.1,333.7 138.1,345.2 99.6,345.2 
		99.6,264.5 138.1,264.5 138.1,276.1 113.7,276.1 	"/>
	<path class="st0" d="M187.8,315.4v10.7c0,12.9-7.2,20.3-21,20.3s-21-7.4-21-20.3V284c0-12.9,7.2-20.3,21-20.3s21,7.4,21,20.3v7.9
		h-13.3v-8.7c0-5.8-2.8-8-7.3-8s-7.3,2.2-7.3,8V327c0,5.8,2.8,7.9,7.3,7.9s7.3-2.1,7.3-7.9v-11.6H187.8z"/>
	<polygon class="st0" points="210.4,345.6 196.3,345.6 196.3,264.7 210.4,264.7 210.4,299.4 226.4,299.4 226.4,264.7 240.7,264.7 
		240.7,345.6 226.4,345.6 226.4,310.9 210.4,310.9 	"/>
	<polygon class="st0" points="59.2,377.8 57.4,365.6 57.4,365.6 55.6,377.8 52.5,377.8 49.3,357.3 52.5,357.3 54.3,370.9 
		54.3,370.9 56.1,357.3 58.8,357.3 60.6,370.9 60.6,370.9 62.4,357.3 65.5,357.3 62.3,377.8 	"/>
	<polygon class="st0" points="70.8,360.2 70.8,366 75.3,366 75.3,368.9 70.8,368.9 70.8,375 76.4,375 76.4,377.8 67.7,377.8 
		67.7,357.3 76.4,357.3 76.4,360.2 	"/>
	<polygon class="st0" points="87.3,374.9 87.3,377.8 79,377.8 79,357.3 82.1,357.3 82.1,374.9 	"/>
	<polygon class="st0" points="97.5,374.9 97.5,377.8 89.3,377.8 89.3,357.3 92.4,357.3 92.4,374.9 	"/>
	<polygon class="st0" points="107.7,360.2 107.7,366 112.2,366 112.2,368.9 107.7,368.9 107.7,375 113.3,375 113.3,377.8 
		104.6,377.8 104.6,357.3 113.3,357.3 113.3,360.2 	"/>
	<polygon class="st0" points="123,377.8 118.9,364.2 118.9,364.2 118.9,377.8 115.9,377.8 115.9,357.3 119.4,357.3 123,369.5 
		123.1,369.5 123.1,357.3 126,357.3 126,377.8 	"/>
	<path class="st0" d="M138.7,361.9v1.4l-3,0.1v-1.2c0-1.6-0.6-2.4-1.8-2.4s-1.8,0.7-1.8,2.1v11.2c0,1.4,0.6,2.1,1.8,2.1
		s1.8-0.7,1.8-2.4v-3.5h-1.8v-2.9h4.8v6.7c0,3.1-1.8,4.9-4.9,4.9c-3.1,0-4.8-1.8-4.8-4.9v-11.3c0-3.1,1.8-4.9,4.8-4.9
		C136.9,357,138.7,358.8,138.7,361.9"/>
	<rect x="141.6" y="357.3" class="st0" width="3.1" height="20.6"/>
	<polygon class="st0" points="155.1,377.8 151,364.2 151,364.2 151,377.8 148,377.8 148,357.3 151.5,357.3 155.1,369.5 155.2,369.5 
		155.2,357.3 158.1,357.3 158.1,377.8 	"/>
	<polygon class="st0" points="164.5,360.2 164.5,366 169,366 169,368.9 164.5,368.9 164.5,375 170.1,375 170.1,377.8 161.4,377.8 
		161.4,357.3 170.1,357.3 170.1,360.2 	"/>
	<polygon class="st0" points="175.8,360.2 175.8,366 180.4,366 180.4,368.9 175.8,368.9 175.8,375 181.4,375 181.4,377.8 
		172.7,377.8 172.7,357.3 181.4,357.3 181.4,360.2 	"/>
	<path class="st0" d="M188.3,369.2h-1.4v8.7h-3.1v-20.6h4.5c3.3,0,5.1,1.8,5.1,5.2v1.5c0,2.2-0.8,3.7-2.2,4.5l2.8,9.4h-3.3
		L188.3,369.2z M186.9,366.3h1.3c1.5,0,2.2-0.8,2.2-2.5v-1.1c0-1.7-0.7-2.5-2.2-2.5h-1.3V366.3z"/>
	<rect x="196.3" y="357.3" class="st0" width="3.1" height="20.6"/>
	<polygon class="st0" points="209.7,377.8 205.7,364.2 205.6,364.2 205.6,377.8 202.7,377.8 202.7,357.3 206.1,357.3 209.8,369.5 
		209.8,369.5 209.8,357.3 212.7,357.3 212.7,377.8 	"/>
	<path class="st0" d="M225.4,361.9v1.4l-3,0.1v-1.2c0-1.6-0.6-2.4-1.8-2.4s-1.8,0.7-1.8,2.1v11.2c0,1.4,0.6,2.1,1.8,2.1
		s1.8-0.7,1.8-2.4v-3.5h-1.8v-2.9h4.8v6.7c0,3.1-1.8,4.9-4.9,4.9c-3.1,0-4.8-1.8-4.8-4.9v-11.3c0-3.1,1.8-4.9,4.8-4.9
		C223.7,357,225.4,358.8,225.4,361.9"/>
	<polygon class="st0" points="238.5,360.2 238.5,377.8 235.4,377.8 235.4,360.2 232.1,360.2 232.1,357.3 241.8,357.3 241.8,360.2 	
		"/>
	<polygon class="st0" points="246.8,360.2 246.8,366 251.3,366 251.3,368.9 246.8,368.9 246.8,375 252.4,375 252.4,377.8 
		243.7,377.8 243.7,357.3 252.4,357.3 252.4,360.2 	"/>
	<path class="st0" d="M264.3,361.9v1.9l-3,0.1v-1.7c0-1.6-0.6-2.4-1.8-2.4s-1.8,0.7-1.8,2.1v11.2c0,1.4,0.6,2.1,1.8,2.1
		s1.8-0.7,1.8-2.4v-2.3l3,0.1v2.5c0,3.1-1.8,4.9-4.8,4.9s-4.8-1.8-4.8-4.9v-11.3c0-3.1,1.8-4.9,4.8-4.9
		C262.5,357,264.3,358.8,264.3,361.9"/>
	<polygon class="st0" points="273.7,377.8 273.7,368.9 270,368.9 270,377.8 266.9,377.8 266.9,357.3 270,357.3 270,366 273.7,366 
		273.7,357.3 276.8,357.3 276.8,377.8 	"/>
	<polygon class="st0" points="287.1,377.8 283.1,364.2 283,364.2 283,377.8 280.1,377.8 280.1,357.3 283.6,357.3 287.2,369.5 
		287.3,369.5 287.3,357.3 290.2,357.3 290.2,377.8 	"/>
	<path class="st0" d="M303.2,362.2v10.7c0,3.2-1.9,5.2-5,5.2s-5-2-5-5.2v-10.7c0-3.2,1.9-5.2,5-5.2C301.3,357,303.2,359,303.2,362.2
		 M296.3,362.2v10.7c0,1.5,0.7,2.3,1.9,2.3c1.2,0,1.9-0.8,1.9-2.3v-10.7c0-1.5-0.7-2.3-1.9-2.3C297,359.9,296.3,360.7,296.3,362.2"
		/>
	<polygon class="st0" points="314.4,374.9 314.4,377.8 306.2,377.8 306.2,357.3 309.3,357.3 309.3,374.9 	"/>
	<path class="st0" d="M326,362.2v10.7c0,3.2-1.9,5.2-5,5.2s-5-2-5-5.2v-10.7c0-3.2,1.9-5.2,5-5.2S326,359,326,362.2 M319.1,362.2
		v10.7c0,1.5,0.7,2.3,1.9,2.3c1.2,0,1.9-0.8,1.9-2.3v-10.7c0-1.5-0.7-2.3-1.9-2.3C319.8,359.9,319.1,360.7,319.1,362.2"/>
	<path class="st0" d="M338.4,361.9v1.4l-3,0.1v-1.2c0-1.6-0.6-2.4-1.8-2.4c-1.2,0-1.8,0.7-1.8,2.1v11.2c0,1.4,0.6,2.1,1.8,2.1
		c1.2,0,1.8-0.7,1.8-2.4v-3.5h-1.8v-2.9h4.8v6.7c0,3.1-1.8,4.9-4.9,4.9s-4.8-1.8-4.8-4.9v-11.3c0-3.1,1.8-4.9,4.8-4.9
		C336.6,357,338.4,358.8,338.4,361.9"/>
	<polygon class="st0" points="346.5,377.8 343.4,377.8 343.4,368.5 339.1,357.3 342.3,357.3 344.9,364.6 345,364.6 347.5,357.3 
		350.7,357.3 346.5,368.6 	"/>
</g>
</svg>
