<svg width="444" height="193" viewBox="0 0 444 193" fill="none" xmlns="http://www.w3.org/2000/svg">
<circle cx="396" cy="138" r="48" fill="#71FA71"/>
<circle cx="230.5" cy="61.5" r="61.5" fill="#E6F4E9"/>
<circle cx="64.5" cy="128.5" r="64.5" fill="#2DE92D"/>
<g clip-path="url(#clip0_348_165)">
<path d="M259.061 46.9317V46.9458L214.959 47.0174L200.883 47.0397L200.88 45.1654C200.875 43.1009 202.562 41.4084 204.626 41.4038L255.297 41.3087C257.361 41.3052 259.052 42.9907 259.057 45.0551L259.061 46.9317Z" fill="#D7DEED"/>
<path d="M255.214 43.2346C255.732 43.2346 256.152 43.6545 256.152 44.1729C256.152 44.4322 256.046 44.6668 255.877 44.8368C255.707 45.0057 255.473 45.1113 255.214 45.1113H254.275C253.757 45.1113 253.337 44.6914 253.337 44.1729C253.337 43.9137 253.443 43.6791 253.611 43.5091C253.781 43.3402 254.016 43.2346 254.275 43.2346H255.214Z" fill="#EFF2FA"/>
<path d="M251.461 43.2346C251.979 43.2346 252.399 43.6545 252.399 44.1729C252.399 44.4322 252.293 44.6668 252.124 44.8368C251.954 45.0057 251.72 45.1113 251.461 45.1113H250.522C250.004 45.1113 249.584 44.6914 249.584 44.1729C249.584 43.9137 249.69 43.6791 249.858 43.5091C250.028 43.3402 250.263 43.2346 250.522 43.2346H251.461Z" fill="#EFF2FA"/>
<path d="M246.769 43.2346C247.287 43.2346 247.707 43.6545 247.707 44.1729C247.707 44.4322 247.602 44.6668 247.433 44.8368C247.263 45.0057 247.028 45.1113 246.769 45.1113H224.249C223.73 45.1113 223.311 44.6914 223.311 44.1729C223.311 43.9137 223.416 43.6791 223.585 43.5091C223.755 43.3402 223.99 43.2346 224.249 43.2346H246.769Z" fill="#EFF2FA"/>
<path d="M220.495 43.2346C221.013 43.2346 221.433 43.6545 221.433 44.1729C221.433 44.4322 221.328 44.6668 221.159 44.8368C220.989 45.0057 220.754 45.1113 220.495 45.1113H219.556C219.038 45.1113 218.618 44.6914 218.618 44.1729C218.618 43.9137 218.724 43.6791 218.893 43.5091C219.063 43.3402 219.297 43.2346 219.556 43.2346H220.495Z" fill="#EFF2FA"/>
<path d="M216.742 43.2346C217.26 43.2346 217.68 43.6545 217.68 44.1729C217.68 44.4322 217.575 44.6668 217.406 44.8368C217.236 45.0057 217.001 45.1113 216.742 45.1113H215.804C215.285 45.1113 214.865 44.6914 214.865 44.1729C214.865 43.9137 214.971 43.6791 215.14 43.5091C215.31 43.3402 215.544 43.2346 215.804 43.2346H216.742Z" fill="#EFF2FA"/>
<path d="M214.959 47.0172L215.026 82.6719L204.704 82.6906C202.64 82.6953 200.947 81.0087 200.944 78.9444L200.884 47.0396L214.959 47.0172Z" fill="#EFF2FA"/>
<path d="M259.94 46.9306V46.9302C259.94 46.9302 259.94 46.9299 259.94 46.9297L259.936 45.0535C259.932 42.5038 257.853 40.4293 255.295 40.4293L204.624 40.5245C203.391 40.5268 202.23 41.0121 201.354 41.8908C200.479 42.7697 199.998 43.933 200 45.1662L200.004 47.0422C200.004 47.0424 200.004 47.0426 200.004 47.0426V47.0434L200.064 78.9465C200.068 81.4964 202.147 83.5708 204.696 83.5708C204.697 83.5708 204.705 83.5708 204.705 83.5708L255.376 83.4755C257.93 83.4706 260.005 81.3883 260 78.8339L259.94 46.9306ZM204.702 81.8115L204.696 82.6912V81.8115C203.115 81.8115 201.826 80.5247 201.823 78.9432L201.765 47.9194L214.08 47.8963L214.144 81.7938L204.702 81.8115ZM255.372 81.7162L215.903 81.7905L215.84 47.893L252.494 47.8241C252.979 47.8231 253.373 47.4286 253.372 46.9427C253.371 46.4573 252.977 46.0646 252.492 46.0646C252.491 46.0646 252.491 46.0646 252.49 46.0646L201.761 46.16L201.759 45.163C201.758 44.3995 202.057 43.6785 202.6 43.1325C203.144 42.5866 203.864 42.2852 204.628 42.2838L255.304 42.1887C256.885 42.1887 258.174 43.4754 258.177 45.0568L258.179 46.0539L256.244 46.0576C255.758 46.0585 255.365 46.4531 255.366 46.9391C255.367 47.4244 255.76 47.8171 256.245 47.8171C256.246 47.8171 256.246 47.8171 256.247 47.8171L258.182 47.8133L258.241 78.8372C258.244 80.4217 256.957 81.7132 255.372 81.7162Z" fill="black"/>
<path d="M204.631 43.3389C204.4 43.3389 204.172 43.434 204.009 43.5969C203.845 43.761 203.751 43.9875 203.751 44.2186C203.751 44.4509 203.845 44.6773 204.009 44.8416C204.172 45.0046 204.4 45.0983 204.631 45.0983C204.863 45.0983 205.089 45.0045 205.254 44.8416C205.417 44.6774 205.51 44.451 205.51 44.2186C205.51 43.9875 205.417 43.7611 205.254 43.5969C205.089 43.4327 204.863 43.3389 204.631 43.3389Z" fill="black"/>
<path d="M207.446 43.3341C207.215 43.3341 206.987 43.428 206.824 43.5922C206.66 43.7552 206.566 43.9816 206.566 44.2138C206.566 44.4449 206.66 44.6725 206.824 44.8355C206.989 44.9997 207.215 45.0936 207.446 45.0936C207.677 45.0936 207.904 44.9997 208.069 44.8355C208.232 44.6725 208.326 44.4449 208.326 44.2138C208.326 43.9817 208.232 43.7552 208.069 43.5922C207.905 43.428 207.677 43.3341 207.446 43.3341Z" fill="black"/>
<path d="M210.262 43.3295C210.03 43.3295 209.803 43.4233 209.64 43.5863C209.476 43.7504 209.382 43.9769 209.382 44.2092C209.382 44.4403 209.476 44.6667 209.64 44.8309C209.804 44.9951 210.03 45.0889 210.262 45.0889C210.493 45.0889 210.72 44.9951 210.883 44.8309C211.047 44.6668 211.141 44.4403 211.141 44.2092C211.141 43.977 211.047 43.7505 210.883 43.5863C210.72 43.4233 210.494 43.3295 210.262 43.3295Z" fill="black"/>
<path d="M204.643 51.6673C204.644 51.6673 204.645 51.6673 204.645 51.6673L211.214 51.6551C211.699 51.6541 212.093 51.2596 212.092 50.7737C212.091 50.2883 211.697 49.8956 211.212 49.8956C211.211 49.8956 211.211 49.8956 211.21 49.8956L204.642 49.9078C204.156 49.9088 203.763 50.3033 203.764 50.7892C203.765 51.2745 204.158 51.6673 204.643 51.6673Z" fill="black"/>
<path d="M204.65 55.4207C204.651 55.4207 204.651 55.4207 204.652 55.4207L211.22 55.4084C211.706 55.4074 212.099 55.0129 212.098 54.527C212.098 54.0416 211.704 53.6489 211.219 53.6489C211.218 53.6489 211.218 53.6489 211.217 53.6489L204.649 53.6612C204.163 53.6622 203.77 54.0567 203.771 54.5426C203.771 55.0279 204.165 55.4207 204.65 55.4207Z" fill="black"/>
<path d="M211.227 57.4022C211.226 57.4022 211.225 57.4022 211.225 57.4022L204.656 57.4145C204.171 57.4155 203.777 57.81 203.778 58.2959C203.779 58.7813 204.173 59.174 204.658 59.174C204.659 59.174 204.659 59.174 204.66 59.174L211.228 59.1617C211.714 59.1607 212.107 58.7662 212.106 58.2803C212.105 57.7949 211.712 57.4022 211.227 57.4022Z" fill="black"/>
<path d="M204.665 62.9272C204.665 62.9272 204.666 62.9272 204.667 62.9272L208.42 62.9202C208.906 62.9193 209.299 62.5247 209.298 62.0389C209.297 61.5535 208.904 61.1608 208.418 61.1608C208.418 61.1608 208.417 61.1608 208.417 61.1608L204.663 61.1678C204.177 61.1687 203.784 61.5633 203.785 62.0492C203.786 62.5344 204.18 62.9272 204.665 62.9272Z" fill="black"/>
<path d="M208.425 64.9143C208.425 64.9143 208.424 64.9143 208.423 64.9143L204.67 64.9213C204.184 64.9223 203.791 65.3168 203.792 65.8027C203.793 66.2881 204.187 66.6808 204.672 66.6808C204.672 66.6808 204.673 66.6808 204.673 66.6808L208.427 66.6738C208.913 66.6728 209.306 66.2783 209.305 65.7924C209.304 65.307 208.91 64.9143 208.425 64.9143Z" fill="black"/>
<path d="M205.617 68.6729C205.616 68.6729 205.616 68.6729 205.615 68.6729L204.677 68.6746C204.191 68.6755 203.798 69.0701 203.799 69.556C203.8 70.0414 204.193 70.4341 204.679 70.4341C204.679 70.4341 204.68 70.4341 204.68 70.4341L205.619 70.4323C206.104 70.4314 206.498 70.0368 206.497 69.5509C206.496 69.0657 206.102 68.6729 205.617 68.6729Z" fill="black"/>
<path d="M228.679 68.1766C227.783 69.0755 226.591 69.572 225.322 69.5742C225.319 69.5742 225.316 69.5742 225.313 69.5742C224.048 69.5742 222.857 69.0826 221.961 68.189C221.062 67.2935 220.565 66.1016 220.563 64.8327C220.56 63.5639 221.052 62.37 221.948 61.471C222.844 60.5722 224.036 60.0757 225.304 60.0733C225.308 60.0733 225.311 60.0733 225.314 60.0733C226.579 60.0733 227.769 60.5651 228.666 61.4585C229.01 61.8013 229.567 61.8002 229.91 61.456C230.253 61.1119 230.252 60.5549 229.908 60.212C227.365 57.6786 223.235 57.6864 220.702 60.2293C219.475 61.4611 218.8 63.0971 218.804 64.8358C218.807 66.5746 219.487 68.2082 220.719 69.4353C221.948 70.6596 223.579 71.3334 225.313 71.3334C225.317 71.3334 225.321 71.3334 225.326 71.3334C227.064 71.3303 228.698 70.6501 229.925 69.4181C230.268 69.0739 230.267 68.5169 229.923 68.1742C229.579 67.8315 229.022 67.8324 228.679 68.1766Z" fill="black"/>
<path d="M238.356 67.2056C238.911 66.9746 239.42 66.6344 239.857 66.196C240.73 65.3192 241.21 64.1548 241.208 62.9174C241.203 60.3654 239.125 58.2931 236.575 58.2931C236.572 58.2931 236.569 58.2931 236.566 58.2931C236.566 58.2931 232.987 58.2999 232.815 58.3001C232.814 58.3002 232.813 58.3002 232.812 58.3001C232.811 58.3001 232.81 58.3 232.809 58.3001C232.325 58.3027 231.929 58.6968 231.93 59.1817C231.93 59.2109 231.931 59.2403 231.934 59.2697L231.955 70.4416C231.956 70.927 232.35 71.3197 232.835 71.3197C232.836 71.3197 232.836 71.3197 232.837 71.3197C233.323 71.3187 233.716 70.9241 233.715 70.4383L233.695 60.0579L236.569 60.0525C236.571 60.0525 236.573 60.0525 236.575 60.0525C238.157 60.0525 239.445 61.3381 239.448 62.9207C239.45 63.6884 239.152 64.4104 238.61 64.9544C238.069 65.4981 237.348 65.7982 236.58 65.7998C236.224 65.8005 235.904 66.0154 235.768 66.3443C235.633 66.6733 235.709 67.0515 235.961 67.3027L239.721 71.0491C240.065 71.3918 240.622 71.3909 240.965 71.0466C241.308 70.7024 241.307 70.1454 240.963 69.8025L238.356 67.2056Z" fill="black"/>
<path d="M253.677 58.2889C253.289 58.189 252.882 58.3645 252.688 58.7152L248.778 65.7834L244.842 58.7299C244.647 58.3798 244.24 58.2068 243.852 58.3073C243.464 58.4086 243.194 58.7593 243.194 59.1602L243.216 70.4203C243.216 70.9057 243.61 71.2984 244.095 71.2984C244.096 71.2984 244.096 71.2984 244.097 71.2984C244.583 71.2975 244.976 70.9029 244.975 70.417L244.96 62.5518L248.014 68.0234C248.169 68.3019 248.463 68.4744 248.782 68.4744C248.782 68.4744 248.783 68.4744 248.783 68.4744C249.103 68.4738 249.397 68.3002 249.552 68.0205L252.584 62.5375L252.599 70.4026C252.6 70.888 252.994 71.2807 253.479 71.2807C253.479 71.2807 253.48 71.2807 253.48 71.2807C253.966 71.2798 254.359 70.8852 254.359 70.3993L254.337 59.1393C254.337 58.7384 254.065 58.3887 253.677 58.2889Z" fill="black"/>
</g>
<path d="M403.633 168V164.569C403.633 163.836 403.924 163.132 404.443 162.613C404.961 162.095 405.665 161.803 406.399 161.803H414.035C414.429 161.793 414.816 161.704 415.176 161.544C415.535 161.383 415.859 161.153 416.13 160.866C416.4 160.58 416.611 160.243 416.75 159.875C416.89 159.507 416.956 159.115 416.944 158.721V158.778C416.944 158.705 416.944 154.832 416.944 154.692C416.964 154.163 417.166 153.658 417.517 153.261C418.096 152.593 418.413 151.738 418.407 150.854L418.399 150.02C418.398 149.762 418.475 149.511 418.62 149.298C418.766 149.085 418.972 148.922 419.213 148.829H420.547C420.794 148.835 421.039 148.788 421.266 148.689C421.493 148.591 421.696 148.444 421.86 148.26C422.062 148.022 422.192 147.732 422.234 147.423C422.277 147.114 422.229 146.799 422.098 146.516C420.644 143.466 419.376 140.331 418.3 137.128C418.11 136.519 418.018 135.883 418.029 135.245L418.028 129.002C418.027 127.327 417.795 125.66 417.337 124.049L417.329 124.021C416.602 121.37 415.259 118.928 413.408 116.894C413.009 116.464 412.59 116.046 412.151 115.64C411.876 115.375 411.595 115.114 411.304 114.861C407.127 111.231 401.776 109.237 396.242 109.25C390.523 109.236 384.979 111.22 380.569 114.861C376.773 118.137 374.213 122.614 373.316 127.547C372.419 132.48 373.238 137.572 375.637 141.975C378.43 147.382 380.617 156.277 381.174 165.5V168" stroke="#353535" stroke-width="2.5" stroke-miterlimit="10"/>
<path d="M400.896 123H405.271" stroke="#353535" stroke-width="2.5" stroke-linecap="round" stroke-linejoin="round"/>
<path d="M400.896 140.5H405.271" stroke="#353535" stroke-width="2.5" stroke-linecap="round" stroke-linejoin="round"/>
<path d="M403.083 123V140.5" stroke="#353535" stroke-width="2.5" stroke-linecap="round" stroke-linejoin="round"/>
<path d="M395.99 140.5L390.88 123H390.033L384.949 140.5" stroke="#353535" stroke-width="2.5" stroke-linecap="round" stroke-linejoin="round"/>
<path d="M387.067 134.416H393.845" stroke="#353535" stroke-width="2.5" stroke-linecap="round" stroke-linejoin="round"/>
<path d="M65.98 104.91C65.9799 103.764 65.7206 102.634 65.2213 101.602C64.722 100.571 63.9957 99.6665 63.0969 98.956C62.1982 98.2455 61.1502 97.7477 60.0317 97.4999C58.9131 97.2521 57.753 97.2607 56.6382 97.5251C55.5235 97.7895 54.4831 98.3029 53.595 99.0266C52.7069 99.7504 51.9942 100.666 51.5102 101.704C51.0263 102.743 50.7838 103.877 50.8008 105.023C50.8178 106.168 51.0939 107.295 51.6085 108.319C50.7003 107.813 49.6779 107.549 48.6385 107.55C45.0085 107.55 42.0385 110.801 42.0385 114.81C42.0234 116.693 42.7065 118.516 43.9558 119.925C43.4948 119.817 43.0233 119.762 42.55 119.76C38.359 119.76 34.96 123.898 34.96 129C34.96 134.102 38.359 138.24 42.55 138.24C43.0288 138.239 43.506 138.184 43.9723 138.075C42.723 139.484 42.0399 141.307 42.055 143.19C42.055 147.2 45.025 150.45 48.655 150.45C49.6944 150.451 50.7168 150.187 51.625 149.681C51.1042 150.705 50.8226 151.833 50.8013 152.982C50.7801 154.13 51.0197 155.268 51.5022 156.311C51.9847 157.353 52.6975 158.272 53.5868 158.999C54.4762 159.726 55.5189 160.242 56.6364 160.507C57.7539 160.772 58.9171 160.781 60.0382 160.531C61.1594 160.282 62.2094 159.781 63.109 159.067C64.0086 158.353 64.7344 157.444 65.2317 156.409C65.729 155.373 65.9849 154.239 65.98 153.09C65.98 152.978 65.98 152.869 65.98 152.76V105.24C65.98 105.131 65.98 105.022 65.98 104.91Z" stroke="#220728" stroke-width="2.4" stroke-linejoin="bevel"/>
<path d="M53.1953 158.456C54.6188 159.879 56.5496 160.679 58.5628 160.679C60.5759 160.679 62.5067 159.879 63.9302 158.456C65.3537 157.032 66.1535 155.102 66.1535 153.088C66.1535 151.075 65.3537 149.144 63.9302 147.721H59.6765" stroke="#220728" stroke-width="2.4" stroke-miterlimit="10"/>
<path d="M52.8662 99.5442C54.2946 98.146 56.2167 97.3678 58.2155 97.3783C60.2142 97.3888 62.1281 98.1873 63.5416 99.6004C64.9551 101.014 65.7542 102.927 65.7654 104.926C65.7765 106.925 64.9988 108.847 63.6011 110.276H59.9315" stroke="#220728" stroke-width="2.4" stroke-miterlimit="10"/>
<path d="M65.9804 127.35H57.7304L47.2529 137.171" stroke="#220728" stroke-width="2.4" stroke-miterlimit="10"/>
<path d="M45.8398 124.594L51.6082 132.775" stroke="#220728" stroke-width="2.4" stroke-miterlimit="10"/>
<path d="M51.6084 149.681L55.5849 144.18" stroke="#220728" stroke-width="2.4" stroke-miterlimit="10"/>
<path d="M51.6084 108.372L54.4299 112.83V119.43" stroke="#220728" stroke-width="2.4" stroke-miterlimit="10"/>
<path d="M81.1603 129H65.3203" stroke="#220728" stroke-width="2.4" stroke-miterlimit="10"/>
<path d="M66.3096 139.23H74.2296L78.1896 146.381" stroke="#220728" stroke-width="2.4" stroke-miterlimit="10"/>
<path d="M66.3096 119.1H74.2296L78.1896 111.949" stroke="#220728" stroke-width="2.4" stroke-miterlimit="10"/>
<path d="M87.4304 134.28C90.3465 134.28 92.7104 131.916 92.7104 129C92.7104 126.084 90.3465 123.72 87.4304 123.72C84.5143 123.72 82.1504 126.084 82.1504 129C82.1504 131.916 84.5143 134.28 87.4304 134.28Z" stroke="#FFC548" stroke-width="2.4" stroke-miterlimit="10"/>
<path d="M80.1696 157.38C83.0857 157.38 85.4496 155.016 85.4496 152.1C85.4496 149.184 83.0857 146.82 80.1696 146.82C77.2536 146.82 74.8896 149.184 74.8896 152.1C74.8896 155.016 77.2536 157.38 80.1696 157.38Z" stroke="#FFC548" stroke-width="2.4" stroke-miterlimit="10"/>
<path d="M80.1696 111.18C83.0857 111.18 85.4496 108.816 85.4496 105.9C85.4496 102.984 83.0857 100.62 80.1696 100.62C77.2536 100.62 74.8896 102.984 74.8896 105.9C74.8896 108.816 77.2536 111.18 80.1696 111.18Z" stroke="#FFC548" stroke-width="2.4" stroke-miterlimit="10"/>
<defs>
<clipPath id="clip0_348_165">
<rect width="60" height="60" fill="white" transform="translate(200 32)"/>
</clipPath>
</defs>
</svg>
