<svg width="69" height="69" viewBox="0 0 69 69" fill="none" xmlns="http://www.w3.org/2000/svg">
<g clip-path="url(#clip0_116_329)">
<path d="M66.1837 4.22449H57.0306V1.40816C57.0306 0.630435 56.4002 0 55.6225 0H49.9898C49.2121 0 48.5816 0.630435 48.5816 1.40816V4.22449H38.7245V1.40816C38.7245 0.630435 38.0941 0 37.3163 0H31.6837C30.9059 0 30.2755 0.630435 30.2755 1.40816V4.22449H20.4184V1.40816C20.4184 0.630435 19.7879 0 19.0102 0H13.3776C12.5998 0 11.9694 0.630435 11.9694 1.40816V4.22449H2.81633C1.2634 4.22449 0 5.48789 0 7.04082V66.1837C0 67.7366 1.2634 69 2.81633 69H66.1837C67.7366 69 69 67.7366 69 66.1837V7.04082C69 5.48789 67.7366 4.22449 66.1837 4.22449ZM51.398 2.81633H54.2143V12.6735H51.398V2.81633ZM33.0918 2.81633H35.9082V12.6735H33.0918V2.81633ZM14.7857 2.81633H17.602V12.6735H14.7857V2.81633ZM66.1837 66.1837H2.81633V22.5306H66.1837V66.1837ZM66.1837 19.7143H2.81633V7.04082H11.9694V14.0816C11.9694 14.8594 12.5998 15.4898 13.3776 15.4898H19.0102C19.7879 15.4898 20.4184 14.8594 20.4184 14.0816V7.04082H30.2755V14.0816C30.2755 14.8594 30.9059 15.4898 31.6837 15.4898H37.3163C38.0941 15.4898 38.7245 14.8594 38.7245 14.0816V7.04082H48.5816V14.0816C48.5816 14.8594 49.2121 15.4898 49.9898 15.4898H55.6225C56.4002 15.4898 57.0306 14.8594 57.0306 14.0816V7.04082H66.1837V19.7143Z" fill="url(#paint0_linear_116_329)"/>
<path d="M7.04098 35.9081H15.49C16.2677 35.9081 16.8981 35.2777 16.8981 34.5V26.051C16.8981 25.2733 16.2677 24.6428 15.49 24.6428H7.04098C6.26325 24.6428 5.63281 25.2733 5.63281 26.051V34.5C5.63281 35.2777 6.26325 35.9081 7.04098 35.9081ZM8.44914 27.4591H14.0818V33.0918H8.44914V27.4591Z" fill="url(#paint1_linear_116_329)"/>
<path d="M7.04098 64.0714H15.49C16.2677 64.0714 16.8981 63.441 16.8981 62.6632V59.8469H21.1226V62.6632C21.1226 63.441 21.753 64.0714 22.5308 64.0714H30.9798C31.7575 64.0714 32.3879 63.441 32.3879 62.6632V54.2142C32.3879 53.4367 31.7575 52.8061 30.9798 52.8061H22.5308C21.753 52.8061 21.1226 53.4367 21.1226 54.2142V57.0306H16.8981V54.2142C16.8981 53.4367 16.2677 52.8061 15.49 52.8061H12.6736V49.9898H15.49C16.2677 49.9898 16.8981 49.3593 16.8981 48.5816V45.7653H21.1226V48.5816C21.1226 49.3593 21.753 49.9898 22.5308 49.9898H30.9798C31.7575 49.9898 32.3879 49.3593 32.3879 48.5816V45.7653H36.6124V48.5816C36.6124 49.3593 37.2428 49.9898 38.0206 49.9898H46.4695C47.2473 49.9898 47.8777 49.3593 47.8777 48.5816V45.7653H52.1022V48.5816C52.1022 49.3593 52.7326 49.9898 53.5104 49.9898H61.9593C62.7371 49.9898 63.3675 49.3593 63.3675 48.5816V40.1326C63.3675 39.355 62.7371 38.7245 61.9593 38.7245H59.143V35.9081H61.9593C62.7371 35.9081 63.3675 35.2777 63.3675 34.5V26.051C63.3675 25.2733 62.7371 24.6428 61.9593 24.6428H53.5104C52.7326 24.6428 52.1022 25.2733 52.1022 26.051V28.8673H47.8777V26.051C47.8777 25.2733 47.2473 24.6428 46.4695 24.6428H38.0206C37.2428 24.6428 36.6124 25.2733 36.6124 26.051V28.8673H32.3879V26.051C32.3879 25.2733 31.7575 24.6428 30.9798 24.6428H22.5308C21.753 24.6428 21.1226 25.2733 21.1226 26.051V34.5C21.1226 35.2777 21.753 35.9081 22.5308 35.9081H30.9798C31.7575 35.9081 32.3879 35.2777 32.3879 34.5V31.6836H36.6124V34.5C36.6124 35.2777 37.2428 35.9081 38.0206 35.9081H46.4695C47.2473 35.9081 47.8777 35.2777 47.8777 34.5V31.6836H52.1022V34.5C52.1022 35.2777 52.7326 35.9081 53.5104 35.9081H56.3267V38.7245H53.5104C52.7326 38.7245 52.1022 39.355 52.1022 40.1326V42.9489H47.8777V40.1326C47.8777 39.355 47.2473 38.7245 46.4695 38.7245H38.0206C37.2428 38.7245 36.6124 39.355 36.6124 40.1326V42.9489H32.3879V40.1326C32.3879 39.355 31.7575 38.7245 30.9798 38.7245H22.5308C21.753 38.7245 21.1226 39.355 21.1226 40.1326V42.9489H16.8981V40.1326C16.8981 39.355 16.2677 38.7245 15.49 38.7245H7.04098C6.26325 38.7245 5.63281 39.355 5.63281 40.1326V48.5816C5.63281 49.3593 6.26325 49.9898 7.04098 49.9898H9.8573V52.8061H7.04098C6.26325 52.8061 5.63281 53.4367 5.63281 54.2142V62.6632C5.63281 63.441 6.26325 64.0714 7.04098 64.0714ZM23.9389 55.6224H29.5716V61.2551H23.9389V55.6224ZM29.5716 33.0918H23.9389V27.4591H29.5716V33.0918ZM45.0614 33.0918H39.4287V27.4591H45.0614V33.0918ZM54.9185 33.0918V27.4591H60.5512V33.0918H54.9185ZM54.9185 41.5408H60.5512V47.1734H54.9185V41.5408ZM39.4287 41.5408H45.0614V47.1734H39.4287V41.5408ZM23.9389 41.5408H29.5716V47.1734H23.9389V41.5408ZM8.44914 47.1734V41.5408H14.0818V47.1734H8.44914ZM8.44914 55.6224H14.0818V61.2551H8.44914V55.6224Z" fill="url(#paint2_linear_116_329)"/>
<path d="M46.4694 52.8062H38.0205C37.2427 52.8062 36.6123 53.4367 36.6123 54.2143V62.6633C36.6123 63.441 37.2427 64.0715 38.0205 64.0715H46.4694C47.2472 64.0715 47.8776 63.441 47.8776 62.6633V54.2143C47.8776 53.4367 47.2472 52.8062 46.4694 52.8062ZM45.0613 61.2551H39.4286V55.6225H45.0613V61.2551Z" fill="url(#paint3_linear_116_329)"/>
<path d="M61.9587 52.8062H53.5097C52.732 52.8062 52.1016 53.4367 52.1016 54.2143V62.6633C52.1016 63.441 52.732 64.0715 53.5097 64.0715H61.9587C62.7364 64.0715 63.3669 63.441 63.3669 62.6633V54.2143C63.3669 53.4367 62.7364 52.8062 61.9587 52.8062ZM60.5505 61.2551H54.9179V55.6225H60.5505V61.2551Z" fill="url(#paint4_linear_116_329)"/>
<path d="M28.163 28.8674H25.3467V31.6838H28.163V28.8674Z" fill="url(#paint5_linear_116_329)"/>
<path d="M43.6532 28.8674H40.8369V31.6838H43.6532V28.8674Z" fill="url(#paint6_linear_116_329)"/>
<path d="M59.1425 28.8674H56.3262V31.6838H59.1425V28.8674Z" fill="url(#paint7_linear_116_329)"/>
<path d="M59.1425 42.949H56.3262V45.7653H59.1425V42.949Z" fill="url(#paint8_linear_116_329)"/>
<path d="M43.6532 42.949H40.8369V45.7653H43.6532V42.949Z" fill="url(#paint9_linear_116_329)"/>
<path d="M28.163 42.949H25.3467V45.7653H28.163V42.949Z" fill="url(#paint10_linear_116_329)"/>
<path d="M12.6737 42.949H9.85742V45.7653H12.6737V42.949Z" fill="url(#paint11_linear_116_329)"/>
<path d="M12.6737 57.0305H9.85742V59.8468H12.6737V57.0305Z" fill="url(#paint12_linear_116_329)"/>
<path d="M28.163 57.0305H25.3467V59.8468H28.163V57.0305Z" fill="url(#paint13_linear_116_329)"/>
</g>
<defs>
<linearGradient id="paint0_linear_116_329" x1="34.5" y1="0" x2="34.5" y2="69" gradientUnits="userSpaceOnUse">
<stop stop-color="#71FA71"/>
<stop offset="1" stop-color="#00A14B"/>
</linearGradient>
<linearGradient id="paint1_linear_116_329" x1="11.2655" y1="24.6428" x2="11.2655" y2="35.9081" gradientUnits="userSpaceOnUse">
<stop stop-color="#71FA71"/>
<stop offset="1" stop-color="#00A14B"/>
</linearGradient>
<linearGradient id="paint2_linear_116_329" x1="34.5002" y1="24.6428" x2="34.5002" y2="64.0714" gradientUnits="userSpaceOnUse">
<stop stop-color="#71FA71"/>
<stop offset="1" stop-color="#00A14B"/>
</linearGradient>
<linearGradient id="paint3_linear_116_329" x1="42.245" y1="52.8062" x2="42.245" y2="64.0715" gradientUnits="userSpaceOnUse">
<stop stop-color="#71FA71"/>
<stop offset="1" stop-color="#00A14B"/>
</linearGradient>
<linearGradient id="paint4_linear_116_329" x1="57.7342" y1="52.8062" x2="57.7342" y2="64.0715" gradientUnits="userSpaceOnUse">
<stop stop-color="#71FA71"/>
<stop offset="1" stop-color="#00A14B"/>
</linearGradient>
<linearGradient id="paint5_linear_116_329" x1="26.7548" y1="28.8674" x2="26.7548" y2="31.6838" gradientUnits="userSpaceOnUse">
<stop stop-color="#71FA71"/>
<stop offset="1" stop-color="#00A14B"/>
</linearGradient>
<linearGradient id="paint6_linear_116_329" x1="42.2451" y1="28.8674" x2="42.2451" y2="31.6838" gradientUnits="userSpaceOnUse">
<stop stop-color="#71FA71"/>
<stop offset="1" stop-color="#00A14B"/>
</linearGradient>
<linearGradient id="paint7_linear_116_329" x1="57.7343" y1="28.8674" x2="57.7343" y2="31.6838" gradientUnits="userSpaceOnUse">
<stop stop-color="#71FA71"/>
<stop offset="1" stop-color="#00A14B"/>
</linearGradient>
<linearGradient id="paint8_linear_116_329" x1="57.7343" y1="42.949" x2="57.7343" y2="45.7653" gradientUnits="userSpaceOnUse">
<stop stop-color="#71FA71"/>
<stop offset="1" stop-color="#00A14B"/>
</linearGradient>
<linearGradient id="paint9_linear_116_329" x1="42.2451" y1="42.949" x2="42.2451" y2="45.7653" gradientUnits="userSpaceOnUse">
<stop stop-color="#71FA71"/>
<stop offset="1" stop-color="#00A14B"/>
</linearGradient>
<linearGradient id="paint10_linear_116_329" x1="26.7548" y1="42.949" x2="26.7548" y2="45.7653" gradientUnits="userSpaceOnUse">
<stop stop-color="#71FA71"/>
<stop offset="1" stop-color="#00A14B"/>
</linearGradient>
<linearGradient id="paint11_linear_116_329" x1="11.2656" y1="42.949" x2="11.2656" y2="45.7653" gradientUnits="userSpaceOnUse">
<stop stop-color="#71FA71"/>
<stop offset="1" stop-color="#00A14B"/>
</linearGradient>
<linearGradient id="paint12_linear_116_329" x1="11.2656" y1="57.0305" x2="11.2656" y2="59.8468" gradientUnits="userSpaceOnUse">
<stop stop-color="#71FA71"/>
<stop offset="1" stop-color="#00A14B"/>
</linearGradient>
<linearGradient id="paint13_linear_116_329" x1="26.7548" y1="57.0305" x2="26.7548" y2="59.8468" gradientUnits="userSpaceOnUse">
<stop stop-color="#71FA71"/>
<stop offset="1" stop-color="#00A14B"/>
</linearGradient>
<clipPath id="clip0_116_329">
<rect width="69" height="69" fill="white"/>
</clipPath>
</defs>
</svg>
