<svg width="30" height="30" viewBox="0 0 46 46" fill="none" xmlns="http://www.w3.org/2000/svg">
<g clip-path="url(#clip0_197_2787)">
<path d="M41.6875 1.4375H4.3125C2.72468 1.4375 1.4375 2.72468 1.4375 4.3125V33.0625C1.4375 34.6503 2.72468 35.9375 4.3125 35.9375H41.6875C43.2753 35.9375 44.5625 34.6503 44.5625 33.0625V4.3125C44.5625 2.72468 43.2753 1.4375 41.6875 1.4375Z" stroke="black" stroke-width="2.5" stroke-linecap="round" stroke-linejoin="round"/>
<path d="M30.1875 44.5625H15.8125L17.25 35.9375H28.75L30.1875 44.5625Z" stroke="black" stroke-width="2.5" stroke-linecap="round" stroke-linejoin="round"/>
<path d="M12.9375 44.5625H33.0625" stroke="black" stroke-width="3.75" stroke-linecap="round" stroke-linejoin="round"/>
<path d="M1.4375 30.1875H44.5625" stroke="black" stroke-width="2.5" stroke-linecap="round" stroke-linejoin="round"/>
<path d="M22.3908 9.67598C22.5837 9.24316 22.6802 9.02675 22.8145 8.96011C22.9312 8.90221 23.0682 8.90221 23.1848 8.96011C23.3192 9.02675 23.4157 9.24316 23.6086 9.67598L25.1453 13.1234C25.2023 13.2514 25.2308 13.3153 25.275 13.3643C25.314 13.4077 25.3618 13.4424 25.415 13.4661C25.4753 13.4929 25.5449 13.5003 25.6843 13.515L29.4378 13.9112C29.9091 13.9609 30.1447 13.9858 30.2496 14.0929C30.3407 14.186 30.383 14.3163 30.364 14.4452C30.3422 14.5935 30.1662 14.7521 29.8142 15.0694L27.0103 17.5962C26.9063 17.6899 26.8542 17.7369 26.8213 17.7939C26.7921 17.8445 26.7738 17.9006 26.7678 17.9586C26.7608 18.0242 26.7753 18.0927 26.8044 18.2298L27.5876 21.922C27.6859 22.3856 27.7351 22.6174 27.6656 22.7502C27.6052 22.8657 27.4943 22.9462 27.3659 22.9679C27.2181 22.9929 27.0128 22.8746 26.6023 22.6379L23.3328 20.752C23.2114 20.682 23.1508 20.6471 23.0863 20.6334C23.0292 20.6213 22.9702 20.6213 22.9131 20.6334C22.8486 20.6471 22.7879 20.682 22.6666 20.752L19.397 22.6379C18.9865 22.8746 18.7813 22.9929 18.6335 22.9679C18.505 22.9462 18.3942 22.8657 18.3338 22.7502C18.2643 22.6174 18.3135 22.3856 18.4118 21.922L19.1949 18.2298C19.224 18.0927 19.2385 18.0242 19.2316 17.9586C19.2255 17.9006 19.2073 17.8445 19.1781 17.7939C19.1452 17.7369 19.0931 17.6899 18.9891 17.5962L16.1852 15.0694C15.8332 14.7521 15.6572 14.5935 15.6353 14.4452C15.6163 14.3163 15.6587 14.186 15.7498 14.0929C15.8547 13.9858 16.0903 13.9609 16.5616 13.9112L20.3151 13.515C20.4544 13.5003 20.5241 13.4929 20.5843 13.4661C20.6376 13.4424 20.6853 13.4077 20.7244 13.3643C20.7685 13.3153 20.797 13.2514 20.8541 13.1234L22.3908 9.67598Z" stroke="black" stroke-linecap="round" stroke-linejoin="round"/>
</g>
<defs>
<clipPath id="clip0_197_2787">
<rect width="46" height="46" fill="white"/>
</clipPath>
</defs>
</svg>
