<svg width="30" height="30" viewBox="0 0 42 42" fill="none" xmlns="http://www.w3.org/2000/svg">
<g clip-path="url(#clip0_197_2760)">
<path d="M42 21C42 26.5695 39.7875 31.911 35.8492 35.8492C31.911 39.7875 26.5695 42 21 42C15.4305 42 10.089 39.7875 6.15076 35.8492C2.21249 31.911 0 26.5695 0 21C0 20.5359 0.184375 20.0908 0.512563 19.7626C0.840752 19.4344 1.28587 19.25 1.75 19.25C2.0804 19.25 2.41026 19.4103 2.5 19.5C2.82819 19.8282 3 20.5359 3 21C3 24.4612 4.07708 28.1221 6 31C7.92292 33.8779 10.8023 36.1755 14 37.5C17.1977 38.8245 21.0735 39.1752 24.4682 38.5C27.8628 37.8248 31.0526 36.4474 33.5 34C35.9474 31.5526 37.8248 28.3947 38.5 25C39.1752 21.6053 38.8245 17.1977 37.5 14C36.1755 10.8023 33.8779 8.08033 31 6.15741C28.1221 4.23448 24.1986 3.01256 20.7374 3.01256C20.2733 3.01256 19.8282 2.82819 19.5 2.5C19.3293 2.32926 19.25 1.83554 19.25 1.75C19.25 1.28587 19.4344 0.840752 19.7626 0.512563C20.0908 0.184375 20.5359 0 21 0C26.5677 0.00602189 31.9056 2.22045 35.8426 6.15741C39.7796 10.0944 41.994 15.4323 42 21ZM17.9848 19.25H14C13.5359 19.25 13.0908 19.4344 12.7626 19.7626C12.4344 20.0908 12.25 20.5359 12.25 21C12.25 21.4641 12.4344 21.9092 12.7626 22.2374C13.0908 22.5656 13.5359 22.75 14 22.75H17.9848C18.252 23.2141 18.6225 23.6105 19.0676 23.9085C19.5126 24.2064 20.0203 24.3979 20.5513 24.4682C21.0823 24.5384 21.6223 24.4854 22.1295 24.3134C22.6367 24.1414 23.0975 23.8549 23.4762 23.4762C23.8549 23.0975 24.1414 22.6367 24.3134 22.1295C24.4854 21.6223 24.5384 21.0823 24.4682 20.5513C24.3979 20.0203 24.2064 19.5126 23.9085 19.0676C23.6105 18.6225 23.2141 18.252 22.75 17.9848V12.25C22.75 11.7859 22.5656 11.3408 22.2374 11.0126C21.9092 10.6844 21.4641 10.5 21 10.5C20.5359 10.5 20.0908 10.6844 19.7626 11.0126C19.4344 11.3408 19.25 11.7859 19.25 12.25V17.9848C18.7257 18.2897 18.2897 18.7257 17.9848 19.25ZM3.19725 15.372C3.54337 15.372 3.88171 15.2694 4.1695 15.0771C4.45728 14.8848 4.68159 14.6115 4.81404 14.2917C4.94649 13.9719 4.98115 13.6201 4.91362 13.2806C4.8461 12.9411 4.67943 12.6293 4.43469 12.3846C4.18994 12.1398 3.87812 11.9731 3.53866 11.9056C3.19919 11.8381 2.84732 11.8728 2.52755 12.0052C2.20778 12.1377 1.93447 12.362 1.74218 12.6498C1.54989 12.9375 1.44725 13.2759 1.44725 13.622C1.44725 14.0861 1.63162 14.5312 1.95981 14.8594C2.288 15.1876 2.73312 15.372 3.19725 15.372ZM7.38675 9.11225C7.73287 9.11225 8.07121 9.00961 8.359 8.81732C8.64678 8.62503 8.87109 8.35172 9.00354 8.03195C9.13599 7.71218 9.17065 7.36031 9.10312 7.02084C9.0356 6.68138 8.86893 6.36955 8.62419 6.12481C8.37945 5.88007 8.06763 5.7134 7.72816 5.64588C7.38869 5.57835 7.03683 5.61301 6.71705 5.74546C6.39728 5.87791 6.12397 6.10222 5.93168 6.39C5.73939 6.67779 5.63675 7.01613 5.63675 7.36225C5.63675 7.82638 5.82112 8.2715 6.14931 8.59969C6.4775 8.92788 6.92262 9.11225 7.38675 9.11225ZM13.6132 4.97175C13.9594 4.97175 14.2977 4.86911 14.5855 4.67682C14.8733 4.48453 15.0976 4.21122 15.23 3.89145C15.3625 3.57168 15.3971 3.21981 15.3296 2.88034C15.2621 2.54088 15.0954 2.22906 14.8507 1.98431C14.6059 1.73957 14.2941 1.5729 13.9547 1.50538C13.6152 1.43785 13.2633 1.47251 12.9436 1.60496C12.6238 1.73741 12.3505 1.96172 12.1582 2.2495C11.9659 2.53729 11.8632 2.87563 11.8632 3.22175C11.8632 3.68588 12.0476 4.131 12.3758 4.45919C12.704 4.78738 13.1491 4.97175 13.6132 4.97175Z" fill="black"/>
</g>
<defs>
<clipPath id="clip0_197_2760">
<rect width="42" height="42" fill="white"/>
</clipPath>
</defs>
</svg>
