<svg width="40" height="40" viewBox="0 0 60 60" fill="none" xmlns="http://www.w3.org/2000/svg">
<g clip-path="url(#clip0_197_2715)">
<path d="M51.6837 0.24646H47.7412C47.2307 0.24646 46.8171 0.660132 46.8171 1.17048V4.13263L36.3632 10.3397C35.8644 9.60259 35.0207 9.11709 34.0656 9.11709H25.9342C24.9341 9.11709 24.0562 9.64947 23.5685 10.4458L13.1827 4.27912V1.17048C13.1827 0.660132 12.769 0.24646 12.2587 0.24646H8.31611C7.80576 0.24646 7.39209 0.660132 7.39209 1.17048V32.7106C7.39209 33.2209 7.80576 33.6346 8.31611 33.6346H12.2587C12.769 33.6346 13.1827 33.2209 13.1827 32.7106V29.602L23.5687 23.4355C24.0563 24.2317 24.9342 24.7641 25.9343 24.7641H27.1048V32.7107C27.1048 33.221 27.5185 33.6347 28.0288 33.6347H29.076V35.2979C29.076 36.8265 30.3196 38.07 31.8481 38.07H34.9281C35.4386 38.07 35.8521 37.6563 35.8521 37.146C35.8521 36.6356 35.4386 36.222 34.9281 36.222H31.8479C31.3384 36.222 30.9239 35.8075 30.9239 35.2979V33.6347H31.9711C32.4816 33.6347 32.8951 33.221 32.8951 32.7107V24.7641H34.0656C35.0657 24.7641 35.9437 24.2317 36.4313 23.4355L46.7767 29.578C46.7898 29.5859 46.8038 29.5915 46.8172 29.5984V32.7106C46.8172 33.2209 47.2308 33.6346 47.7413 33.6346H51.6838C52.1943 33.6346 52.6078 33.2209 52.6078 32.7106V1.17048C52.6077 0.660132 52.1942 0.24646 51.6837 0.24646ZM11.3346 31.7864H9.24014V2.09451H11.3346V31.7864ZM23.1621 21.5274L13.1827 27.4527V6.4281L23.1216 12.3293C23.1347 12.3372 23.1487 12.3428 23.1621 12.3498V21.5274ZM31.0471 31.7864H28.9526V24.7638H31.0471V31.7864ZM46.8171 27.4528L36.8377 21.5275V18.9117C36.8377 18.4014 36.4241 17.9877 35.9137 17.9877C35.4032 17.9877 34.9896 18.4014 34.9896 18.9117V21.9918C34.9896 22.5013 34.5751 22.9158 34.0656 22.9158H25.9342C25.4247 22.9158 25.0102 22.5013 25.0102 21.9918V11.8892C25.0102 11.3796 25.4247 10.9651 25.9342 10.9651H34.0656C34.5751 10.9651 34.9896 11.3796 34.9896 11.8892V14.7229C34.9896 15.2332 35.4032 15.6469 35.9137 15.6469C36.4241 15.6469 36.8377 15.2332 36.8377 14.7229V12.2073L46.8171 6.28197V27.4528ZM50.7597 31.7864H48.6652V2.09451H50.7597V31.7864Z" fill="#1C1E1C"/>
<path d="M59.0758 16.0165H55.6262C55.1157 16.0165 54.7021 16.4302 54.7021 16.9405C54.7021 17.4509 55.1157 17.8645 55.6262 17.8645H59.0758C59.5863 17.8645 59.9998 17.4509 59.9998 16.9405C59.9998 16.4302 59.5863 16.0165 59.0758 16.0165Z" fill="#1C1E1C"/>
<path d="M59.2932 7.97108C58.9666 7.57909 58.3839 7.526 57.9918 7.85284L55.0349 10.3169C54.3932 10.8517 54.8018 11.9508 55.627 11.9508C55.8354 11.9508 56.0453 11.8806 56.2181 11.7367L59.1749 9.27257C59.567 8.94573 59.6199 8.36319 59.2932 7.97108Z" fill="#1C1E1C"/>
<path d="M59.1746 24.6085L56.2177 22.1444C55.8258 21.8179 55.2431 21.8706 54.9163 22.2626C54.5897 22.6546 54.6426 23.2372 55.0346 23.564L57.9914 26.0281C58.1642 26.172 58.3738 26.2422 58.5825 26.2422C58.8471 26.2422 59.1101 26.129 59.2929 25.9096C59.6195 25.5177 59.5664 24.9352 59.1746 24.6085Z" fill="#1C1E1C"/>
<path d="M4.37367 16.0165H0.924023C0.413672 16.0165 0 16.4302 0 16.9405C0 17.4509 0.413672 17.8645 0.924023 17.8645H4.37367C4.88402 17.8645 5.2977 17.4509 5.2977 16.9405C5.2977 16.4302 4.88402 16.0165 4.37367 16.0165Z" fill="#1C1E1C"/>
<path d="M4.96513 10.3168L2.00825 7.85274C1.61626 7.52613 1.03361 7.5791 0.706886 7.97098C0.380168 8.36297 0.433136 8.94563 0.825129 9.27234L3.782 11.7364C3.95485 11.8805 4.1645 11.9507 4.3731 11.9507C4.63782 11.9507 4.90068 11.8375 5.08349 11.6181C5.41021 11.2262 5.35712 10.6436 4.96513 10.3168Z" fill="#1C1E1C"/>
<path d="M5.08337 22.2627C4.75665 21.8706 4.17388 21.8175 3.782 22.1443L0.825129 24.6084C0.433136 24.9352 0.380168 25.5178 0.706886 25.9098C0.889582 26.1291 1.15255 26.2424 1.41728 26.2424C1.62587 26.2424 1.83564 26.1722 2.00825 26.0283L4.96513 23.5642C5.35712 23.2373 5.41009 22.6547 5.08337 22.2627Z" fill="#1C1E1C"/>
<path d="M47.8643 36.2217H38.8705C38.3601 36.2217 37.9465 36.6354 37.9465 37.1457C37.9465 37.6561 38.3601 38.0698 38.8705 38.0698H47.8643C48.3738 38.0698 48.7883 38.4842 48.7883 38.9938V40.7187C48.7883 41.2282 48.3738 41.6427 47.8643 41.6427H31.8478C30.3194 41.6427 29.0758 42.8862 29.0758 44.4148V44.5996H28.2749C25.7272 44.5996 23.6548 46.6721 23.6548 49.2197V56.9815C23.6548 58.5101 24.8983 59.7535 26.4269 59.7535H33.5726C35.1011 59.7535 36.3447 58.5101 36.3447 56.9815V49.2197C36.3447 46.672 34.2721 44.5996 31.7245 44.5996H30.9237V44.4148C30.9237 43.9052 31.3382 43.4907 31.8477 43.4907H47.8642C49.3927 43.4907 50.6363 42.2473 50.6363 40.7187V38.9938C50.6364 37.4652 49.3927 36.2217 47.8643 36.2217ZM25.5028 49.2197C25.5028 47.6911 26.7463 46.4476 28.2749 46.4476H29.0758V50.0205H25.5028V49.2197ZM34.4967 56.9815C34.4967 57.491 34.0822 57.9055 33.5727 57.9055H26.427C25.9174 57.9055 25.5029 57.491 25.5029 56.9815V51.8686H34.4967V56.9815ZM31.7247 46.4476C33.2531 46.4476 34.4967 47.6911 34.4967 49.2197V50.0205H30.9238V46.4476H31.7247Z" fill="#1C1E1C"/>
</g>
<defs>
<clipPath id="clip0_197_2715">
<rect width="60" height="60" fill="white"/>
</clipPath>
</defs>
</svg>
