<svg width="30" height="30" viewBox="0 0 44 44" fill="none" xmlns="http://www.w3.org/2000/svg">
<g clip-path="url(#clip0_219_977)">
<path d="M32.274 4.04181e-05C31.9895 -0.00289292 31.7284 0.15404 31.6023 0.40484L28.38 6.82884L21.164 7.85551C20.5583 7.94351 20.3163 8.67684 20.7563 9.09631L26.3369 14.0932L24.9392 21.1479C24.8365 21.7434 25.4716 22.1966 26.0143 21.915L32.2667 18.5827L38.5528 21.9164C39.0955 22.1951 39.7261 21.7434 39.6264 21.1508L38.2448 14.0962L43.7741 9.09777C44.2141 8.67831 43.9736 7.94351 43.3664 7.85697L36.1563 6.83031L32.9296 0.406307C32.8064 0.161374 32.5527 0.00297375 32.274 4.04181e-05ZM32.2667 2.36871L34.9991 7.81004C35.1061 8.02711 35.3159 8.17671 35.5564 8.21044L41.6695 9.08311L36.9365 13.3218C36.7605 13.486 36.6828 13.7266 36.7239 13.9612L37.9163 19.9452L32.6128 17.119C32.3972 17.0075 32.1405 17.0075 31.9235 17.119L26.6581 19.9438L27.8652 13.9598C27.9063 13.7251 27.8256 13.4831 27.6525 13.3174L22.8683 9.07871L28.9784 8.20751C29.2204 8.17377 29.4287 8.02417 29.5357 7.80857L32.2667 2.36871ZM24.2 26.4C22.9944 26.4 22 27.3944 22 28.6V41.8C22 43.0056 22.9944 44 24.2 44H37.4C38.6056 44 39.6 43.0056 39.6 41.8V28.6C39.6 27.3944 38.6056 26.4 37.4 26.4H24.2ZM24.2 27.8667H37.4C37.8195 27.8667 38.1333 28.1806 38.1333 28.6V41.8C38.1333 42.2195 37.8195 42.5334 37.4 42.5334H24.2C23.7805 42.5334 23.4667 42.2195 23.4667 41.8V28.6C23.4667 28.1806 23.7805 27.8667 24.2 27.8667ZM2.2 4.40004C0.9944 4.40004 0 5.39444 0 6.60004V19.8C0 21.0056 0.9944 22 2.2 22H15.4C16.6056 22 17.6 21.0056 17.6 19.8V6.60004C17.6 5.39444 16.6056 4.40004 15.4 4.40004H2.2ZM2.2 5.86671H15.4C15.8195 5.86671 16.1333 6.18057 16.1333 6.60004V19.8C16.1333 20.2195 15.8195 20.5334 15.4 20.5334H2.2C1.78053 20.5334 1.46667 20.2195 1.46667 19.8V6.60004C1.46667 6.18057 1.78053 5.86671 2.2 5.86671ZM2.2 26.4C0.9944 26.4 0 27.3944 0 28.6V41.8C0 43.0056 0.9944 44 2.2 44H15.4C16.6056 44 17.6 43.0056 17.6 41.8V28.6C17.6 27.3944 16.6056 26.4 15.4 26.4H2.2ZM2.2 27.8667H15.4C15.8195 27.8667 16.1333 28.1806 16.1333 28.6V41.8C16.1333 42.2195 15.8195 42.5334 15.4 42.5334H2.2C1.78053 42.5334 1.46667 42.2195 1.46667 41.8V28.6C1.46667 28.1806 1.78053 27.8667 2.2 27.8667Z" fill="black"/>
</g>
<defs>
<clipPath id="clip0_219_977">
<rect width="44" height="44" fill="white"/>
</clipPath>
</defs>
</svg>
