<svg width="36" height="36" viewBox="0 0 36 36" fill="none" xmlns="http://www.w3.org/2000/svg">
<path d="M16.9032 6.61673C17.2504 5.83766 17.4241 5.44812 17.6659 5.32817C17.8759 5.22394 18.1225 5.22394 18.3325 5.32817C18.5743 5.44812 18.748 5.83766 19.0953 6.61673L21.8613 12.8221C21.964 13.0524 22.0153 13.1676 22.0948 13.2558C22.165 13.3338 22.251 13.3962 22.3468 13.4389C22.4553 13.4872 22.5807 13.5005 22.8315 13.5269L29.5879 14.24C30.4362 14.3296 30.8602 14.3743 31.0491 14.5672C31.213 14.7347 31.2892 14.9693 31.255 15.2013C31.2157 15.4683 30.8989 15.7538 30.2653 16.3248L25.2183 20.8731C25.0311 21.0419 24.9373 21.1263 24.8781 21.2291C24.8256 21.3201 24.7927 21.4211 24.7818 21.5255C24.7693 21.6435 24.7954 21.7668 24.8478 22.0136L26.2575 28.6596C26.4345 29.4941 26.523 29.9112 26.3979 30.1503C26.2891 30.3582 26.0896 30.5031 25.8585 30.5423C25.5924 30.5873 25.2229 30.3743 24.484 29.9481L18.5988 26.5536C18.3804 26.4276 18.2712 26.3648 18.1551 26.34C18.0523 26.3183 17.9461 26.3183 17.8434 26.34C17.7273 26.3648 17.6181 26.4276 17.3997 26.5536L11.5144 29.9481C10.7756 30.3743 10.4061 30.5873 10.14 30.5423C9.90886 30.5031 9.7093 30.3582 9.60064 30.1503C9.47555 29.9112 9.56404 29.4941 9.74102 28.6596L11.1507 22.0136C11.203 21.7668 11.2291 21.6435 11.2167 21.5255C11.2057 21.4211 11.1729 21.3201 11.1204 21.2291C11.0611 21.1263 10.9674 21.0419 10.7801 20.8731L5.7332 16.3248C5.09959 15.7538 4.78277 15.4683 4.74338 15.2013C4.70918 14.9693 4.7854 14.7347 4.94941 14.5672C5.13823 14.3743 5.56235 14.3296 6.4106 14.24L13.167 13.5269C13.4178 13.5005 13.5432 13.4872 13.6516 13.4389C13.7475 13.3962 13.8334 13.3338 13.9037 13.2558C13.9831 13.1676 14.0345 13.0524 14.1371 12.8221L16.9032 6.61673Z" fill="url(#paint0_linear_132_219)" stroke="url(#paint1_linear_132_219)" stroke-width="5" stroke-linecap="round" stroke-linejoin="round"/>
<defs>
<linearGradient id="paint0_linear_132_219" x1="17.9992" y1="5.25" x2="17.9992" y2="30.5482" gradientUnits="userSpaceOnUse">
<stop stop-color="#71FA71"/>
<stop offset="1" stop-color="#00A14B"/>
</linearGradient>
<linearGradient id="paint1_linear_132_219" x1="17.9992" y1="5.25" x2="17.9992" y2="30.5482" gradientUnits="userSpaceOnUse">
<stop stop-color="#71FA71"/>
<stop offset="1" stop-color="#00A14B"/>
</linearGradient>
</defs>
</svg>
