<svg width="88" height="89" viewBox="0 0 88 89" fill="none" xmlns="http://www.w3.org/2000/svg">
<g clip-path="url(#clip0_116_321)">
<path d="M35.4498 80.5435C35.1911 80.421 34.9854 80.2089 34.8708 79.9466C34.7562 79.6842 34.7405 79.3893 34.8265 79.1162C35.202 77.3444 36.1594 75.7491 37.5462 74.5842C38.2521 73.9554 38.9487 73.3201 39.6142 72.6537C39.6992 72.57 39.7657 72.4695 39.8094 72.3586C39.8531 72.2476 39.8731 72.1288 39.868 72.0096C39.8629 71.8905 39.8329 71.7738 39.7798 71.667C39.7268 71.5602 39.652 71.4657 39.5602 71.3896C38.6737 70.5426 37.78 69.702 36.8514 68.8981C35.7211 67.8823 34.8796 66.5857 34.4121 65.1398C34.2835 64.7351 34.2424 64.3077 34.2917 63.886C34.3409 63.4642 34.4793 63.0577 34.6977 62.6936C34.9161 62.3295 35.2095 62.016 35.5584 61.7739C35.9073 61.5319 36.3037 61.3668 36.7212 61.2898C37.0032 61.2787 37.2848 61.32 37.5517 61.4117C39.1049 61.8337 40.5642 62.5456 41.8527 63.51C42.9252 64.2845 44.0335 65.0069 45.1106 65.7741C45.3739 65.9741 45.6995 66.0745 46.0297 66.0578C46.36 66.041 46.6737 65.9081 46.9155 65.6824C49.0206 64.2349 50.869 62.4456 52.3843 60.3887C53.1314 59.3538 54.3093 58.8982 55.1435 58.0054C55.3452 57.7927 55.8667 57.7963 56.227 57.833C56.7876 57.9014 57.3402 58.0243 57.877 58.1997C58.6424 58.4353 58.9541 58.945 58.7936 60.1476C58.5698 61.5964 57.84 62.9191 56.7339 63.8812C55.1352 65.4835 53.6585 67.2105 52.1616 68.9174C51.5639 69.5975 51.6436 69.9321 52.3861 70.5545C53.1885 71.354 54.0717 72.0679 55.0215 72.6849C56.0578 73.3306 56.8805 74.2678 57.3866 75.379C57.6919 75.8661 57.8322 76.4387 57.7864 77.0118C57.7407 77.585 57.5114 78.1281 57.1326 78.5607C56.8107 79.082 56.3459 79.5001 55.7935 79.7651C55.241 80.0301 54.6241 80.131 54.016 80.0558C52.1396 79.7783 50.373 78.9992 48.9028 77.8008C47.9861 77.1307 47.0841 76.4459 46.1757 75.7685C46.0276 75.6517 45.8439 75.5891 45.6553 75.5913C45.4666 75.5934 45.2844 75.6602 45.139 75.7804C44.7512 76.0435 44.3617 76.313 44.0014 76.6137C42.6276 77.7644 41.2609 78.92 39.9011 80.0805C39.1658 80.6848 38.2573 81.0395 37.307 81.0934C37.2202 81.1014 37.1356 81.1053 37.0531 81.1053C36.4715 81.0989 35.9081 80.9015 35.4498 80.5435ZM86.1662 74.8299C84.5529 70.8937 82.4501 67.1977 80.4829 63.4384C78.5398 59.8665 76.1528 56.5545 73.3787 53.5815C69.467 49.1945 64.7057 45.6469 59.3831 43.1535C55.6815 41.2752 51.8785 39.6036 47.9917 38.1467C44.6894 37.0224 41.274 36.2629 37.8065 35.8816C37.7149 35.8896 37.6263 35.9186 37.5477 35.9663C37.469 36.0139 37.4023 36.0791 37.3528 36.1566C37.3291 36.2354 37.3261 36.319 37.344 36.3992C37.362 36.4795 37.4004 36.5538 37.4555 36.615C38.6237 37.7067 39.6135 38.9749 40.3888 40.3733C40.9244 41.2805 41.101 42.3554 40.8838 43.3864C40.6963 44.1158 40.2495 44.7519 39.6269 45.1758C39.0044 45.5996 38.2487 45.7821 37.5013 45.689C36.4855 45.4614 35.5272 45.0281 34.6853 44.4158C33.1856 43.2718 31.5916 42.246 30.1432 41.0406C29.1263 40.1977 27.9885 39.5124 26.7681 39.0074C25.5298 38.5286 24.422 37.7641 23.535 36.7763C23.0555 36.3102 22.7545 35.6907 22.6844 35.0257C22.6142 34.3607 22.7793 33.6921 23.1509 33.1362C24.7386 30.311 24.7404 30.3119 27.583 28.6647C28.4813 28.1404 29.3595 27.5849 30.2596 27.0688C32.4661 25.8074 34.5909 24.3884 37.2016 24.0016C37.9186 23.7719 38.62 23.4964 39.3016 23.1766C39.7474 23.0112 40.2267 22.9571 40.6981 23.0189C41.1695 23.0807 41.6187 23.2566 42.0067 23.5314C42.3007 23.7331 42.5486 23.9949 42.734 24.2994C42.9193 24.604 43.038 24.9444 43.0821 25.2983C43.1262 25.6521 43.0947 26.0112 42.9898 26.3519C42.8849 26.6927 42.7088 27.0073 42.4733 27.275C42.1286 27.7663 41.3009 27.8324 41.3339 28.6216C41.8903 28.6904 42.4586 28.7133 43.0031 28.8352C44.6732 29.1294 46.3234 29.5274 47.944 30.0269C54.8731 32.5019 61.7435 35.1144 68.1106 38.8883C72.2188 41.2307 75.9685 44.1522 79.2445 47.5627C81.4564 49.7697 83.1672 52.4272 84.2605 55.3544C84.9837 57.4874 86.0526 59.5041 86.9601 61.5776C87.1383 61.9071 87.2647 62.262 87.335 62.6299C87.5651 64.9775 87.7585 67.3288 88.0014 70.1173C87.8135 71.3786 87.6017 73.0579 87.2873 74.7208C87.1158 75.2345 86.8726 75.7215 86.565 76.1673C86.4546 75.715 86.3215 75.2687 86.1662 74.8299ZM3.39855 60.4785C2.65067 59.9022 1.98188 59.2301 1.40938 58.4793C1.01326 57.9549 0.753415 57.3404 0.653137 56.6909C0.378137 54.7283 0.169133 52.7547 0.0362165 50.7774C-0.101612 48.2234 0.281053 45.6679 1.16097 43.2663C1.50099 42.1304 2.10473 41.0909 2.92291 40.2327C3.7411 39.3746 4.75057 38.722 5.86897 38.3282C7.16597 37.7595 8.54613 37.4036 9.95639 37.274C10.3336 37.28 10.7103 37.2412 11.0784 37.1585C14.7451 36.1328 17.9616 37.4574 21.0783 39.111C21.789 39.5735 22.3824 40.1948 22.8117 40.926C24.4935 43.3654 25.3079 46.2986 25.1245 49.2558C25.139 51.7118 24.6989 54.1493 23.8265 56.4452C23.0905 58.3961 21.9356 60.1619 20.4431 61.618C19.1854 62.9229 17.4851 63.7103 15.6764 63.8253C15.0714 63.8742 14.4728 63.8989 13.8806 63.8995C10.1022 63.9663 6.41095 62.7615 3.39947 60.4785H3.39855ZM12.1986 57.5452C13.1497 57.8404 14.1638 57.8676 15.1295 57.6239C16.0951 57.3802 16.9748 56.875 17.672 56.1638C18.0139 55.8429 18.5382 55.5313 18.6097 55.1454C18.8847 53.6787 19.6877 52.2615 19.2743 50.7334C18.7591 48.8259 18.1303 46.9494 17.496 45.0794C17.3886 44.8138 17.2065 44.585 16.9717 44.4209C16.7369 44.2567 16.4596 44.1642 16.1732 44.1545C15.5167 44.0749 14.8521 44.2107 14.2794 44.5413C11.4726 46.0263 9.4128 48.3492 7.32464 50.6399C6.80031 51.3249 6.5695 52.1901 6.68297 53.0453C6.60278 53.4673 6.64091 53.9033 6.79315 54.305C6.94539 54.7067 7.20579 55.0585 7.54555 55.3214C8.51997 56.348 9.44672 57.4517 11.1077 57.2711C11.1363 57.268 11.1651 57.2665 11.1939 57.2665C11.5396 57.3158 11.8777 57.4081 12.2004 57.5415L12.1986 57.5452ZM57.503 25.4564C57.4007 25.1978 57.3505 24.9216 57.3554 24.6437C57.3603 24.3657 57.4201 24.0914 57.5314 23.8366C57.9775 22.9037 58.5041 22.0114 59.1053 21.17C59.4482 20.7188 59.8334 20.3013 60.2557 19.9234C61.7343 18.4659 61.6573 18.255 59.8817 16.946C59.3746 16.5195 58.7999 16.1806 58.1813 15.9432C56.458 15.4198 55.3479 14.1098 54.148 12.9365C53.7038 12.4526 53.3562 11.8882 53.1241 11.2737C52.9984 10.9925 52.9385 10.6863 52.949 10.3785C52.9595 10.0707 53.0401 9.76936 53.1846 9.49739C53.3292 9.22541 53.5338 8.98998 53.783 8.80902C54.0323 8.62806 54.3194 8.50633 54.6228 8.4531C56.5799 8.1836 58.5315 8.04518 60.3465 9.26618C61.7453 10.2113 63.3045 10.9244 64.785 11.7504C65.0679 11.926 65.405 11.9929 65.7336 11.9388C66.0621 11.8847 66.3599 11.7132 66.5716 11.4561C67.2461 10.7984 67.8755 10.0958 68.4553 9.35326C68.7616 8.93162 69.1587 8.58409 69.6172 8.33628C70.0756 8.08847 70.5839 7.94672 71.1045 7.92145C72.5473 7.81145 73.343 8.58785 73.0918 9.9381C72.9052 11.3416 72.4621 12.6988 71.7846 13.9421C71.695 14.0553 71.6334 14.1881 71.6048 14.3297C71.5763 14.4712 71.5816 14.6175 71.6202 14.7566C71.6589 14.8958 71.7299 15.0238 71.8275 15.1303C71.925 15.2367 72.0463 15.3187 72.1815 15.3694C73.0589 15.9194 73.9865 16.385 74.9517 16.7599C76.896 17.4861 78.7421 18.4521 80.4471 19.6355C81.0772 20.0435 81.6328 20.5563 82.0898 21.1517C82.4458 21.5355 82.6677 22.0243 82.7224 22.5449C82.7771 23.0655 82.6616 23.5898 82.3932 24.0392C81.6315 25.3619 80.7781 25.9853 79.5204 25.9642C78.3788 25.9504 77.2663 25.6024 76.3203 24.9632C73.9883 23.4965 71.2566 22.9236 68.8861 21.5569C68.5391 21.41 68.1823 21.2874 67.8182 21.1902C67.6013 21.0954 67.3576 21.0817 67.1314 21.1513C66.9052 21.2209 66.7114 21.3694 66.5853 21.5697C65.8731 22.4469 65.1966 23.3508 64.4825 24.228C63.9403 24.9981 63.3221 25.7118 62.6372 26.3583C61.9599 26.9731 61.092 27.3369 60.1787 27.3887C59.5948 27.354 59.033 27.1533 58.5593 26.8102C58.0856 26.467 57.7198 25.9958 57.5048 25.4518L57.503 25.4564Z" fill="url(#paint0_linear_116_321)"/>
</g>
<defs>
<linearGradient id="paint0_linear_116_321" x1="44.0051" y1="7.91113" x2="44.0051" y2="81.1053" gradientUnits="userSpaceOnUse">
<stop stop-color="#71FA71"/>
<stop offset="1" stop-color="#00A14B"/>
</linearGradient>
<clipPath id="clip0_116_321">
<rect width="88" height="88" fill="white" transform="translate(0 0.5)"/>
</clipPath>
</defs>
</svg>
